<svg width="800" height="450" xmlns="http://www.w3.org/2000/svg" font-family="sans-serif">
  <rect width="800" height="450" fill="#08131f"/>
  <rect width="800" height="40" fill="#0d1b2b"/>
  <rect x="0" y="40" width="800" height="1" fill="#244763"/>
  <text x="20" y="26" fill="#00f5ff" font-size="14" font-weight="bold">LangSmith Trace · Chain Execution</text>
  <text x="540" y="26" fill="#5a8090" font-size="11">Run ID: 7f3a8c1d · Mar 20 14:32:44</text>

  <!-- Trace tree -->
  <rect x="10" y="50" width="520" height="390" rx="4" fill="#0d1b2b" stroke="#244763" stroke-width="1"/>
  <rect x="10" y="50" width="520" height="28" fill="#112338"/>
  <text x="24" y="69" fill="#c8e0f4" font-size="12" font-weight="bold">Trace Tree</text>
  <text x="400" y="69" fill="#00ff88" font-size="10">Success · 1.84s</text>

  <!-- Root: RunnableSequence -->
  <rect x="22" y="88" width="496" height="32" rx="3" fill="#112338" stroke="#00f5ff" stroke-width="1"/>
  <rect x="22" y="88" width="3" height="32" fill="#00f5ff"/>
  <text x="34" y="104" fill="#00f5ff" font-size="11" font-weight="bold">RunnableSequence</text>
  <text x="34" y="116" fill="#3a6080" font-size="9">rag_chain · chain type</text>
  <text x="380" y="104" fill="#00f5ff" font-size="10">1842ms</text>
  <rect x="430" y="93" width="80" height="16" rx="3" fill="#00ff88" opacity="0.2"/>
  <text x="470" y="105" fill="#00ff88" font-size="9" text-anchor="middle">✓ success</text>

  <!-- Level 1: RunnableParallel -->
  <line x1="30" y1="120" x2="30" y2="155" stroke="#244763" stroke-width="1"/>
  <line x1="30" y1="155" x2="44" y2="155" stroke="#244763" stroke-width="1"/>
  <rect x="44" y="139" width="474" height="32" rx="3" fill="#08131f" stroke="#9d00ff" stroke-width="1"/>
  <rect x="44" y="139" width="3" height="32" fill="#9d00ff"/>
  <text x="56" y="155" fill="#9d00ff" font-size="11">RunnableParallel</text>
  <text x="56" y="167" fill="#3a6080" font-size="9">context + question passthrough</text>
  <text x="380" y="155" fill="#9d00ff" font-size="10">143ms</text>
  <rect x="430" y="144" width="80" height="16" rx="3" fill="#00ff88" opacity="0.15"/>
  <text x="470" y="156" fill="#00ff88" font-size="9" text-anchor="middle">✓ success</text>

  <!-- Level 2: VectorStoreRetriever -->
  <line x1="50" y1="171" x2="50" y2="208" stroke="#244763" stroke-width="1"/>
  <line x1="50" y1="208" x2="64" y2="208" stroke="#244763" stroke-width="1"/>
  <rect x="64" y="192" width="454" height="32" rx="3" fill="#08131f" stroke="#00f5ff" stroke-width="0.5"/>
  <rect x="64" y="192" width="3" height="32" fill="#00f5ff"/>
  <text x="76" y="208" fill="#00f5ff" font-size="10">VectorStoreRetriever</text>
  <text x="76" y="220" fill="#3a6080" font-size="9">query: "What is the invoice payment term..." · k=5 docs returned</text>
  <text x="375" y="208" fill="#00f5ff" font-size="10">141ms</text>
  <rect x="430" y="197" width="80" height="16" rx="3" fill="#00ff88" opacity="0.15"/>
  <text x="470" y="209" fill="#00ff88" font-size="9" text-anchor="middle">5 docs</text>

  <!-- Level 1: ContextFormatter -->
  <line x1="30" y1="120" x2="30" y2="242" stroke="#244763" stroke-width="1"/>
  <line x1="30" y1="242" x2="44" y2="242" stroke="#244763" stroke-width="1"/>
  <rect x="44" y="234" width="474" height="28" rx="3" fill="#08131f" stroke="#00ff88" stroke-width="1"/>
  <rect x="44" y="234" width="3" height="28" fill="#00ff88"/>
  <text x="56" y="250" fill="#00ff88" font-size="11">RunnableLambda (context_formatter)</text>
  <text x="380" y="250" fill="#00ff88" font-size="10">4ms</text>
  <rect x="430" y="239" width="80" height="16" rx="3" fill="#00ff88" opacity="0.15"/>
  <text x="470" y="251" fill="#00ff88" font-size="9" text-anchor="middle">2,184 chars</text>

  <!-- Level 1: ChatPromptTemplate -->
  <line x1="30" y1="120" x2="30" y2="285" stroke="#244763" stroke-width="1"/>
  <line x1="30" y1="285" x2="44" y2="285" stroke="#244763" stroke-width="1"/>
  <rect x="44" y="272" width="474" height="28" rx="3" fill="#08131f" stroke="#ffe000" stroke-width="1"/>
  <rect x="44" y="272" width="3" height="28" fill="#ffe000"/>
  <text x="56" y="288" fill="#ffe000" font-size="11">ChatPromptTemplate</text>
  <text x="380" y="288" fill="#ffe000" font-size="10">2ms</text>
  <rect x="430" y="277" width="80" height="16" rx="3" fill="#ffe000" opacity="0.15"/>
  <text x="470" y="289" fill="#ffe000" font-size="9" text-anchor="middle">1,247 tokens</text>

  <!-- Level 1: ChatOpenAI -->
  <line x1="30" y1="120" x2="30" y2="322" stroke="#244763" stroke-width="1"/>
  <line x1="30" y1="322" x2="44" y2="322" stroke="#244763" stroke-width="1"/>
  <rect x="44" y="310" width="474" height="32" rx="3" fill="#08131f" stroke="#ff0080" stroke-width="1"/>
  <rect x="44" y="310" width="3" height="32" fill="#ff0080"/>
  <text x="56" y="326" fill="#ff0080" font-size="11">ChatOpenAI (gpt-4o)</text>
  <text x="56" y="338" fill="#3a6080" font-size="9">in: 1,247 tok · out: 595 tok · total: 1,842 tok</text>
  <text x="375" y="326" fill="#ff0080" font-size="10">1,688ms</text>
  <rect x="430" y="315" width="80" height="16" rx="3" fill="#00ff88" opacity="0.15"/>
  <text x="470" y="327" fill="#00ff88" font-size="9" text-anchor="middle">stop: EOS</text>

  <!-- Level 1: StrOutputParser -->
  <line x1="30" y1="120" x2="30" y2="363" stroke="#244763" stroke-width="1"/>
  <line x1="30" y1="363" x2="44" y2="363" stroke="#244763" stroke-width="1"/>
  <rect x="44" y="351" width="474" height="28" rx="3" fill="#08131f" stroke="#c8e0f4" stroke-width="0.5"/>
  <rect x="44" y="351" width="3" height="28" fill="#5a8090"/>
  <text x="56" y="367" fill="#c8e0f4" font-size="11">StrOutputParser</text>
  <text x="380" y="367" fill="#5a8090" font-size="10">1ms</text>
  <rect x="430" y="356" width="80" height="16" rx="3" fill="#00ff88" opacity="0.15"/>
  <text x="470" y="368" fill="#00ff88" font-size="9" text-anchor="middle">2,341 chars</text>

  <!-- Right panel: eval + metadata -->
  <rect x="540" y="50" width="250" height="390" rx="4" fill="#0d1b2b" stroke="#244763" stroke-width="1"/>
  <rect x="540" y="50" width="250" height="28" fill="#112338"/>
  <text x="554" y="69" fill="#c8e0f4" font-size="12" font-weight="bold">Eval Scores</text>

  <rect x="552" y="88" width="226" height="60" rx="3" fill="#08131f" stroke="#244763" stroke-width="1"/>
  <text x="562" y="104" fill="#5a8090" font-size="10">FAITHFULNESS</text>
  <rect x="562" y="110" width="150" height="10" rx="2" fill="#244763"/>
  <rect x="562" y="110" width="138" height="10" rx="2" fill="#00ff88"/>
  <text x="718" y="120" fill="#00ff88" font-size="10">0.92</text>
  <text x="562" y="140" fill="#5a8090" font-size="9">Answer grounded in retrieved context</text>

  <rect x="552" y="158" width="226" height="60" rx="3" fill="#08131f" stroke="#244763" stroke-width="1"/>
  <text x="562" y="174" fill="#5a8090" font-size="10">ANSWER RELEVANCE</text>
  <rect x="562" y="180" width="150" height="10" rx="2" fill="#244763"/>
  <rect x="562" y="180" width="130" height="10" rx="2" fill="#00f5ff"/>
  <text x="718" y="190" fill="#00f5ff" font-size="10">0.87</text>
  <text x="562" y="210" fill="#5a8090" font-size="9">Response addresses the query</text>

  <rect x="552" y="228" width="226" height="60" rx="3" fill="#08131f" stroke="#244763" stroke-width="1"/>
  <text x="562" y="244" fill="#5a8090" font-size="10">CONTEXT PRECISION</text>
  <rect x="562" y="250" width="150" height="10" rx="2" fill="#244763"/>
  <rect x="562" y="250" width="120" height="10" rx="2" fill="#9d00ff"/>
  <text x="718" y="260" fill="#9d00ff" font-size="10">0.80</text>
  <text x="562" y="280" fill="#5a8090" font-size="9">Retrieved chunks signal:noise ratio</text>

  <!-- Token usage -->
  <rect x="552" y="298" width="226" height="80" rx="3" fill="#08131f" stroke="#244763" stroke-width="1"/>
  <text x="562" y="314" fill="#5a8090" font-size="10">TOKEN USAGE</text>
  <text x="562" y="333" fill="#c8e0f4" font-size="11">Prompt tokens:</text>
  <text x="730" y="333" fill="#ff0080" font-size="11" text-anchor="end">1,247</text>
  <text x="562" y="350" fill="#c8e0f4" font-size="11">Completion tokens:</text>
  <text x="730" y="350" fill="#ff0080" font-size="11" text-anchor="end">595</text>
  <text x="562" y="367" fill="#c8e0f4" font-size="11">Total tokens:</text>
  <text x="730" y="367" fill="#ff0080" font-size="11" text-anchor="end">1,842</text>
  <text x="562" y="372" fill="#244763" stroke-width="1"/>
  <text x="562" y="384" fill="#5a8090" font-size="9">Est. cost: $0.0055 (gpt-4o pricing)</text>

  <!-- Metadata -->
  <rect x="552" y="388" width="226" height="48" rx="3" fill="#08131f" stroke="#244763" stroke-width="1"/>
  <text x="562" y="404" fill="#5a8090" font-size="9">project: rag-production</text>
  <text x="562" y="418" fill="#5a8090" font-size="9">session: sess_8f3a91</text>
  <text x="562" y="432" fill="#5a8090" font-size="9">user: api-service-account</text>
</svg>
