<svg width="800" height="450" xmlns="http://www.w3.org/2000/svg" font-family="sans-serif">
  <rect width="800" height="450" fill="#08131f"/>
  <rect width="800" height="40" fill="#0d1b2b"/>
  <rect x="0" y="40" width="800" height="1" fill="#244763"/>
  <text x="20" y="26" fill="#00f5ff" font-size="14" font-weight="bold">Design Token Export · NovaCraft</text>
  <text x="580" y="26" fill="#5a8090" font-size="11">Figma · Tailwind · CSS Custom Props</text>

  <!-- Color tokens -->
  <rect x="10" y="50" width="250" height="390" rx="4" fill="#0d1b2b" stroke="#244763" stroke-width="1"/>
  <rect x="10" y="50" width="250" height="28" fill="#112338"/>
  <text x="24" y="69" fill="#c8e0f4" font-size="12" font-weight="bold">Color Tokens</text>

  <!-- Token rows -->
  <rect x="22" y="87" width="226" height="24" rx="2" fill="#08131f"/>
  <rect x="26" y="91" width="16" height="16" rx="2" fill="#0a0f1e" stroke="#244763" stroke-width="1"/>
  <text x="48" y="104" fill="#c8e0f4" font-size="10" font-family="monospace">--color-bg-primary</text>
  <text x="200" y="104" fill="#3a6080" font-size="9">#0a0f1e</text>

  <rect x="22" y="115" width="226" height="24" rx="2" fill="#08131f"/>
  <rect x="26" y="119" width="16" height="16" rx="2" fill="#001824" stroke="#244763" stroke-width="1"/>
  <text x="48" y="132" fill="#c8e0f4" font-size="10" font-family="monospace">--color-bg-surface</text>
  <text x="200" y="132" fill="#3a6080" font-size="9">#001824</text>

  <rect x="22" y="143" width="226" height="24" rx="2" fill="#08131f"/>
  <rect x="26" y="147" width="16" height="16" rx="2" fill="#00d4ff"/>
  <text x="48" y="160" fill="#c8e0f4" font-size="10" font-family="monospace">--color-accent-primary</text>
  <text x="208" y="160" fill="#3a6080" font-size="9">#00d4ff</text>

  <rect x="22" y="171" width="226" height="24" rx="2" fill="#08131f"/>
  <rect x="26" y="175" width="16" height="16" rx="2" fill="#f8faff"/>
  <text x="48" y="188" fill="#c8e0f4" font-size="10" font-family="monospace">--color-text-primary</text>
  <text x="210" y="188" fill="#3a6080" font-size="9">#f8faff</text>

  <rect x="22" y="199" width="226" height="24" rx="2" fill="#08131f"/>
  <rect x="26" y="203" width="16" height="16" rx="2" fill="#6b8faf"/>
  <text x="48" y="216" fill="#c8e0f4" font-size="10" font-family="monospace">--color-text-muted</text>
  <text x="206" y="216" fill="#3a6080" font-size="9">#6b8faf</text>

  <rect x="22" y="227" width="226" height="24" rx="2" fill="#08131f"/>
  <rect x="26" y="231" width="16" height="16" rx="2" fill="#ff4b6e"/>
  <text x="48" y="244" fill="#c8e0f4" font-size="10" font-family="monospace">--color-accent-danger</text>
  <text x="208" y="244" fill="#3a6080" font-size="9">#ff4b6e</text>

  <rect x="22" y="255" width="226" height="24" rx="2" fill="#08131f"/>
  <rect x="26" y="259" width="16" height="16" rx="2" fill="#00e676"/>
  <text x="48" y="272" fill="#c8e0f4" font-size="10" font-family="monospace">--color-accent-success</text>
  <text x="208" y="272" fill="#3a6080" font-size="9">#00e676</text>

  <rect x="22" y="283" width="226" height="24" rx="2" fill="#08131f"/>
  <rect x="26" y="287" width="16" height="16" rx="2" fill="#ffc107"/>
  <text x="48" y="300" fill="#c8e0f4" font-size="10" font-family="monospace">--color-accent-warn</text>
  <text x="200" y="300" fill="#3a6080" font-size="9">#ffc107</text>

  <rect x="22" y="311" width="226" height="24" rx="2" fill="#08131f"/>
  <rect x="26" y="315" width="16" height="16" rx="2" fill="#1a3a5c"/>
  <text x="48" y="328" fill="#c8e0f4" font-size="10" font-family="monospace">--color-border</text>
  <text x="195" y="328" fill="#3a6080" font-size="9">#1a3a5c</text>

  <rect x="22" y="339" width="226" height="24" rx="2" fill="#08131f"/>
  <rect x="26" y="343" width="16" height="16" rx="2" fill="#9d00ff"/>
  <text x="48" y="356" fill="#c8e0f4" font-size="10" font-family="monospace">--color-accent-purple</text>
  <text x="206" y="356" fill="#3a6080" font-size="9">#9d00ff</text>

  <!-- Typography tokens -->
  <rect x="270" y="50" width="260" height="390" rx="4" fill="#0d1b2b" stroke="#244763" stroke-width="1"/>
  <rect x="270" y="50" width="260" height="28" fill="#112338"/>
  <text x="284" y="69" fill="#c8e0f4" font-size="12" font-weight="bold">Typography Scale</text>

  <text x="284" y="96" fill="#5a8090" font-size="9">FONT FAMILIES</text>
  <rect x="284" y="101" width="232" height="38" rx="2" fill="#08131f"/>
  <text x="294" y="116" fill="#c8e0f4" font-size="10" font-family="monospace">--font-display: "Neue Haas"</text>
  <text x="294" y="132" fill="#c8e0f4" font-size="10" font-family="monospace">--font-body: "Inter"</text>

  <text x="284" y="156" fill="#5a8090" font-size="9">TYPE SCALE</text>
  <rect x="284" y="161" width="232" height="200" rx="2" fill="#08131f"/>
  <text x="294" y="179" fill="#c8e0f4" font-size="24" font-weight="bold">Aa</text>
  <text x="330" y="178" fill="#5a8090" font-size="9">5xl · 48px · 1.1 leading</text>
  <text x="294" y="202" fill="#c8e0f4" font-size="18" font-weight="bold">Aa</text>
  <text x="318" y="202" fill="#5a8090" font-size="9">4xl · 36px</text>
  <text x="294" y="222" fill="#c8e0f4" font-size="14" font-weight="bold">Aa</text>
  <text x="314" y="222" fill="#5a8090" font-size="9">2xl · 24px</text>
  <text x="294" y="240" fill="#c8e0f4" font-size="12">Aa</text>
  <text x="310" y="240" fill="#5a8090" font-size="9">lg · 18px</text>
  <text x="294" y="256" fill="#c8e0f4" font-size="11">Aa</text>
  <text x="308" y="256" fill="#5a8090" font-size="9">base · 16px · regular</text>
  <text x="294" y="271" fill="#c8e0f4" font-size="10">Aa</text>
  <text x="306" y="271" fill="#5a8090" font-size="9">sm · 14px</text>
  <text x="294" y="284" fill="#c8e0f4" font-size="9">Aa</text>
  <text x="304" y="284" fill="#5a8090" font-size="9">xs · 12px</text>
  <text x="294" y="297" fill="#3a6080" font-size="8" font-family="monospace">Aa mono · JetBrains Mono</text>
  <text x="294" y="352" fill="#5a8090" font-size="9">LETTER SPACING</text>
  <text x="294" y="366" fill="#c8e0f4" font-size="9" font-family="monospace">tight: -0.05em</text>
  <text x="294" y="380" fill="#c8e0f4" font-size="9" font-family="monospace">normal: 0</text>
  <text x="294" y="394" fill="#c8e0f4" font-size="9" font-family="monospace">wide: 0.1em</text>
  <text x="294" y="408" fill="#c8e0f4" font-size="9" font-family="monospace">caps: 0.15em</text>

  <!-- Spacing tokens -->
  <rect x="540" y="50" width="250" height="390" rx="4" fill="#0d1b2b" stroke="#244763" stroke-width="1"/>
  <rect x="540" y="50" width="250" height="28" fill="#112338"/>
  <text x="554" y="69" fill="#c8e0f4" font-size="12" font-weight="bold">Spacing &amp; Radius Tokens</text>

  <text x="554" y="96" fill="#5a8090" font-size="9">SPACING SCALE (4px base)</text>
  <!-- Spacing bars -->
  <rect x="554" y="101" width="4" height="12" fill="#00d4ff"/>
  <text x="562" y="112" fill="#c8e0f4" font-size="9" font-family="monospace">--space-1: 4px</text>

  <rect x="554" y="119" width="8" height="12" fill="#00d4ff"/>
  <text x="566" y="130" fill="#c8e0f4" font-size="9" font-family="monospace">--space-2: 8px</text>

  <rect x="554" y="137" width="12" height="12" fill="#00d4ff"/>
  <text x="570" y="148" fill="#c8e0f4" font-size="9" font-family="monospace">--space-3: 12px</text>

  <rect x="554" y="155" width="16" height="12" fill="#00d4ff"/>
  <text x="574" y="166" fill="#c8e0f4" font-size="9" font-family="monospace">--space-4: 16px</text>

  <rect x="554" y="173" width="24" height="12" fill="#00d4ff"/>
  <text x="582" y="184" fill="#c8e0f4" font-size="9" font-family="monospace">--space-6: 24px</text>

  <rect x="554" y="191" width="32" height="12" fill="#9d00ff"/>
  <text x="590" y="202" fill="#c8e0f4" font-size="9" font-family="monospace">--space-8: 32px</text>

  <rect x="554" y="209" width="48" height="12" fill="#9d00ff"/>
  <text x="606" y="220" fill="#c8e0f4" font-size="9" font-family="monospace">--space-12: 48px</text>

  <rect x="554" y="227" width="64" height="12" fill="#9d00ff"/>
  <text x="622" y="238" fill="#c8e0f4" font-size="9" font-family="monospace">--space-16: 64px</text>

  <text x="554" y="260" fill="#5a8090" font-size="9">BORDER RADIUS</text>
  <rect x="554" y="265" width="20" height="20" rx="0" fill="none" stroke="#00d4ff" stroke-width="1"/>
  <text x="580" y="279" fill="#3a6080" font-size="9">--radius-none: 0</text>
  <rect x="554" y="292" width="20" height="20" rx="2" fill="none" stroke="#00d4ff" stroke-width="1"/>
  <text x="580" y="306" fill="#3a6080" font-size="9">--radius-sm: 2px</text>
  <rect x="554" y="320" width="20" height="20" rx="4" fill="none" stroke="#9d00ff" stroke-width="1"/>
  <text x="580" y="334" fill="#3a6080" font-size="9">--radius-md: 4px</text>
  <rect x="554" y="348" width="20" height="20" rx="8" fill="none" stroke="#9d00ff" stroke-width="1"/>
  <text x="580" y="362" fill="#3a6080" font-size="9">--radius-lg: 8px</text>
  <rect x="554" y="376" width="20" height="20" rx="10" fill="none" stroke="#9d00ff" stroke-width="1"/>
  <text x="580" y="390" fill="#3a6080" font-size="9">--radius-full: 9999px</text>

  <text x="554" y="418" fill="#5a8090" font-size="9">SHADOW</text>
  <rect x="554" y="423" width="220" height="14" rx="3" fill="#0a1020"/>
  <rect x="556" y="421" width="216" height="12" rx="3" fill="#0d1b2b"/>
  <text x="570" y="432" fill="#3a6080" font-size="8" font-family="monospace">0 4px 20px rgba(0,212,255,0.08)</text>
</svg>
