<svg width="800" height="450" xmlns="http://www.w3.org/2000/svg" font-family="sans-serif">
  <rect width="800" height="450" fill="#08131f"/>
  <rect width="800" height="40" fill="#0d1b2b"/>
  <rect x="0" y="40" width="800" height="1" fill="#244763"/>
  <text x="20" y="26" fill="#00f5ff" font-size="14" font-weight="bold">Generated Hero Visuals · NovaCraft</text>
  <text x="540" y="26" fill="#5a8090" font-size="11">4 variants · Style: Minimal Dark</text>

  <!-- Top-left: Image 1 -->
  <rect x="10" y="50" width="385" height="190" rx="4" fill="#0a0f1e" stroke="#244763" stroke-width="1"/>
  <!-- Gradient fill sim -->
  <rect x="10" y="50" width="385" height="190" rx="4" fill="url(#g1)"/>
  <defs>
    <linearGradient id="g1" x1="0%" y1="0%" x2="100%" y2="100%">
      <stop offset="0%" style="stop-color:#0a0f1e"/>
      <stop offset="60%" style="stop-color:#001824"/>
      <stop offset="100%" style="stop-color:#002244"/>
    </linearGradient>
    <linearGradient id="g2" x1="0%" y1="0%" x2="100%" y2="100%">
      <stop offset="0%" style="stop-color:#1a0030"/>
      <stop offset="100%" style="stop-color:#000a20"/>
    </linearGradient>
    <linearGradient id="g3" x1="0%" y1="100%" x2="100%" y2="0%">
      <stop offset="0%" style="stop-color:#001a10"/>
      <stop offset="100%" style="stop-color:#000820"/>
    </linearGradient>
    <linearGradient id="g4" x1="100%" y1="0%" x2="0%" y2="100%">
      <stop offset="0%" style="stop-color:#1a0a00"/>
      <stop offset="100%" style="stop-color:#000018"/>
    </linearGradient>
  </defs>
  <!-- Abstract shapes V1 -->
  <circle cx="200" cy="135" r="80" fill="none" stroke="#00d4ff" stroke-width="0.5" opacity="0.4"/>
  <circle cx="200" cy="135" r="55" fill="none" stroke="#00d4ff" stroke-width="1" opacity="0.3"/>
  <circle cx="200" cy="135" r="30" fill="#00d4ff" opacity="0.05"/>
  <line x1="10" y1="135" x2="395" y2="135" stroke="#00d4ff" stroke-width="0.5" opacity="0.2"/>
  <line x1="200" y1="50" x2="200" y2="240" stroke="#00d4ff" stroke-width="0.5" opacity="0.2"/>
  <text x="202" y="130" fill="#00d4ff" font-size="18" font-weight="bold">NovaCraft</text>
  <text x="202" y="150" fill="#5a8090" font-size="11" text-anchor="middle">Design That Moves</text>
  <!-- Metadata overlay -->
  <rect x="10" y="214" width="385" height="26" fill="#08131f" opacity="0.9"/>
  <text x="20" y="230" fill="#5a8090" font-size="9">V1 · Layout: Centered · Mood: Minimal · Composition: Radial</text>
  <rect x="340" y="218" width="50" height="16" rx="2" fill="#00ff88" opacity="0.3"/>
  <text x="365" y="230" fill="#00ff88" font-size="8" text-anchor="middle">Selected</text>

  <!-- Top-right: Image 2 -->
  <rect x="405" y="50" width="385" height="190" rx="4" fill="#1a0030" stroke="#244763" stroke-width="1"/>
  <rect x="405" y="50" width="385" height="190" rx="4" fill="url(#g2)"/>
  <!-- Abstract shapes V2 -->
  <polygon points="592,70 660,160 524,160" fill="none" stroke="#9d00ff" stroke-width="1" opacity="0.4"/>
  <polygon points="592,85 645,155 539,155" fill="none" stroke="#9d00ff" stroke-width="0.5" opacity="0.3"/>
  <polygon points="592,100 628,150 556,150" fill="#9d00ff" opacity="0.05"/>
  <rect x="450" y="170" width="280" height="1" fill="#9d00ff" opacity="0.4"/>
  <text x="592" y="190" fill="#c8e0f4" font-size="18" font-weight="bold" text-anchor="middle">NOVA</text>
  <text x="592" y="207" fill="#9d00ff" font-size="10" text-anchor="middle">Creative Intelligence</text>
  <rect x="405" y="214" width="385" height="26" fill="#08131f" opacity="0.9"/>
  <text x="415" y="230" fill="#5a8090" font-size="9">V2 · Layout: Geometric · Mood: Bold · Composition: Triangular</text>

  <!-- Bottom-left: Image 3 -->
  <rect x="10" y="250" width="385" height="190" rx="4" fill="#001a10" stroke="#244763" stroke-width="1"/>
  <rect x="10" y="250" width="385" height="190" rx="4" fill="url(#g3)"/>
  <!-- Abstract shapes V3 -->
  <rect x="80" y="280" width="240" height="100" fill="none" stroke="#00ff88" stroke-width="0.5" opacity="0.3"/>
  <rect x="92" y="292" width="216" height="76" fill="none" stroke="#00ff88" stroke-width="0.5" opacity="0.2"/>
  <line x1="80" y1="280" x2="320" y2="380" stroke="#00ff88" stroke-width="0.5" opacity="0.2"/>
  <line x1="320" y1="280" x2="80" y2="380" stroke="#00ff88" stroke-width="0.5" opacity="0.2"/>
  <text x="200" y="328" fill="#00ff88" font-size="22" font-weight="bold" text-anchor="middle">NC</text>
  <text x="200" y="346" fill="#5a8090" font-size="10" text-anchor="middle">NovaCraft Studio</text>
  <rect x="10" y="414" width="385" height="26" fill="#08131f" opacity="0.9"/>
  <text x="20" y="430" fill="#5a8090" font-size="9">V3 · Layout: Grid · Mood: Structured · Composition: Geometric</text>

  <!-- Bottom-right: Image 4 -->
  <rect x="405" y="250" width="385" height="190" rx="4" fill="#1a0a00" stroke="#244763" stroke-width="1"/>
  <rect x="405" y="250" width="385" height="190" rx="4" fill="url(#g4)"/>
  <!-- Abstract shapes V4 -->
  <circle cx="592" cy="345" r="70" fill="none" stroke="#fb923c" stroke-width="2" opacity="0.2"/>
  <circle cx="592" cy="345" r="45" fill="none" stroke="#fb923c" stroke-width="1" opacity="0.3"/>
  <circle cx="592" cy="345" r="20" fill="#fb923c" opacity="0.1"/>
  <text x="592" y="340" fill="#fb923c" font-size="14" font-weight="bold" text-anchor="middle">NovaCraft</text>
  <text x="592" y="360" fill="#5a8090" font-size="9" text-anchor="middle">Where Ideas Take Shape</text>
  <rect x="405" y="414" width="385" height="26" fill="#08131f" opacity="0.9"/>
  <text x="415" y="430" fill="#5a8090" font-size="9">V4 · Layout: Orbital · Mood: Warm · Composition: Circular</text>
</svg>
