<svg width="800" height="450" xmlns="http://www.w3.org/2000/svg" font-family="sans-serif">
  <rect width="800" height="450" fill="#08131f"/>
  <rect width="800" height="40" fill="#0d1b2b"/>
  <rect x="0" y="40" width="800" height="1" fill="#244763"/>
  <text x="20" y="26" fill="#00f5ff" font-size="14" font-weight="bold">Email RAG · Re-ranked Results</text>
  <text x="560" y="26" fill="#5a8090" font-size="11">Query: "invoice payment terms Q1 2025"</text>

  <!-- Top metrics bar -->
  <rect x="10" y="50" width="780" height="36" rx="3" fill="#0d1b2b" stroke="#244763" stroke-width="1"/>
  <text x="24" y="65" fill="#5a8090" font-size="9">LATENCY p50</text>
  <text x="24" y="80" fill="#00ff88" font-size="14" font-weight="bold">98ms</text>
  <rect x="124" y="55" width="1" height="24" fill="#244763"/>
  <text x="134" y="65" fill="#5a8090" font-size="9">LATENCY p95</text>
  <text x="134" y="80" fill="#00f5ff" font-size="14" font-weight="bold">142ms</text>
  <rect x="234" y="55" width="1" height="24" fill="#244763"/>
  <text x="244" y="65" fill="#5a8090" font-size="9">LATENCY p99</text>
  <text x="244" y="80" fill="#ffe000" font-size="14" font-weight="bold">218ms</text>
  <rect x="344" y="55" width="1" height="24" fill="#244763"/>
  <text x="354" y="65" fill="#5a8090" font-size="9">RESULTS SHOWN</text>
  <text x="354" y="80" fill="#c8e0f4" font-size="14" font-weight="bold">10 / 4.88M</text>
  <rect x="494" y="55" width="1" height="24" fill="#244763"/>
  <text x="504" y="65" fill="#5a8090" font-size="9">RERANKER</text>
  <text x="504" y="80" fill="#9d00ff" font-size="11">cross-encoder-ms-marco-v2</text>
  <rect x="694" y="55" width="1" height="24" fill="#244763"/>
  <text x="704" y="65" fill="#5a8090" font-size="9">TOTAL TIME</text>
  <text x="704" y="80" fill="#00ff88" font-size="12" font-weight="bold">157ms</text>

  <!-- Results table header -->
  <rect x="10" y="92" width="780" height="24" fill="#112338"/>
  <text x="24" y="108" fill="#5a8090" font-size="10" font-weight="bold">#</text>
  <text x="46" y="108" fill="#5a8090" font-size="10" font-weight="bold">EMAIL RESULT</text>
  <text x="440" y="108" fill="#5a8090" font-size="10" font-weight="bold">TYPE</text>
  <text x="506" y="108" fill="#9d00ff" font-size="10" font-weight="bold">Rerank Score</text>
  <text x="620" y="108" fill="#5a8090" font-size="10" font-weight="bold">Date</text>
  <text x="700" y="108" fill="#5a8090" font-size="10" font-weight="bold">From</text>

  <!-- Result 1 -->
  <rect x="10" y="116" width="780" height="40" fill="#0d1b2b"/>
  <rect x="10" y="116" width="3" height="40" fill="#00ff88"/>
  <text x="22" y="131" fill="#00ff88" font-size="10" font-weight="bold">1</text>
  <text x="46" y="129" fill="#c8e0f4" font-size="10" font-weight="bold">Invoice INV-2025-0341: Q1 Payment Terms Renewal</text>
  <text x="46" y="144" fill="#5a8090" font-size="10">"...auto-process on March 31st unless cancelled 30 days prior. Payment terms remain Net-30..."</text>
  <rect x="440" y="122" width="30" height="14" rx="2" fill="#ff0080" opacity="0.4"/>
  <text x="455" y="133" fill="#c8e0f4" font-size="8" text-anchor="middle">PDF</text>
  <rect x="506" y="120" width="100" height="12" rx="2" fill="#244763"/>
  <rect x="506" y="120" width="96" height="12" rx="2" fill="#00ff88"/>
  <text x="610" y="130" fill="#00ff88" font-size="9">0.96</text>
  <text x="620" y="132" fill="#3a6080" font-size="9">Feb 14</text>
  <text x="700" y="132" fill="#5a8090" font-size="9">billing@</text>
  <rect x="10" y="156" width="780" height="1" fill="#244763"/>

  <!-- Result 2 -->
  <rect x="10" y="157" width="780" height="40" fill="#08131f"/>
  <rect x="10" y="157" width="3" height="40" fill="#00f5ff"/>
  <text x="22" y="172" fill="#00f5ff" font-size="10" font-weight="bold">2</text>
  <text x="46" y="170" fill="#c8e0f4" font-size="10" font-weight="bold">RE: Q1 Contract Renewal Terms — Updated Schedule</text>
  <text x="46" y="185" fill="#5a8090" font-size="10">"...payment schedule attached. Contract renewal discussion from last quarter should take..."</text>
  <rect x="440" y="163" width="36" height="14" rx="2" fill="#00f5ff" opacity="0.4"/>
  <text x="458" y="174" fill="#c8e0f4" font-size="8" text-anchor="middle">DOCX</text>
  <rect x="506" y="161" width="100" height="12" rx="2" fill="#244763"/>
  <rect x="506" y="161" width="88" height="12" rx="2" fill="#00ff88" opacity="0.8"/>
  <text x="598" y="171" fill="#00ff88" font-size="9">0.88</text>
  <text x="620" y="173" fill="#3a6080" font-size="9">Jan 22</text>
  <text x="700" y="173" fill="#5a8090" font-size="9">contracts@</text>
  <rect x="10" y="197" width="780" height="1" fill="#244763"/>

  <!-- Result 3 -->
  <rect x="10" y="198" width="780" height="40" fill="#0d1b2b"/>
  <rect x="10" y="198" width="3" height="40" fill="#9d00ff"/>
  <text x="22" y="213" fill="#9d00ff" font-size="10" font-weight="bold">3</text>
  <text x="46" y="211" fill="#c8e0f4" font-size="10" font-weight="bold">MSA Amendment 2025 — Section 4.2 Payment Terms</text>
  <text x="46" y="226" fill="#5a8090" font-size="10">"...quarterly payment structure outlined. Invoice payment due within 30 days; late fees 1.5%..."</text>
  <rect x="440" y="204" width="30" height="14" rx="2" fill="#ff0080" opacity="0.4"/>
  <text x="455" y="215" fill="#c8e0f4" font-size="8" text-anchor="middle">PDF</text>
  <rect x="506" y="202" width="100" height="12" rx="2" fill="#244763"/>
  <rect x="506" y="202" width="79" height="12" rx="2" fill="#9d00ff"/>
  <text x="588" y="212" fill="#9d00ff" font-size="9">0.79</text>
  <text x="620" y="214" fill="#3a6080" font-size="9">Jan 8</text>
  <text x="700" y="214" fill="#5a8090" font-size="9">legal@</text>
  <rect x="10" y="238" width="780" height="1" fill="#244763"/>

  <!-- Result 4 -->
  <rect x="10" y="239" width="780" height="40" fill="#08131f"/>
  <rect x="10" y="239" width="3" height="40" fill="#ffe000"/>
  <text x="22" y="254" fill="#ffe000" font-size="10" font-weight="bold">4</text>
  <text x="46" y="252" fill="#c8e0f4" font-size="10" font-weight="bold">Invoice Dispute INV-2025-0298 — Payment Terms Clarification</text>
  <text x="46" y="267" fill="#5a8090" font-size="10">"...60-day payment terms not standard. We require Net-30 as stated in original agreement..."</text>
  <text x="440" y="258" fill="#3a6080" font-size="9">email</text>
  <rect x="506" y="243" width="100" height="12" rx="2" fill="#244763"/>
  <rect x="506" y="243" width="68" height="12" rx="2" fill="#ffe000"/>
  <text x="578" y="253" fill="#ffe000" font-size="9">0.68</text>
  <text x="620" y="255" fill="#3a6080" font-size="9">Feb 1</text>
  <text x="700" y="255" fill="#5a8090" font-size="9">finance@</text>
  <rect x="10" y="279" width="780" height="1" fill="#244763"/>

  <!-- Result 5 -->
  <rect x="10" y="280" width="780" height="40" fill="#0d1b2b"/>
  <rect x="10" y="280" width="3" height="40" fill="#fb923c"/>
  <text x="22" y="295" fill="#fb923c" font-size="10" font-weight="bold">5</text>
  <text x="46" y="293" fill="#c8e0f4" font-size="10" font-weight="bold">Q1 Financials &amp; Renewals Prep — Coordination Note</text>
  <text x="46" y="308" fill="#5a8090" font-size="10">"...payment processing team will coordinate renewal invoices by March 15th. Confirm if..."</text>
  <rect x="440" y="286" width="44" height="14" rx="2" fill="#ffe000" opacity="0.4"/>
  <text x="462" y="297" fill="#c8e0f4" font-size="8" text-anchor="middle">XLSX</text>
  <rect x="506" y="284" width="100" height="12" rx="2" fill="#244763"/>
  <rect x="506" y="284" width="57" height="12" rx="2" fill="#fb923c"/>
  <text x="566" y="294" fill="#fb923c" font-size="9">0.57</text>
  <text x="620" y="296" fill="#3a6080" font-size="9">Mar 10</text>
  <text x="700" y="296" fill="#5a8090" font-size="9">ops@</text>
  <rect x="10" y="320" width="780" height="1" fill="#244763"/>

  <!-- Results 6-10 (compact) -->
  <rect x="10" y="321" width="780" height="20" fill="#08131f"/>
  <rect x="10" y="321" width="3" height="20" fill="#3a6080"/>
  <text x="22" y="334" fill="#5a8090" font-size="9">6</text>
  <text x="46" y="334" fill="#5a8090" font-size="9">Vendor Payment Schedule Update — DOCX · 0.52</text>
  <rect x="10" y="341" width="780" height="20" fill="#0d1b2b"/>
  <rect x="10" y="341" width="3" height="20" fill="#3a6080"/>
  <text x="22" y="354" fill="#5a8090" font-size="9">7</text>
  <text x="46" y="354" fill="#5a8090" font-size="9">Annual Contract Overview 2025 — PDF · 0.48</text>
  <rect x="10" y="361" width="780" height="20" fill="#08131f"/>
  <rect x="10" y="361" width="3" height="20" fill="#3a6080"/>
  <text x="22" y="374" fill="#5a8090" font-size="9">8</text>
  <text x="46" y="374" fill="#5a8090" font-size="9">Finance Team: Invoice Queue Status — email · 0.44</text>
  <rect x="10" y="381" width="780" height="20" fill="#0d1b2b"/>
  <rect x="10" y="381" width="3" height="20" fill="#244763"/>
  <text x="22" y="394" fill="#3a6080" font-size="9">9</text>
  <text x="46" y="394" fill="#3a6080" font-size="9">Procurement Guidelines FY2025 — PDF · 0.38</text>
  <rect x="10" y="401" width="780" height="20" fill="#08131f"/>
  <rect x="10" y="401" width="3" height="20" fill="#244763"/>
  <text x="22" y="414" fill="#3a6080" font-size="9">10</text>
  <text x="46" y="414" fill="#3a6080" font-size="9">Payment Gateway Config Notes — DOCX · 0.31</text>

  <!-- Bottom bar -->
  <rect x="10" y="422" width="780" height="22" rx="2" fill="#112338"/>
  <text x="24" y="437" fill="#3a6080" font-size="9">Attach types in results: PDF × 3  DOCX × 3  XLSX × 1  email × 3  ·  Re-ranked using cross-encoder · All results timestamped · Thread-aware dedup applied</text>
</svg>
