<svg width="800" height="450" xmlns="http://www.w3.org/2000/svg" font-family="sans-serif">
  <rect width="800" height="450" fill="#08131f"/>
  <rect width="800" height="40" fill="#0d1b2b"/>
  <rect x="0" y="40" width="800" height="1" fill="#244763"/>
  <text x="20" y="26" fill="#00f5ff" font-size="14" font-weight="bold">Email RAG · Hybrid Search</text>
  <text x="580" y="26" fill="#5a8090" font-size="11">BM25 ⊕ Dense → RRF Fusion</text>

  <!-- Search bar -->
  <rect x="10" y="50" width="780" height="44" rx="4" fill="#0d1b2b" stroke="#244763" stroke-width="1"/>
  <text x="24" y="77" fill="#3a6080" font-size="12">🔍</text>
  <text x="44" y="77" fill="#c8e0f4" font-size="13">invoice payment terms renewal contract quarterly Q1 2025</text>
  <rect x="700" y="58" width="82" height="28" rx="3" fill="#00f5ff"/>
  <text x="741" y="76" fill="#08131f" font-size="12" font-weight="bold" text-anchor="middle">Search</text>

  <!-- Settings row -->
  <rect x="10" y="99" width="780" height="28" fill="#112338"/>
  <text x="24" y="117" fill="#5a8090" font-size="10">Corpus: work_emails_2025</text>
  <text x="200" y="117" fill="#5a8090" font-size="10">|</text>
  <text x="212" y="117" fill="#5a8090" font-size="10">Top-k: 10</text>
  <text x="280" y="117" fill="#5a8090" font-size="10">|</text>
  <text x="292" y="117" fill="#5a8090" font-size="10">BM25 weight: 0.4  Dense weight: 0.6</text>
  <text x="510" y="117" fill="#5a8090" font-size="10">|</text>
  <text x="522" y="117" fill="#5a8090" font-size="10">Reranker: cross-encoder</text>
  <text x="690" y="117" fill="#00f5ff" font-size="10">RRF k=60</text>

  <!-- Column headers -->
  <rect x="10" y="127" width="780" height="24" fill="#112338"/>
  <text x="24" y="143" fill="#5a8090" font-size="10" font-weight="bold">#</text>
  <text x="46" y="143" fill="#5a8090" font-size="10" font-weight="bold">EMAIL CHUNK PREVIEW</text>
  <text x="430" y="143" fill="#00f5ff" font-size="10" font-weight="bold">BM25</text>
  <text x="510" y="143" fill="#ff0080" font-size="10" font-weight="bold">Dense</text>
  <rect x="590" y="131" width="100" height="16" rx="3" fill="#00ff88" opacity="0.2" stroke="#00ff88" stroke-width="1"/>
  <text x="640" y="143" fill="#00ff88" font-size="10" font-weight="bold" text-anchor="middle">RRF Fused</text>
  <text x="710" y="143" fill="#5a8090" font-size="10" font-weight="bold">From</text>

  <rect x="10" y="151" width="780" height="1" fill="#244763"/>

  <!-- Result row 1 -->
  <rect x="10" y="152" width="780" height="44" fill="#0d1b2b"/>
  <rect x="10" y="152" width="3" height="44" fill="#00ff88"/>
  <text x="22" y="170" fill="#00ff88" font-size="11" font-weight="bold">1</text>
  <text x="46" y="167" fill="#c8e0f4" font-size="10">"Per our agreed terms, the Q1 2025 invoice renewal will auto-process on March 31st unless</text>
  <text x="46" y="181" fill="#5a8090" font-size="10">cancelled 30 days prior. Payment terms remain Net-30 with a 2% early settlement..."</text>
  <text x="46" y="192" fill="#3a6080" font-size="9">billing@vendor.com · 2025-02-14 · Subject: Invoice INV-2025-0341</text>
  <rect x="424" y="160" width="70" height="10" rx="2" fill="#244763"/>
  <rect x="424" y="160" width="62" height="10" rx="2" fill="#00f5ff"/>
  <text x="498" y="170" fill="#00f5ff" font-size="9">0.89</text>
  <rect x="504" y="160" width="70" height="10" rx="2" fill="#244763"/>
  <rect x="504" y="160" width="66" height="10" rx="2" fill="#ff0080"/>
  <text x="578" y="170" fill="#ff0080" font-size="9">0.94</text>
  <rect x="590" y="158" width="100" height="14" rx="3" fill="#00ff88" opacity="0.25"/>
  <text x="640" y="169" fill="#00ff88" font-size="11" font-weight="bold" text-anchor="middle">0.97</text>
  <text x="710" y="170" fill="#5a8090" font-size="9">billing@</text>
  <rect x="10" y="196" width="780" height="1" fill="#244763"/>

  <!-- Row 2 -->
  <rect x="10" y="197" width="780" height="44" fill="#08131f"/>
  <rect x="10" y="197" width="3" height="44" fill="#00f5ff"/>
  <text x="22" y="215" fill="#00f5ff" font-size="11" font-weight="bold">2</text>
  <text x="46" y="212" fill="#c8e0f4" font-size="10">"Please find attached the updated payment schedule. The contract renewal discussion we had</text>
  <text x="46" y="226" fill="#5a8090" font-size="10">last quarter should take precedence. We expect the invoice to reflect these new terms..."</text>
  <text x="46" y="237" fill="#3a6080" font-size="9">contracts@acme.com · 2025-01-22 · Subject: RE: Q1 Contract Renewal Terms</text>
  <rect x="424" y="205" width="70" height="10" rx="2" fill="#244763"/>
  <rect x="424" y="205" width="56" height="10" rx="2" fill="#00f5ff"/>
  <text x="498" y="215" fill="#00f5ff" font-size="9">0.80</text>
  <rect x="504" y="205" width="70" height="10" rx="2" fill="#244763"/>
  <rect x="504" y="205" width="60" height="10" rx="2" fill="#ff0080"/>
  <text x="578" y="215" fill="#ff0080" font-size="9">0.86</text>
  <rect x="590" y="203" width="100" height="14" rx="3" fill="#00ff88" opacity="0.15"/>
  <text x="640" y="214" fill="#00ff88" font-size="10" text-anchor="middle">0.88</text>
  <text x="710" y="215" fill="#5a8090" font-size="9">contracts@</text>
  <rect x="10" y="241" width="780" height="1" fill="#244763"/>

  <!-- Row 3 -->
  <rect x="10" y="242" width="780" height="44" fill="#0d1b2b"/>
  <rect x="10" y="242" width="3" height="44" fill="#9d00ff"/>
  <text x="22" y="260" fill="#9d00ff" font-size="11" font-weight="bold">3</text>
  <text x="46" y="257" fill="#c8e0f4" font-size="10">"The quarterly payment structure was outlined in Section 4.2 of the master services agreement.</text>
  <text x="46" y="271" fill="#5a8090" font-size="10">Invoice payment is due within 30 days; late fees apply at 1.5% per month..."</text>
  <text x="46" y="282" fill="#3a6080" font-size="9">legal@partner.com · 2025-01-08 · Subject: MSA Amendment 2025</text>
  <rect x="424" y="250" width="70" height="10" rx="2" fill="#244763"/>
  <rect x="424" y="250" width="49" height="10" rx="2" fill="#00f5ff"/>
  <text x="498" y="260" fill="#00f5ff" font-size="9">0.70</text>
  <rect x="504" y="250" width="70" height="10" rx="2" fill="#244763"/>
  <rect x="504" y="250" width="53" height="10" rx="2" fill="#ff0080"/>
  <text x="578" y="260" fill="#ff0080" font-size="9">0.76</text>
  <rect x="590" y="248" width="100" height="14" rx="3" fill="#9d00ff" opacity="0.2"/>
  <text x="640" y="259" fill="#9d00ff" font-size="10" text-anchor="middle">0.79</text>
  <text x="710" y="260" fill="#5a8090" font-size="9">legal@</text>
  <rect x="10" y="286" width="780" height="1" fill="#244763"/>

  <!-- Row 4 -->
  <rect x="10" y="287" width="780" height="44" fill="#08131f"/>
  <rect x="10" y="287" width="3" height="44" fill="#ffe000"/>
  <text x="22" y="305" fill="#ffe000" font-size="11" font-weight="bold">4</text>
  <text x="46" y="302" fill="#c8e0f4" font-size="10">"Confirming receipt of your invoice. The 60-day payment terms you mentioned are not standard</text>
  <text x="46" y="316" fill="#5a8090" font-size="10">for our contracts. We require Net-30 as stated in the original agreement from Q3 2024..."</text>
  <text x="46" y="327" fill="#3a6080" font-size="9">finance@company.com · 2025-02-01 · Subject: Invoice Dispute INV-2025-0298</text>
  <rect x="424" y="295" width="70" height="10" rx="2" fill="#244763"/>
  <rect x="424" y="295" width="42" height="10" rx="2" fill="#00f5ff"/>
  <text x="498" y="305" fill="#00f5ff" font-size="9">0.60</text>
  <rect x="504" y="295" width="70" height="10" rx="2" fill="#244763"/>
  <rect x="504" y="295" width="47" height="10" rx="2" fill="#ff0080"/>
  <text x="578" y="305" fill="#ff0080" font-size="9">0.67</text>
  <rect x="590" y="293" width="100" height="14" rx="3" fill="#ffe000" opacity="0.1"/>
  <text x="640" y="304" fill="#ffe000" font-size="10" text-anchor="middle">0.68</text>
  <text x="710" y="305" fill="#5a8090" font-size="9">finance@</text>
  <rect x="10" y="331" width="780" height="1" fill="#244763"/>

  <!-- Row 5 -->
  <rect x="10" y="332" width="780" height="44" fill="#0d1b2b"/>
  <rect x="10" y="332" width="3" height="44" fill="#3a6080"/>
  <text x="22" y="350" fill="#5a8090" font-size="11" font-weight="bold">5</text>
  <text x="46" y="347" fill="#c8e0f4" font-size="10">"Attached are the quarterly financials for review. The payment processing team will coordinate</text>
  <text x="46" y="361" fill="#5a8090" font-size="10">the renewal invoices by March 15th. Please confirm if the current contract terms still apply..."</text>
  <text x="46" y="372" fill="#3a6080" font-size="9">ops@internal.com · 2025-03-10 · Subject: Q1 Financials &amp; Renewals Prep</text>
  <rect x="424" y="340" width="70" height="10" rx="2" fill="#244763"/>
  <rect x="424" y="340" width="35" height="10" rx="2" fill="#00f5ff"/>
  <text x="498" y="350" fill="#00f5ff" font-size="9">0.50</text>
  <rect x="504" y="340" width="70" height="10" rx="2" fill="#244763"/>
  <rect x="504" y="340" width="38" height="10" rx="2" fill="#ff0080"/>
  <text x="578" y="350" fill="#ff0080" font-size="9">0.55</text>
  <rect x="590" y="338" width="100" height="14" rx="3" fill="#3a6080" opacity="0.2"/>
  <text x="640" y="349" fill="#5a8090" font-size="10" text-anchor="middle">0.57</text>
  <text x="710" y="350" fill="#5a8090" font-size="9">ops@</text>

  <!-- Footer stats -->
  <rect x="10" y="385" width="780" height="55" rx="3" fill="#112338"/>
  <text x="24" y="403" fill="#5a8090" font-size="10">SEARCH METRICS</text>
  <text x="24" y="420" fill="#3a6080" font-size="10">Corpus: 4.88M chunks</text>
  <text x="175" y="420" fill="#3a6080" font-size="10">|  BM25: 34ms</text>
  <text x="290" y="420" fill="#3a6080" font-size="10">|  Dense: 58ms</text>
  <text x="400" y="420" fill="#3a6080" font-size="10">|  RRF merge: 4ms</text>
  <text x="520" y="420" fill="#3a6080" font-size="10">|  Rerank: 61ms</text>
  <text x="640" y="420" fill="#00ff88" font-size="10" font-weight="bold">Total: 157ms</text>
  <text x="24" y="434" fill="#3a6080" font-size="10">Embed query: 12ms  ·  Retrieved: 5 of 10 shown  ·  Model: text-embedding-3-large  ·  Reranker: cross-encoder-ms-marco-v2</text>
</svg>
