<svg xmlns="http://www.w3.org/2000/svg" width="900" height="500" viewBox="0 0 900 500">
  <defs>
    <filter id="glow-cyan" x="-50%" y="-50%" width="200%" height="200%">
      <feGaussianBlur stdDeviation="3" result="blur"/>
      <feMerge><feMergeNode in="blur"/><feMergeNode in="blur"/><feMergeNode in="SourceGraphic"/></feMerge>
    </filter>
    <filter id="glow-pink" x="-50%" y="-50%" width="200%" height="200%">
      <feGaussianBlur stdDeviation="4" result="blur"/>
      <feMerge><feMergeNode in="blur"/><feMergeNode in="blur"/><feMergeNode in="SourceGraphic"/></feMerge>
    </filter>
    <filter id="glow-green" x="-50%" y="-50%" width="200%" height="200%">
      <feGaussianBlur stdDeviation="3" result="blur"/>
      <feMerge><feMergeNode in="blur"/><feMergeNode in="blur"/><feMergeNode in="SourceGraphic"/></feMerge>
    </filter>
    <filter id="glow-soft" x="-100%" y="-100%" width="300%" height="300%">
      <feGaussianBlur stdDeviation="9" result="blur"/>
      <feMerge><feMergeNode in="blur"/><feMergeNode in="SourceGraphic"/></feMerge>
    </filter>
    <filter id="glow-ring" x="-50%" y="-50%" width="200%" height="200%">
      <feGaussianBlur stdDeviation="6" result="blur"/>
      <feMerge><feMergeNode in="blur"/><feMergeNode in="blur"/><feMergeNode in="SourceGraphic"/></feMerge>
    </filter>
    <filter id="glow-beam" x="-100%" y="-100%" width="300%" height="300%">
      <feGaussianBlur stdDeviation="5" result="blur"/>
      <feMerge><feMergeNode in="blur"/><feMergeNode in="blur"/><feMergeNode in="SourceGraphic"/></feMerge>
    </filter>
    <radialGradient id="bg-radial" cx="50%" cy="50%" r="60%">
      <stop offset="0%" stop-color="#060f1a"/>
      <stop offset="100%" stop-color="#040a12"/>
    </radialGradient>
    <radialGradient id="ring-glow" cx="50%" cy="50%" r="50%">
      <stop offset="0%" stop-color="#00e5ff" stop-opacity="0.08"/>
      <stop offset="60%" stop-color="#00e5ff" stop-opacity="0.03"/>
      <stop offset="100%" stop-color="#00e5ff" stop-opacity="0"/>
    </radialGradient>
    <radialGradient id="center-glow" cx="50%" cy="50%" r="50%">
      <stop offset="0%" stop-color="#00e5ff" stop-opacity="0.18"/>
      <stop offset="40%" stop-color="#00e5ff" stop-opacity="0.05"/>
      <stop offset="100%" stop-color="#00e5ff" stop-opacity="0"/>
    </radialGradient>
    <linearGradient id="query-beam" x1="0%" y1="0%" x2="100%" y2="0%">
      <stop offset="0%" stop-color="#00e5ff" stop-opacity="0.7"/>
      <stop offset="100%" stop-color="#00e5ff" stop-opacity="0.1"/>
    </linearGradient>
    <linearGradient id="citation-cyan" x1="0%" y1="0%" x2="100%" y2="0%">
      <stop offset="0%" stop-color="#00e5ff" stop-opacity="0.12"/>
      <stop offset="100%" stop-color="#00e5ff" stop-opacity="0.03"/>
    </linearGradient>
    <linearGradient id="citation-pink" x1="0%" y1="0%" x2="100%" y2="0%">
      <stop offset="0%" stop-color="#ff0055" stop-opacity="0.12"/>
      <stop offset="100%" stop-color="#ff0055" stop-opacity="0.03"/>
    </linearGradient>
    <linearGradient id="citation-purple" x1="0%" y1="0%" x2="100%" y2="0%">
      <stop offset="0%" stop-color="#8855ff" stop-opacity="0.12"/>
      <stop offset="100%" stop-color="#8855ff" stop-opacity="0.03"/>
    </linearGradient>
  </defs>

  <!-- Background -->
  <rect width="900" height="500" fill="url(#bg-radial)"/>

  <!-- Dot grid pattern -->
  <g opacity="0.05" fill="#00e5ff">
    <circle cx="25" cy="25" r="1"/><circle cx="50" cy="25" r="1"/><circle cx="75" cy="25" r="1"/><circle cx="100" cy="25" r="1"/>
    <circle cx="125" cy="25" r="1"/><circle cx="150" cy="25" r="1"/><circle cx="175" cy="25" r="1"/><circle cx="200" cy="25" r="1"/>
    <circle cx="225" cy="25" r="1"/><circle cx="250" cy="25" r="1"/><circle cx="275" cy="25" r="1"/><circle cx="300" cy="25" r="1"/>
    <circle cx="325" cy="25" r="1"/><circle cx="350" cy="25" r="1"/><circle cx="375" cy="25" r="1"/><circle cx="400" cy="25" r="1"/>
    <circle cx="425" cy="25" r="1"/><circle cx="450" cy="25" r="1"/><circle cx="475" cy="25" r="1"/><circle cx="500" cy="25" r="1"/>
    <circle cx="525" cy="25" r="1"/><circle cx="550" cy="25" r="1"/><circle cx="575" cy="25" r="1"/><circle cx="600" cy="25" r="1"/>
    <circle cx="625" cy="25" r="1"/><circle cx="650" cy="25" r="1"/><circle cx="675" cy="25" r="1"/><circle cx="700" cy="25" r="1"/>
    <circle cx="725" cy="25" r="1"/><circle cx="750" cy="25" r="1"/><circle cx="775" cy="25" r="1"/><circle cx="800" cy="25" r="1"/>
    <circle cx="825" cy="25" r="1"/><circle cx="850" cy="25" r="1"/><circle cx="875" cy="25" r="1"/>
    <circle cx="25" cy="50" r="1"/><circle cx="50" cy="50" r="1"/><circle cx="75" cy="50" r="1"/><circle cx="100" cy="50" r="1"/>
    <circle cx="125" cy="50" r="1"/><circle cx="150" cy="50" r="1"/><circle cx="175" cy="50" r="1"/><circle cx="200" cy="50" r="1"/>
    <circle cx="225" cy="50" r="1"/><circle cx="250" cy="50" r="1"/><circle cx="275" cy="50" r="1"/><circle cx="300" cy="50" r="1"/>
    <circle cx="325" cy="50" r="1"/><circle cx="350" cy="50" r="1"/><circle cx="375" cy="50" r="1"/><circle cx="400" cy="50" r="1"/>
    <circle cx="425" cy="50" r="1"/><circle cx="450" cy="50" r="1"/><circle cx="475" cy="50" r="1"/><circle cx="500" cy="50" r="1"/>
    <circle cx="525" cy="50" r="1"/><circle cx="550" cy="50" r="1"/><circle cx="575" cy="50" r="1"/><circle cx="600" cy="50" r="1"/>
    <circle cx="625" cy="50" r="1"/><circle cx="650" cy="50" r="1"/><circle cx="675" cy="50" r="1"/><circle cx="700" cy="50" r="1"/>
    <circle cx="725" cy="50" r="1"/><circle cx="750" cy="50" r="1"/><circle cx="775" cy="50" r="1"/><circle cx="800" cy="50" r="1"/>
    <circle cx="825" cy="50" r="1"/><circle cx="850" cy="50" r="1"/><circle cx="875" cy="50" r="1"/>
    <circle cx="25" cy="75" r="1"/><circle cx="50" cy="75" r="1"/><circle cx="75" cy="75" r="1"/><circle cx="100" cy="75" r="1"/>
    <circle cx="125" cy="75" r="1"/><circle cx="150" cy="75" r="1"/><circle cx="175" cy="75" r="1"/><circle cx="200" cy="75" r="1"/>
    <circle cx="225" cy="75" r="1"/><circle cx="250" cy="75" r="1"/><circle cx="275" cy="75" r="1"/><circle cx="300" cy="75" r="1"/>
    <circle cx="325" cy="75" r="1"/><circle cx="350" cy="75" r="1"/><circle cx="375" cy="75" r="1"/><circle cx="400" cy="75" r="1"/>
    <circle cx="425" cy="75" r="1"/><circle cx="450" cy="75" r="1"/><circle cx="475" cy="75" r="1"/><circle cx="500" cy="75" r="1"/>
    <circle cx="525" cy="75" r="1"/><circle cx="550" cy="75" r="1"/><circle cx="575" cy="75" r="1"/><circle cx="600" cy="75" r="1"/>
    <circle cx="625" cy="75" r="1"/><circle cx="650" cy="75" r="1"/><circle cx="675" cy="75" r="1"/><circle cx="700" cy="75" r="1"/>
    <circle cx="725" cy="75" r="1"/><circle cx="750" cy="75" r="1"/><circle cx="775" cy="75" r="1"/><circle cx="800" cy="75" r="1"/>
    <circle cx="825" cy="75" r="1"/><circle cx="850" cy="75" r="1"/><circle cx="875" cy="75" r="1"/>
    <circle cx="25" cy="100" r="1"/><circle cx="50" cy="100" r="1"/><circle cx="75" cy="100" r="1"/><circle cx="100" cy="100" r="1"/>
    <circle cx="125" cy="100" r="1"/><circle cx="150" cy="100" r="1"/><circle cx="175" cy="100" r="1"/><circle cx="200" cy="100" r="1"/>
    <circle cx="225" cy="100" r="1"/><circle cx="250" cy="100" r="1"/><circle cx="275" cy="100" r="1"/><circle cx="300" cy="100" r="1"/>
    <circle cx="325" cy="100" r="1"/><circle cx="350" cy="100" r="1"/><circle cx="375" cy="100" r="1"/><circle cx="400" cy="100" r="1"/>
    <circle cx="425" cy="100" r="1"/><circle cx="450" cy="100" r="1"/><circle cx="475" cy="100" r="1"/><circle cx="500" cy="100" r="1"/>
    <circle cx="525" cy="100" r="1"/><circle cx="550" cy="100" r="1"/><circle cx="575" cy="100" r="1"/><circle cx="600" cy="100" r="1"/>
    <circle cx="625" cy="100" r="1"/><circle cx="650" cy="100" r="1"/><circle cx="675" cy="100" r="1"/><circle cx="700" cy="100" r="1"/>
    <circle cx="725" cy="100" r="1"/><circle cx="750" cy="100" r="1"/><circle cx="775" cy="100" r="1"/><circle cx="800" cy="100" r="1"/>
    <circle cx="825" cy="100" r="1"/><circle cx="850" cy="100" r="1"/><circle cx="875" cy="100" r="1"/>
    <circle cx="25" cy="125" r="1"/><circle cx="50" cy="125" r="1"/><circle cx="75" cy="125" r="1"/><circle cx="100" cy="125" r="1"/>
    <circle cx="125" cy="125" r="1"/><circle cx="150" cy="125" r="1"/><circle cx="175" cy="125" r="1"/><circle cx="200" cy="125" r="1"/>
    <circle cx="225" cy="125" r="1"/><circle cx="250" cy="125" r="1"/><circle cx="275" cy="125" r="1"/><circle cx="300" cy="125" r="1"/>
    <circle cx="325" cy="125" r="1"/><circle cx="350" cy="125" r="1"/><circle cx="375" cy="125" r="1"/><circle cx="400" cy="125" r="1"/>
    <circle cx="425" cy="125" r="1"/><circle cx="450" cy="125" r="1"/><circle cx="475" cy="125" r="1"/><circle cx="500" cy="125" r="1"/>
    <circle cx="525" cy="125" r="1"/><circle cx="550" cy="125" r="1"/><circle cx="575" cy="125" r="1"/><circle cx="600" cy="125" r="1"/>
    <circle cx="625" cy="125" r="1"/><circle cx="650" cy="125" r="1"/><circle cx="675" cy="125" r="1"/><circle cx="700" cy="125" r="1"/>
    <circle cx="725" cy="125" r="1"/><circle cx="750" cy="125" r="1"/><circle cx="775" cy="125" r="1"/><circle cx="800" cy="125" r="1"/>
    <circle cx="825" cy="125" r="1"/><circle cx="850" cy="125" r="1"/><circle cx="875" cy="125" r="1"/>
    <circle cx="25" cy="150" r="1"/><circle cx="75" cy="150" r="1"/><circle cx="125" cy="150" r="1"/><circle cx="175" cy="150" r="1"/>
    <circle cx="225" cy="150" r="1"/><circle cx="275" cy="150" r="1"/><circle cx="325" cy="150" r="1"/><circle cx="375" cy="150" r="1"/>
    <circle cx="425" cy="150" r="1"/><circle cx="475" cy="150" r="1"/><circle cx="525" cy="150" r="1"/><circle cx="575" cy="150" r="1"/>
    <circle cx="625" cy="150" r="1"/><circle cx="675" cy="150" r="1"/><circle cx="725" cy="150" r="1"/><circle cx="775" cy="150" r="1"/>
    <circle cx="825" cy="150" r="1"/><circle cx="875" cy="150" r="1"/>
    <circle cx="25" cy="175" r="1"/><circle cx="75" cy="175" r="1"/><circle cx="125" cy="175" r="1"/><circle cx="175" cy="175" r="1"/>
    <circle cx="225" cy="175" r="1"/><circle cx="275" cy="175" r="1"/><circle cx="325" cy="175" r="1"/><circle cx="375" cy="175" r="1"/>
    <circle cx="425" cy="175" r="1"/><circle cx="475" cy="175" r="1"/><circle cx="525" cy="175" r="1"/><circle cx="575" cy="175" r="1"/>
    <circle cx="625" cy="175" r="1"/><circle cx="675" cy="175" r="1"/><circle cx="725" cy="175" r="1"/><circle cx="775" cy="175" r="1"/>
    <circle cx="825" cy="175" r="1"/><circle cx="875" cy="175" r="1"/>
    <circle cx="25" cy="200" r="1"/><circle cx="75" cy="200" r="1"/><circle cx="125" cy="200" r="1"/><circle cx="175" cy="200" r="1"/>
    <circle cx="225" cy="200" r="1"/><circle cx="275" cy="200" r="1"/><circle cx="325" cy="200" r="1"/><circle cx="375" cy="200" r="1"/>
    <circle cx="425" cy="200" r="1"/><circle cx="475" cy="200" r="1"/><circle cx="525" cy="200" r="1"/><circle cx="575" cy="200" r="1"/>
    <circle cx="625" cy="200" r="1"/><circle cx="675" cy="200" r="1"/><circle cx="725" cy="200" r="1"/><circle cx="775" cy="200" r="1"/>
    <circle cx="825" cy="200" r="1"/><circle cx="875" cy="200" r="1"/>
    <circle cx="25" cy="225" r="1"/><circle cx="75" cy="225" r="1"/><circle cx="125" cy="225" r="1"/><circle cx="175" cy="225" r="1"/>
    <circle cx="225" cy="225" r="1"/><circle cx="275" cy="225" r="1"/><circle cx="325" cy="225" r="1"/><circle cx="375" cy="225" r="1"/>
    <circle cx="425" cy="225" r="1"/><circle cx="475" cy="225" r="1"/><circle cx="525" cy="225" r="1"/><circle cx="575" cy="225" r="1"/>
    <circle cx="625" cy="225" r="1"/><circle cx="675" cy="225" r="1"/><circle cx="725" cy="225" r="1"/><circle cx="775" cy="225" r="1"/>
    <circle cx="825" cy="225" r="1"/><circle cx="875" cy="225" r="1"/>
    <circle cx="25" cy="250" r="1"/><circle cx="75" cy="250" r="1"/><circle cx="125" cy="250" r="1"/><circle cx="175" cy="250" r="1"/>
    <circle cx="225" cy="250" r="1"/><circle cx="275" cy="250" r="1"/><circle cx="325" cy="250" r="1"/><circle cx="375" cy="250" r="1"/>
    <circle cx="425" cy="250" r="1"/><circle cx="475" cy="250" r="1"/><circle cx="525" cy="250" r="1"/><circle cx="575" cy="250" r="1"/>
    <circle cx="625" cy="250" r="1"/><circle cx="675" cy="250" r="1"/><circle cx="725" cy="250" r="1"/><circle cx="775" cy="250" r="1"/>
    <circle cx="825" cy="250" r="1"/><circle cx="875" cy="250" r="1"/>
    <circle cx="25" cy="275" r="1"/><circle cx="75" cy="275" r="1"/><circle cx="125" cy="275" r="1"/><circle cx="175" cy="275" r="1"/>
    <circle cx="225" cy="275" r="1"/><circle cx="275" cy="275" r="1"/><circle cx="325" cy="275" r="1"/><circle cx="375" cy="275" r="1"/>
    <circle cx="425" cy="275" r="1"/><circle cx="475" cy="275" r="1"/><circle cx="525" cy="275" r="1"/><circle cx="575" cy="275" r="1"/>
    <circle cx="625" cy="275" r="1"/><circle cx="675" cy="275" r="1"/><circle cx="725" cy="275" r="1"/><circle cx="775" cy="275" r="1"/>
    <circle cx="825" cy="275" r="1"/><circle cx="875" cy="275" r="1"/>
    <circle cx="25" cy="300" r="1"/><circle cx="75" cy="300" r="1"/><circle cx="125" cy="300" r="1"/><circle cx="175" cy="300" r="1"/>
    <circle cx="225" cy="300" r="1"/><circle cx="275" cy="300" r="1"/><circle cx="325" cy="300" r="1"/><circle cx="375" cy="300" r="1"/>
    <circle cx="425" cy="300" r="1"/><circle cx="475" cy="300" r="1"/><circle cx="525" cy="300" r="1"/><circle cx="575" cy="300" r="1"/>
    <circle cx="625" cy="300" r="1"/><circle cx="675" cy="300" r="1"/><circle cx="725" cy="300" r="1"/><circle cx="775" cy="300" r="1"/>
    <circle cx="825" cy="300" r="1"/><circle cx="875" cy="300" r="1"/>
    <circle cx="25" cy="325" r="1"/><circle cx="75" cy="325" r="1"/><circle cx="125" cy="325" r="1"/><circle cx="175" cy="325" r="1"/>
    <circle cx="225" cy="325" r="1"/><circle cx="275" cy="325" r="1"/><circle cx="325" cy="325" r="1"/><circle cx="375" cy="325" r="1"/>
    <circle cx="425" cy="325" r="1"/><circle cx="475" cy="325" r="1"/><circle cx="525" cy="325" r="1"/><circle cx="575" cy="325" r="1"/>
    <circle cx="625" cy="325" r="1"/><circle cx="675" cy="325" r="1"/><circle cx="725" cy="325" r="1"/><circle cx="775" cy="325" r="1"/>
    <circle cx="825" cy="325" r="1"/><circle cx="875" cy="325" r="1"/>
    <circle cx="25" cy="350" r="1"/><circle cx="75" cy="350" r="1"/><circle cx="125" cy="350" r="1"/><circle cx="175" cy="350" r="1"/>
    <circle cx="225" cy="350" r="1"/><circle cx="275" cy="350" r="1"/><circle cx="325" cy="350" r="1"/><circle cx="375" cy="350" r="1"/>
    <circle cx="425" cy="350" r="1"/><circle cx="475" cy="350" r="1"/><circle cx="525" cy="350" r="1"/><circle cx="575" cy="350" r="1"/>
    <circle cx="625" cy="350" r="1"/><circle cx="675" cy="350" r="1"/><circle cx="725" cy="350" r="1"/><circle cx="775" cy="350" r="1"/>
    <circle cx="825" cy="350" r="1"/><circle cx="875" cy="350" r="1"/>
    <circle cx="25" cy="375" r="1"/><circle cx="75" cy="375" r="1"/><circle cx="125" cy="375" r="1"/><circle cx="175" cy="375" r="1"/>
    <circle cx="225" cy="375" r="1"/><circle cx="275" cy="375" r="1"/><circle cx="325" cy="375" r="1"/><circle cx="375" cy="375" r="1"/>
    <circle cx="425" cy="375" r="1"/><circle cx="475" cy="375" r="1"/><circle cx="525" cy="375" r="1"/><circle cx="575" cy="375" r="1"/>
    <circle cx="625" cy="375" r="1"/><circle cx="675" cy="375" r="1"/><circle cx="725" cy="375" r="1"/><circle cx="775" cy="375" r="1"/>
    <circle cx="825" cy="375" r="1"/><circle cx="875" cy="375" r="1"/>
    <circle cx="25" cy="400" r="1"/><circle cx="75" cy="400" r="1"/><circle cx="125" cy="400" r="1"/><circle cx="175" cy="400" r="1"/>
    <circle cx="225" cy="400" r="1"/><circle cx="275" cy="400" r="1"/><circle cx="325" cy="400" r="1"/><circle cx="375" cy="400" r="1"/>
    <circle cx="425" cy="400" r="1"/><circle cx="475" cy="400" r="1"/><circle cx="525" cy="400" r="1"/><circle cx="575" cy="400" r="1"/>
    <circle cx="625" cy="400" r="1"/><circle cx="675" cy="400" r="1"/><circle cx="725" cy="400" r="1"/><circle cx="775" cy="400" r="1"/>
    <circle cx="825" cy="400" r="1"/><circle cx="875" cy="400" r="1"/>
    <circle cx="25" cy="425" r="1"/><circle cx="75" cy="425" r="1"/><circle cx="125" cy="425" r="1"/><circle cx="175" cy="425" r="1"/>
    <circle cx="225" cy="425" r="1"/><circle cx="275" cy="425" r="1"/><circle cx="325" cy="425" r="1"/><circle cx="375" cy="425" r="1"/>
    <circle cx="425" cy="425" r="1"/><circle cx="475" cy="425" r="1"/><circle cx="525" cy="425" r="1"/><circle cx="575" cy="425" r="1"/>
    <circle cx="625" cy="425" r="1"/><circle cx="675" cy="425" r="1"/><circle cx="725" cy="425" r="1"/><circle cx="775" cy="425" r="1"/>
    <circle cx="825" cy="425" r="1"/><circle cx="875" cy="425" r="1"/>
    <circle cx="25" cy="450" r="1"/><circle cx="75" cy="450" r="1"/><circle cx="125" cy="450" r="1"/><circle cx="175" cy="450" r="1"/>
    <circle cx="225" cy="450" r="1"/><circle cx="275" cy="450" r="1"/><circle cx="325" cy="450" r="1"/><circle cx="375" cy="450" r="1"/>
    <circle cx="425" cy="450" r="1"/><circle cx="475" cy="450" r="1"/><circle cx="525" cy="450" r="1"/><circle cx="575" cy="450" r="1"/>
    <circle cx="625" cy="450" r="1"/><circle cx="675" cy="450" r="1"/><circle cx="725" cy="450" r="1"/><circle cx="775" cy="450" r="1"/>
    <circle cx="825" cy="450" r="1"/><circle cx="875" cy="450" r="1"/>
    <circle cx="25" cy="475" r="1"/><circle cx="75" cy="475" r="1"/><circle cx="125" cy="475" r="1"/><circle cx="175" cy="475" r="1"/>
    <circle cx="225" cy="475" r="1"/><circle cx="275" cy="475" r="1"/><circle cx="325" cy="475" r="1"/><circle cx="375" cy="475" r="1"/>
    <circle cx="425" cy="475" r="1"/><circle cx="475" cy="475" r="1"/><circle cx="525" cy="475" r="1"/><circle cx="575" cy="475" r="1"/>
    <circle cx="625" cy="475" r="1"/><circle cx="675" cy="475" r="1"/><circle cx="725" cy="475" r="1"/><circle cx="775" cy="475" r="1"/>
    <circle cx="825" cy="475" r="1"/><circle cx="875" cy="475" r="1"/>
  </g>

  <!-- ===== CENTER KNOWLEDGE RING ===== -->
  <!-- Outer ambient glow -->
  <circle cx="450" cy="250" r="200" fill="url(#ring-glow)"/>
  <circle cx="450" cy="250" r="170" fill="none" stroke="#00e5ff" stroke-width="0.5" opacity="0.08"/>
  <circle cx="450" cy="250" r="155" fill="none" stroke="#00e5ff" stroke-width="0.5" opacity="0.06"/>

  <!-- Main outer ring -->
  <circle cx="450" cy="250" r="140" fill="none" stroke="#00e5ff" stroke-width="1.5" opacity="0.15"/>
  <!-- Inner ring -->
  <circle cx="450" cy="250" r="110" fill="none" stroke="#00e5ff" stroke-width="2" opacity="0.25" filter="url(#glow-ring)"/>
  <!-- Inner fill glow -->
  <circle cx="450" cy="250" r="108" fill="url(#center-glow)"/>

  <!-- Retrieval highlight arcs (3 activated segments) -->
  <!-- Arc 1: top-right segment, cyan active -->
  <path d="M 510,138 A 140,140 0 0,1 568,170" stroke="#00e5ff" stroke-width="4" fill="none" filter="url(#glow-cyan)" opacity="0.8"/>
  <!-- Arc 2: right segment, pink active -->
  <path d="M 580,198 A 140,140 0 0,1 588,265" stroke="#ff0055" stroke-width="4" fill="none" filter="url(#glow-pink)" opacity="0.8"/>
  <!-- Arc 3: bottom-left segment, purple active -->
  <path d="M 330,295 A 140,140 0 0,1 355,340" stroke="#8855ff" stroke-width="4" fill="none" filter="url(#glow-soft)" opacity="0.8"/>

  <!-- Inner ring highlight arcs -->
  <path d="M 522,154 A 110,110 0 0,1 558,182" stroke="#00e5ff" stroke-width="3" fill="none" filter="url(#glow-cyan)" opacity="0.7"/>
  <path d="M 558,318 A 110,110 0 0,0 340,318" stroke="#8855ff" stroke-width="2" fill="none" opacity="0.3"/>

  <!-- 12 hexagonal chunk nodes around inner ring -->
  <!-- Node positions at r=110 around center 450,250 -->
  <!-- 0°=top: 450,140 -->
  <polygon points="450,128 462,135 462,149 450,156 438,149 438,135" fill="#030a14" stroke="#00e5ff" stroke-width="1.5" filter="url(#glow-cyan)"/>
  <text x="450" y="146" font-family="monospace" font-size="6" fill="#00e5ff" text-anchor="middle">AI</text>

  <!-- 30°: 505,167 -->
  <polygon points="505,155 517,162 517,176 505,183 493,176 493,162" fill="#030a14" stroke="#ff0055" stroke-width="1.5" filter="url(#glow-pink)"/>
  <text x="505" y="173" font-family="monospace" font-size="6" fill="#ff0055" text-anchor="middle">ML</text>

  <!-- 60°: 545,195 -->
  <polygon points="545,183 557,190 557,204 545,211 533,204 533,190" fill="#030a14" stroke="#8855ff" stroke-width="1.5"/>
  <text x="545" y="201" font-family="monospace" font-size="6" fill="#8855ff" text-anchor="middle">DB</text>

  <!-- 90°=right: 560,250 -->
  <polygon points="560,238 572,245 572,259 560,266 548,259 548,245" fill="#030a14" stroke="#00e5ff" stroke-width="2" filter="url(#glow-cyan)"/>
  <text x="560" y="256" font-family="monospace" font-size="6" fill="#00e5ff" text-anchor="middle">QA</text>

  <!-- 120°: 545,305 -->
  <polygon points="545,293 557,300 557,314 545,321 533,314 533,300" fill="#030a14" stroke="#ff0055" stroke-width="1.5"/>
  <text x="545" y="311" font-family="monospace" font-size="6" fill="#ff0055" text-anchor="middle">NLP</text>

  <!-- 150°: 505,333 -->
  <polygon points="505,321 517,328 517,342 505,349 493,342 493,328" fill="#030a14" stroke="#8855ff" stroke-width="1.5"/>
  <text x="505" y="339" font-family="monospace" font-size="6" fill="#8855ff" text-anchor="middle">IR</text>

  <!-- 180°=bottom: 450,360 -->
  <polygon points="450,348 462,355 462,369 450,376 438,369 438,355" fill="#030a14" stroke="#00e5ff" stroke-width="1.5" filter="url(#glow-cyan)"/>
  <text x="450" y="366" font-family="monospace" font-size="6" fill="#00e5ff" text-anchor="middle">VEC</text>

  <!-- 210°: 395,333 -->
  <polygon points="395,321 407,328 407,342 395,349 383,342 383,328" fill="#030a14" stroke="#00ff88" stroke-width="1.5" filter="url(#glow-green)"/>
  <text x="395" y="339" font-family="monospace" font-size="6" fill="#00ff88" text-anchor="middle">KG</text>

  <!-- 240°: 355,305 -->
  <polygon points="355,293 367,300 367,314 355,321 343,314 343,300" fill="#030a14" stroke="#8855ff" stroke-width="2" filter="url(#glow-soft)"/>
  <text x="355" y="311" font-family="monospace" font-size="6" fill="#8855ff" text-anchor="middle">LLM</text>

  <!-- 270°=left: 340,250 -->
  <polygon points="340,238 352,245 352,259 340,266 328,259 328,245" fill="#030a14" stroke="#ff0055" stroke-width="1.5"/>
  <text x="340" y="256" font-family="monospace" font-size="6" fill="#ff0055" text-anchor="middle">SEM</text>

  <!-- 300°: 355,195 -->
  <polygon points="355,183 367,190 367,204 355,211 343,204 343,190" fill="#030a14" stroke="#00e5ff" stroke-width="1.5" filter="url(#glow-cyan)"/>
  <text x="355" y="201" font-family="monospace" font-size="6" fill="#00e5ff" text-anchor="middle">EMB</text>

  <!-- 330°: 395,167 -->
  <polygon points="395,155 407,162 407,176 395,183 383,176 383,162" fill="#030a14" stroke="#ffe000" stroke-width="1.5" filter="url(#glow-soft)"/>
  <text x="395" y="173" font-family="monospace" font-size="6" fill="#ffe000" text-anchor="middle">IDX</text>

  <!-- Center core -->
  <circle cx="450" cy="250" r="38" fill="#040c18" stroke="#00e5ff" stroke-width="1" opacity="0.6"/>
  <circle cx="450" cy="250" r="25" fill="#040c18" stroke="#00e5ff" stroke-width="0.8" opacity="0.4"/>
  <circle cx="450" cy="250" r="12" fill="#00e5ff" opacity="0.08" filter="url(#glow-soft)"/>
  <text x="450" y="245" font-family="monospace" font-size="7" fill="#00e5ff" text-anchor="middle" opacity="0.7">KNOWLEDGE</text>
  <text x="450" y="256" font-family="monospace" font-size="7" fill="#00e5ff" text-anchor="middle" opacity="0.7">BASE</text>
  <text x="450" y="268" font-family="monospace" font-size="6" fill="#00e5ff" text-anchor="middle" opacity="0.45">18,429 chunks</text>

  <!-- ===== QUERY BUBBLE (bottom-left) ===== -->
  <text x="55" y="335" font-family="monospace" font-size="8" fill="#00e5ff" opacity="0.7" letter-spacing="2">USER QUERY</text>
  <!-- Query box with cyan left border glow -->
  <rect x="30" y="342" width="230" height="55" rx="4" fill="#040e1a" stroke="#00e5ff" stroke-width="0.7" opacity="0.7"/>
  <rect x="30" y="342" width="3" height="55" rx="1" fill="#00e5ff" filter="url(#glow-cyan)"/>
  <text x="42" y="358" font-family="monospace" font-size="8" fill="#00e5ff" opacity="0.85">"What is the retrieval</text>
  <text x="42" y="370" font-family="monospace" font-size="8" fill="#00e5ff" opacity="0.85">latency for dense</text>
  <text x="42" y="382" font-family="monospace" font-size="8" fill="#00e5ff" opacity="0.85">vector search..."</text>

  <!-- Query beam from bubble to ring center -->
  <path d="M 260,365 C 310,360 360,320 395,295" stroke="#00e5ff" stroke-width="2" fill="none" opacity="0.5" filter="url(#glow-beam)"/>
  <path d="M 260,365 C 310,360 360,320 395,295" stroke="#00e5ff" stroke-width="6" fill="none" opacity="0.08"/>
  <!-- Particles on beam -->
  <circle cx="298" cy="360" r="2.5" fill="#00e5ff" filter="url(#glow-cyan)" opacity="0.9"/>
  <circle cx="330" cy="348" r="2" fill="#00e5ff" opacity="0.7"/>
  <circle cx="365" cy="318" r="2.5" fill="#00e5ff" filter="url(#glow-cyan)" opacity="0.9"/>

  <!-- Retrieved node connection lines -->
  <!-- Node AI (top) connected back to center — active -->
  <line x1="450" y1="156" x2="450" y2="212" stroke="#00e5ff" stroke-width="1" opacity="0.5" stroke-dasharray="3,4"/>
  <!-- Node QA (right) — active -->
  <line x1="548" y1="252" x2="488" y2="252" stroke="#00e5ff" stroke-width="1" opacity="0.5" stroke-dasharray="3,4"/>
  <!-- Node LLM (bottom-left) — active -->
  <line x1="367" y1="307" x2="415" y2="278" stroke="#8855ff" stroke-width="1" opacity="0.5" stroke-dasharray="3,4"/>

  <!-- ===== ANSWER ASSEMBLY (top-right) ===== -->
  <text x="660" y="75" font-family="monospace" font-size="8" fill="#00ff88" opacity="0.7" letter-spacing="2">GENERATED RESPONSE</text>

  <!-- Streaming response box -->
  <rect x="640" y="82" width="240" height="64" rx="4" fill="#04100a" stroke="#00ff88" stroke-width="0.8" opacity="0.75"/>
  <rect x="640" y="82" width="3" height="64" rx="1" fill="#00ff88" filter="url(#glow-green)"/>
  <text x="652" y="98" font-family="monospace" font-size="7.5" fill="#00ff88" opacity="0.85">The dense vector retrieval</text>
  <text x="652" y="110" font-family="monospace" font-size="7.5" fill="#00ff88" opacity="0.85">latency at p99 is 187ms,</text>
  <text x="652" y="122" font-family="monospace" font-size="7.5" fill="#00ff88" opacity="0.85">utilizing cosine similarity</text>
  <text x="652" y="134" font-family="monospace" font-size="7.5" fill="#00ff88" opacity="0.85">across 18k indexed chunks</text>
  <!-- Streaming cursor -->
  <rect x="798" y="128" width="7" height="10" fill="#00ff88" opacity="0.9" filter="url(#glow-green)"/>

  <!-- Citation blocks -->
  <!-- Citation 1 — cyan -->
  <rect x="640" y="154" width="240" height="32" rx="3" fill="url(#citation-cyan)" stroke="#00e5ff" stroke-width="0.6" opacity="0.8"/>
  <rect x="640" y="154" width="3" height="32" rx="1" fill="#00e5ff"/>
  <text x="652" y="166" font-family="monospace" font-size="7" fill="#00e5ff" opacity="0.8">doc_0041 · chunk_003</text>
  <text x="652" y="178" font-family="monospace" font-size="6.5" fill="#ffffff" opacity="0.45">...dense retrieval pipeline latency...</text>

  <!-- Citation 2 — pink -->
  <rect x="640" y="192" width="240" height="32" rx="3" fill="url(#citation-pink)" stroke="#ff0055" stroke-width="0.6" opacity="0.8"/>
  <rect x="640" y="192" width="3" height="32" rx="1" fill="#ff0055"/>
  <text x="652" y="204" font-family="monospace" font-size="7" fill="#ff0055" opacity="0.8">doc_0017 · chunk_011</text>
  <text x="652" y="216" font-family="monospace" font-size="6.5" fill="#ffffff" opacity="0.45">...vector index benchmark results...</text>

  <!-- Citation 3 — purple -->
  <rect x="640" y="230" width="240" height="32" rx="3" fill="url(#citation-purple)" stroke="#8855ff" stroke-width="0.6" opacity="0.8"/>
  <rect x="640" y="230" width="3" height="32" rx="1" fill="#8855ff"/>
  <text x="652" y="242" font-family="monospace" font-size="7" fill="#8855ff" opacity="0.8">doc_0009 · chunk_027</text>
  <text x="652" y="254" font-family="monospace" font-size="6.5" fill="#ffffff" opacity="0.45">...embedding model comparison...</text>

  <!-- Response-to-ring beam -->
  <path d="M 640,200 C 610,200 580,220 558,252" stroke="#00ff88" stroke-width="1.5" fill="none" opacity="0.4" filter="url(#glow-beam)"/>
  <circle cx="620" cy="202" r="2" fill="#00ff88" opacity="0.7"/>
  <circle cx="590" cy="215" r="2.5" fill="#00ff88" filter="url(#glow-green)" opacity="0.8"/>

  <!-- ===== BOTTOM STATS BAR ===== -->
  <rect x="0" y="455" width="900" height="45" fill="#040b16" opacity="0.9"/>
  <line x1="0" y1="455" x2="900" y2="455" stroke="#00e5ff" stroke-width="0.5" opacity="0.25"/>

  <!-- Metric chips -->
  <rect x="280" y="462" width="100" height="26" rx="4" fill="#040e1a" stroke="#00e5ff" stroke-width="0.8"/>
  <text x="330" y="472" font-family="monospace" font-size="6.5" fill="#00e5ff" text-anchor="middle" opacity="0.65">latency</text>
  <text x="330" y="483" font-family="monospace" font-size="9" fill="#00e5ff" text-anchor="middle" font-weight="bold" filter="url(#glow-cyan)">p99: 187ms</text>

  <rect x="395" y="462" width="110" height="26" rx="4" fill="#040e1a" stroke="#ffe000" stroke-width="0.8"/>
  <text x="450" y="472" font-family="monospace" font-size="6.5" fill="#ffe000" text-anchor="middle" opacity="0.65">context window</text>
  <text x="450" y="483" font-family="monospace" font-size="9" fill="#ffe000" text-anchor="middle" font-weight="bold">tokens: 2,841</text>

  <rect x="520" y="462" width="100" height="26" rx="4" fill="#040e1a" stroke="#ff0055" stroke-width="0.8"/>
  <text x="570" y="472" font-family="monospace" font-size="6.5" fill="#ff0055" text-anchor="middle" opacity="0.65">grounded</text>
  <text x="570" y="483" font-family="monospace" font-size="9" fill="#ff0055" text-anchor="middle" font-weight="bold" filter="url(#glow-pink)">citations: 3</text>

  <!-- Bottom-left label -->
  <text x="30" y="470" font-family="monospace" font-size="8" fill="#ffffff" opacity="0.4" letter-spacing="2">QUERY RESONANCE</text>
  <text x="30" y="482" font-family="monospace" font-size="6.5" fill="#00e5ff" opacity="0.3">GPT Document Intelligence · v2.1</text>

  <!-- Top-left corner -->
  <line x1="18" y1="18" x2="50" y2="18" stroke="#00e5ff" stroke-width="0.8" opacity="0.4"/>
  <line x1="18" y1="18" x2="18" y2="50" stroke="#00e5ff" stroke-width="0.8" opacity="0.4"/>
  <text x="25" y="34" font-family="monospace" font-size="6.5" fill="#00e5ff" opacity="0.5">CHAT</text>
  <text x="25" y="45" font-family="monospace" font-size="6.5" fill="#00e5ff" opacity="0.4">MODULE</text>

  <!-- Top-right corner -->
  <line x1="882" y1="18" x2="850" y2="18" stroke="#00e5ff" stroke-width="0.8" opacity="0.4"/>
  <line x1="882" y1="18" x2="882" y2="50" stroke="#00e5ff" stroke-width="0.8" opacity="0.4"/>
  <text x="877" y="34" font-family="monospace" font-size="6.5" fill="#00e5ff" text-anchor="end" opacity="0.5">RAG</text>
  <text x="877" y="45" font-family="monospace" font-size="6.5" fill="#00e5ff" text-anchor="end" opacity="0.4">SYS·2.1</text>
</svg>
