<svg xmlns="http://www.w3.org/2000/svg" viewBox="0 0 1600 900" role="img" aria-labelledby="title desc">
  <title id="title">Chunk Preview</title>
  <desc id="desc">Example screenshot style panel for chunking and document segmentation.</desc>
  <defs>
    <linearGradient id="bg" x1="0" y1="0" x2="1" y2="1">
      <stop offset="0%" stop-color="#071523"/>
      <stop offset="100%" stop-color="#102233"/>
    </linearGradient>
    <linearGradient id="accent" x1="0" y1="0" x2="1" y2="0">
      <stop offset="0%" stop-color="#00f5ff"/>
      <stop offset="100%" stop-color="#9d00ff"/>
    </linearGradient>
  </defs>
  <rect width="1600" height="900" fill="url(#bg)"/>
  <rect x="70" y="70" width="1460" height="760" rx="20" fill="#0c1e30" stroke="#1b3750"/>
  <rect x="70" y="70" width="1460" height="3" fill="url(#accent)"/>

  <rect x="120" y="130" width="380" height="640" rx="12" fill="#10263a" stroke="#234560"/>
  <text x="150" y="180" fill="#97c0dc" font-family="Arial, sans-serif" font-size="28">Sections</text>
  <rect x="150" y="220" width="320" height="80" rx="9" fill="#12405f"/>
  <text x="178" y="268" fill="#dff9ff" font-family="Arial, sans-serif" font-size="24">Executive Summary</text>
  <rect x="150" y="320" width="320" height="80" rx="9" fill="#103654"/>
  <text x="178" y="368" fill="#dff9ff" font-family="Arial, sans-serif" font-size="24">Legal Constraints</text>
  <rect x="150" y="420" width="320" height="80" rx="9" fill="#103654"/>
  <text x="178" y="468" fill="#dff9ff" font-family="Arial, sans-serif" font-size="24">Revenue Metrics</text>

  <rect x="540" y="130" width="940" height="640" rx="12" fill="#0f273b" stroke="#22445f"/>
  <text x="580" y="180" fill="#97c0dc" font-family="Arial, sans-serif" font-size="28">Chunking Inspector</text>

  <rect x="580" y="220" width="860" height="120" rx="10" fill="#12324b"/>
  <text x="610" y="265" fill="#d5ecfa" font-family="Arial, sans-serif" font-size="22">Chunk #17 • 512 tokens • overlap 80</text>
  <text x="610" y="305" fill="#b6d2e6" font-family="Arial, sans-serif" font-size="20">"Revenue increased 31% YoY with margin expansion in EMEA..."</text>

  <rect x="580" y="370" width="860" height="120" rx="10" fill="#12324b"/>
  <text x="610" y="415" fill="#d5ecfa" font-family="Arial, sans-serif" font-size="22">Chunk #18 • 512 tokens • overlap 80</text>
  <text x="610" y="455" fill="#b6d2e6" font-family="Arial, sans-serif" font-size="20">"Regulatory headwinds remain in the shipping vertical..."</text>

  <rect x="580" y="520" width="860" height="210" rx="10" fill="#0e3048"/>
  <text x="610" y="570" fill="#e7f7ff" font-family="Arial, sans-serif" font-size="22">Quality Scores</text>
  <rect x="610" y="600" width="760" height="22" rx="11" fill="#1d4864"/>
  <rect x="610" y="600" width="706" height="22" rx="11" fill="#00f5ff"/>
  <text x="610" y="655" fill="#b7d7ea" font-family="Arial, sans-serif" font-size="20">Semantic coherence: 93%</text>
  <text x="610" y="690" fill="#b7d7ea" font-family="Arial, sans-serif" font-size="20">Entity retention: 89%</text>

  <text x="120" y="845" fill="#3f6a86" font-family="Arial, sans-serif" font-size="20">Feature Snapshot • Chunk Preview</text>
</svg>
