<svg xmlns="http://www.w3.org/2000/svg" width="900" height="500" viewBox="0 0 900 500">
  <defs>
    <filter id="glow-cyan" x="-50%" y="-50%" width="200%" height="200%">
      <feGaussianBlur stdDeviation="3" result="blur"/>
      <feMerge><feMergeNode in="blur"/><feMergeNode in="blur"/><feMergeNode in="SourceGraphic"/></feMerge>
    </filter>
    <filter id="glow-pink" x="-50%" y="-50%" width="200%" height="200%">
      <feGaussianBlur stdDeviation="4" result="blur"/>
      <feMerge><feMergeNode in="blur"/><feMergeNode in="blur"/><feMergeNode in="SourceGraphic"/></feMerge>
    </filter>
    <filter id="glow-green" x="-50%" y="-50%" width="200%" height="200%">
      <feGaussianBlur stdDeviation="3" result="blur"/>
      <feMerge><feMergeNode in="blur"/><feMergeNode in="blur"/><feMergeNode in="SourceGraphic"/></feMerge>
    </filter>
    <filter id="glow-soft" x="-100%" y="-100%" width="300%" height="300%">
      <feGaussianBlur stdDeviation="8" result="blur"/>
      <feMerge><feMergeNode in="blur"/><feMergeNode in="SourceGraphic"/></feMerge>
    </filter>
    <filter id="glow-yellow" x="-50%" y="-50%" width="200%" height="200%">
      <feGaussianBlur stdDeviation="3" result="blur"/>
      <feMerge><feMergeNode in="blur"/><feMergeNode in="blur"/><feMergeNode in="SourceGraphic"/></feMerge>
    </filter>
    <filter id="glow-fusion" x="-100%" y="-100%" width="300%" height="300%">
      <feGaussianBlur stdDeviation="10" result="blur"/>
      <feMerge><feMergeNode in="blur"/><feMergeNode in="blur"/><feMergeNode in="SourceGraphic"/></feMerge>
    </filter>
    <linearGradient id="bg-grad" x1="0%" y1="0%" x2="100%" y2="100%">
      <stop offset="0%" stop-color="#040a12"/>
      <stop offset="100%" stop-color="#050c16"/>
    </linearGradient>
    <linearGradient id="sparse-lane-grad" x1="0%" y1="0%" x2="0%" y2="100%">
      <stop offset="0%" stop-color="#1a0510" stop-opacity="0.7"/>
      <stop offset="100%" stop-color="#0d0310" stop-opacity="0.4"/>
    </linearGradient>
    <linearGradient id="dense-lane-grad" x1="0%" y1="0%" x2="0%" y2="100%">
      <stop offset="0%" stop-color="#030d1a" stop-opacity="0.4"/>
      <stop offset="100%" stop-color="#030f1a" stop-opacity="0.7"/>
    </linearGradient>
    <linearGradient id="fusion-band" x1="0%" y1="0%" x2="100%" y2="0%">
      <stop offset="0%" stop-color="#1a0a30" stop-opacity="0.9"/>
      <stop offset="40%" stop-color="#220e3a" stop-opacity="1"/>
      <stop offset="100%" stop-color="#1a0a30" stop-opacity="0.9"/>
    </linearGradient>
    <radialGradient id="query-heatmap" cx="50%" cy="50%" r="50%">
      <stop offset="0%" stop-color="#00e5ff" stop-opacity="0.25"/>
      <stop offset="35%" stop-color="#00e5ff" stop-opacity="0.10"/>
      <stop offset="70%" stop-color="#00e5ff" stop-opacity="0.03"/>
      <stop offset="100%" stop-color="#00e5ff" stop-opacity="0"/>
    </radialGradient>
    <linearGradient id="rrf-bar-1" x1="0%" y1="0%" x2="100%" y2="0%">
      <stop offset="0%" stop-color="#ffe000"/>
      <stop offset="100%" stop-color="#ffe000" stop-opacity="0.2"/>
    </linearGradient>
    <linearGradient id="rrf-bar-2" x1="0%" y1="0%" x2="100%" y2="0%">
      <stop offset="0%" stop-color="#ffe000"/>
      <stop offset="100%" stop-color="#ffe000" stop-opacity="0.2"/>
    </linearGradient>
    <linearGradient id="stream-down" x1="0%" y1="0%" x2="0%" y2="100%">
      <stop offset="0%" stop-color="#ff0055" stop-opacity="0.7"/>
      <stop offset="100%" stop-color="#8855ff" stop-opacity="0.7"/>
    </linearGradient>
    <linearGradient id="stream-up" x1="0%" y1="100%" x2="0%" y2="0%">
      <stop offset="0%" stop-color="#00e5ff" stop-opacity="0.7"/>
      <stop offset="100%" stop-color="#8855ff" stop-opacity="0.7"/>
    </linearGradient>
  </defs>

  <!-- Background -->
  <rect width="900" height="500" fill="url(#bg-grad)"/>

  <!-- Subtle diagonal hatching background -->
  <g opacity="0.03" stroke="#8855ff" stroke-width="0.8">
    <line x1="-50" y1="0" x2="500" y2="550"/>
    <line x1="0" y1="0" x2="550" y2="550"/>
    <line x1="50" y1="0" x2="600" y2="550"/>
    <line x1="100" y1="0" x2="650" y2="550"/>
    <line x1="150" y1="0" x2="700" y2="550"/>
    <line x1="200" y1="0" x2="750" y2="550"/>
    <line x1="250" y1="0" x2="800" y2="550"/>
    <line x1="300" y1="0" x2="850" y2="550"/>
    <line x1="350" y1="0" x2="900" y2="550"/>
    <line x1="400" y1="0" x2="950" y2="550"/>
    <line x1="450" y1="0" x2="1000" y2="550"/>
    <line x1="500" y1="0" x2="1050" y2="550"/>
    <line x1="550" y1="0" x2="1100" y2="550"/>
    <line x1="600" y1="0" x2="1150" y2="550"/>
    <line x1="650" y1="0" x2="1200" y2="550"/>
    <line x1="700" y1="0" x2="1250" y2="550"/>
    <line x1="750" y1="0" x2="1300" y2="550"/>
    <line x1="800" y1="0" x2="1350" y2="550"/>
    <line x1="850" y1="0" x2="1400" y2="550"/>
    <line x1="900" y1="0" x2="1450" y2="550"/>
  </g>

  <!-- ===== TOP LANE: SPARSE / BM25 ===== -->
  <rect x="0" y="52" width="720" height="168" fill="url(#sparse-lane-grad)" opacity="0.9"/>
  <line x1="0" y1="52" x2="720" y2="52" stroke="#ff0055" stroke-width="1" opacity="0.4"/>
  <line x1="0" y1="220" x2="720" y2="220" stroke="#ff0055" stroke-width="0.5" opacity="0.2"/>

  <!-- BM25 label -->
  <text x="22" y="72" font-family="monospace" font-size="9" fill="#ff0055" letter-spacing="2" filter="url(#glow-pink)">SPARSE / BM25</text>
  <line x1="22" y1="76" x2="155" y2="76" stroke="#ff0055" stroke-width="0.5" opacity="0.4"/>

  <!-- Token pills with TF-IDF weights -->
  <!-- "retrieval" — high weight, large, full opacity -->
  <rect x="22" y="85" width="70" height="22" rx="11" fill="#1a0510" stroke="#ff0055" stroke-width="1.5" filter="url(#glow-pink)"/>
  <text x="57" y="100" font-family="monospace" font-size="8" fill="#ff0055" text-anchor="middle" font-weight="bold">retrieval</text>
  <rect x="22" y="112" width="55" height="6" rx="3" fill="#ff0055" opacity="0.8"/>

  <!-- "latency" — medium-high weight -->
  <rect x="102" y="88" width="58" height="19" rx="9.5" fill="#150310" stroke="#ff0055" stroke-width="1.2"/>
  <text x="131" y="101" font-family="monospace" font-size="7.5" fill="#ff0055" text-anchor="middle" opacity="0.85">latency</text>
  <rect x="102" y="112" width="44" height="5" rx="2.5" fill="#ff0055" opacity="0.65"/>

  <!-- "embedding" — high weight -->
  <rect x="170" y="84" width="72" height="23" rx="11.5" fill="#1a0510" stroke="#ff0055" stroke-width="1.5" filter="url(#glow-pink)"/>
  <text x="206" y="100" font-family="monospace" font-size="8" fill="#ff0055" text-anchor="middle" font-weight="bold">embedding</text>
  <rect x="170" y="112" width="62" height="6" rx="3" fill="#ff0055" opacity="0.85"/>

  <!-- "chunk" — medium weight -->
  <rect x="252" y="90" width="48" height="18" rx="9" fill="#100210" stroke="#ff0055" stroke-width="1" opacity="0.7"/>
  <text x="276" y="103" font-family="monospace" font-size="7" fill="#ff0055" text-anchor="middle" opacity="0.7">chunk</text>
  <rect x="252" y="112" width="32" height="4" rx="2" fill="#ff0055" opacity="0.5"/>

  <!-- "query" — medium-high weight -->
  <rect x="310" y="87" width="52" height="20" rx="10" fill="#150310" stroke="#ff0055" stroke-width="1.3"/>
  <text x="336" y="101" font-family="monospace" font-size="7.5" fill="#ff0055" text-anchor="middle" opacity="0.88">query</text>
  <rect x="310" y="112" width="40" height="5" rx="2.5" fill="#ff0055" opacity="0.7"/>

  <!-- "vector" — medium weight -->
  <rect x="372" y="89" width="52" height="19" rx="9.5" fill="#120208" stroke="#ff0055" stroke-width="1" opacity="0.65"/>
  <text x="398" y="102" font-family="monospace" font-size="7" fill="#ff0055" text-anchor="middle" opacity="0.65">vector</text>
  <rect x="372" y="112" width="36" height="4" rx="2" fill="#ff0055" opacity="0.48"/>

  <!-- "index" — low-medium weight -->
  <rect x="434" y="91" width="44" height="17" rx="8.5" fill="#0e0208" stroke="#ff0055" stroke-width="0.8" opacity="0.55"/>
  <text x="456" y="103" font-family="monospace" font-size="7" fill="#ff0055" text-anchor="middle" opacity="0.55">index</text>
  <rect x="434" y="112" width="26" height="4" rx="2" fill="#ff0055" opacity="0.38"/>

  <!-- "cosine" — low weight -->
  <rect x="488" y="92" width="48" height="16" rx="8" fill="#0b0108" stroke="#ff0055" stroke-width="0.7" opacity="0.45"/>
  <text x="512" y="104" font-family="monospace" font-size="6.5" fill="#ff0055" text-anchor="middle" opacity="0.45">cosine</text>
  <rect x="488" y="112" width="20" height="3" rx="1.5" fill="#ff0055" opacity="0.3"/>

  <!-- "sparse" — very low weight -->
  <rect x="546" y="93" width="44" height="15" rx="7.5" fill="#080108" stroke="#ff0055" stroke-width="0.6" opacity="0.35"/>
  <text x="568" y="104" font-family="monospace" font-size="6" fill="#ff0055" text-anchor="middle" opacity="0.35">sparse</text>
  <rect x="546" y="112" width="14" height="3" rx="1.5" fill="#ff0055" opacity="0.22"/>

  <!-- TF-IDF label -->
  <text x="22" y="126" font-family="monospace" font-size="6" fill="#ff0055" opacity="0.35">TF-IDF weight</text>

  <!-- BM25 scored results — right side of sparse lane -->
  <text x="614" y="72" font-family="monospace" font-size="7.5" fill="#ff0055" opacity="0.65" letter-spacing="1">TOP-5 RESULTS</text>
  <line x1="614" y1="76" x2="710" y2="76" stroke="#ff0055" stroke-width="0.4" opacity="0.3"/>

  <text x="614" y="92" font-family="monospace" font-size="7.5" fill="#ff0055" opacity="0.85">doc_0041 · 4.82</text>
  <rect x="614" y="95" width="90" height="3" rx="1.5" fill="#ff0055" opacity="0.5"/>

  <text x="614" y="110" font-family="monospace" font-size="7.5" fill="#ff0055" opacity="0.72">doc_0017 · 4.31</text>
  <rect x="614" y="113" width="76" height="3" rx="1.5" fill="#ff0055" opacity="0.4"/>

  <text x="614" y="128" font-family="monospace" font-size="7.5" fill="#ff0055" opacity="0.6">doc_0088 · 3.97</text>
  <rect x="614" y="131" width="65" height="3" rx="1.5" fill="#ff0055" opacity="0.32"/>

  <text x="614" y="146" font-family="monospace" font-size="7.5" fill="#ff0055" opacity="0.5">doc_0009 · 3.54</text>
  <rect x="614" y="149" width="55" height="3" rx="1.5" fill="#ff0055" opacity="0.25"/>

  <text x="614" y="164" font-family="monospace" font-size="7.5" fill="#ff0055" opacity="0.4">doc_0062 · 3.11</text>
  <rect x="614" y="167" width="44" height="3" rx="1.5" fill="#ff0055" opacity="0.2"/>

  <!-- Decorative scan lines inside sparse lane -->
  <line x1="22" y1="145" x2="600" y2="145" stroke="#ff0055" stroke-width="0.4" opacity="0.1"/>
  <line x1="22" y1="165" x2="600" y2="165" stroke="#ff0055" stroke-width="0.4" opacity="0.08"/>
  <line x1="22" y1="185" x2="600" y2="185" stroke="#ff0055" stroke-width="0.4" opacity="0.06"/>
  <line x1="22" y1="205" x2="600" y2="205" stroke="#ff0055" stroke-width="0.4" opacity="0.05"/>

  <!-- Additional floating pills lower row -->
  <rect x="30" y="148" width="40" height="14" rx="7" fill="#0d0208" stroke="#ff0055" stroke-width="0.6" opacity="0.3"/>
  <text x="50" y="159" font-family="monospace" font-size="5.5" fill="#ff0055" text-anchor="middle" opacity="0.3">rank</text>
  <rect x="80" y="150" width="52" height="13" rx="6.5" fill="#0d0208" stroke="#ff0055" stroke-width="0.5" opacity="0.22"/>
  <text x="106" y="160" font-family="monospace" font-size="5.5" fill="#ff0055" text-anchor="middle" opacity="0.22">semantic</text>
  <rect x="142" y="149" width="38" height="13" rx="6.5" fill="#0d0208" stroke="#ff0055" stroke-width="0.5" opacity="0.18"/>
  <text x="161" y="159" font-family="monospace" font-size="5.5" fill="#ff0055" text-anchor="middle" opacity="0.18">term</text>
  <rect x="190" y="150" width="46" height="13" rx="6.5" fill="#0d0208" stroke="#ff0055" stroke-width="0.5" opacity="0.15"/>
  <text x="213" y="160" font-family="monospace" font-size="5.5" fill="#ff0055" text-anchor="middle" opacity="0.15">bm25f</text>

  <!-- ===== FUSION BAND ===== -->
  <rect x="0" y="220" width="720" height="60" fill="url(#fusion-band)"/>
  <line x1="0" y1="220" x2="720" y2="220" stroke="#8855ff" stroke-width="1.2" opacity="0.5" filter="url(#glow-soft)"/>
  <line x1="0" y1="280" x2="720" y2="280" stroke="#8855ff" stroke-width="1.2" opacity="0.5" filter="url(#glow-soft)"/>

  <!-- Fusion label -->
  <text x="360" y="246" font-family="monospace" font-size="9" fill="#8855ff" text-anchor="middle" letter-spacing="3" filter="url(#glow-fusion)">RECIPROCAL RANK FUSION</text>
  <text x="360" y="260" font-family="monospace" font-size="7" fill="#8855ff" text-anchor="middle" opacity="0.55">k=60 · normalized · combined rank</text>

  <!-- Streams converging into fusion band -->
  <!-- From sparse lane top -->
  <path d="M 280,220 C 280,240 310,248 340,250" stroke="url(#stream-down)" stroke-width="1.5" fill="none" opacity="0.7"/>
  <path d="M 360,220 C 360,238 360,244 360,250" stroke="#8855ff" stroke-width="2" fill="none" opacity="0.6" filter="url(#glow-soft)"/>
  <path d="M 440,220 C 440,240 410,248 380,250" stroke="url(#stream-down)" stroke-width="1.5" fill="none" opacity="0.7"/>

  <!-- From dense lane bottom -->
  <path d="M 280,280 C 280,265 310,258 340,252" stroke="url(#stream-up)" stroke-width="1.5" fill="none" opacity="0.7"/>
  <path d="M 360,280 C 360,268 360,258 360,252" stroke="#8855ff" stroke-width="2" fill="none" opacity="0.6" filter="url(#glow-soft)"/>
  <path d="M 440,280 C 440,265 410,258 380,252" stroke="url(#stream-up)" stroke-width="1.5" fill="none" opacity="0.7"/>

  <!-- Outgoing merged stream to right -->
  <path d="M 600,250 C 620,250 640,250 660,250" stroke="#8855ff" stroke-width="3" fill="none" opacity="0.7" filter="url(#glow-soft)"/>
  <path d="M 650,246 L 668,250 L 650,254" fill="#8855ff" opacity="0.6"/>
  <circle cx="615" cy="250" r="3" fill="#8855ff" filter="url(#glow-soft)" opacity="0.9"/>
  <circle cx="635" cy="250" r="2" fill="#8855ff" opacity="0.7"/>

  <!-- Fusion decorative elements -->
  <circle cx="360" cy="250" r="12" fill="none" stroke="#8855ff" stroke-width="1" opacity="0.4" filter="url(#glow-soft)"/>
  <circle cx="360" cy="250" r="6" fill="#8855ff" opacity="0.2" filter="url(#glow-soft)"/>

  <!-- ===== BOTTOM LANE: DENSE / VECTOR ===== -->
  <rect x="0" y="280" width="720" height="162" fill="url(#dense-lane-grad)" opacity="0.9"/>
  <line x1="0" y1="442" x2="720" y2="442" stroke="#00e5ff" stroke-width="1" opacity="0.4"/>

  <!-- Dense label -->
  <text x="22" y="300" font-family="monospace" font-size="9" fill="#00e5ff" letter-spacing="2" filter="url(#glow-cyan)">DENSE / VECTOR</text>
  <line x1="22" y1="304" x2="155" y2="304" stroke="#00e5ff" stroke-width="0.5" opacity="0.4"/>

  <!-- Vector scatter plot area -->
  <!-- Heatmap around query vector at 360,385 -->
  <circle cx="360" cy="385" r="75" fill="url(#query-heatmap)"/>
  <circle cx="360" cy="385" r="75" fill="none" stroke="#00e5ff" stroke-width="0.5" opacity="0.15"/>
  <circle cx="360" cy="385" r="50" fill="none" stroke="#00e5ff" stroke-width="0.5" opacity="0.12"/>
  <circle cx="360" cy="385" r="28" fill="none" stroke="#00e5ff" stroke-width="0.5" opacity="0.18"/>

  <!-- Background scattered dots (non-retrieved) -->
  <circle cx="85" cy="310" r="2" fill="#00e5ff" opacity="0.22"/>
  <circle cx="110" cy="330" r="1.5" fill="#00e5ff" opacity="0.18"/>
  <circle cx="130" cy="318" r="2" fill="#00e5ff" opacity="0.2"/>
  <circle cx="150" cy="340" r="1.5" fill="#00e5ff" opacity="0.15"/>
  <circle cx="95" cy="355" r="1.5" fill="#00e5ff" opacity="0.18"/>
  <circle cx="170" cy="312" r="2" fill="#00e5ff" opacity="0.2"/>
  <circle cx="185" cy="350" r="1.5" fill="#00e5ff" opacity="0.16"/>
  <circle cx="200" cy="328" r="2" fill="#00e5ff" opacity="0.2"/>
  <circle cx="220" cy="360" r="1.5" fill="#00e5ff" opacity="0.15"/>
  <circle cx="240" cy="316" r="2" fill="#00e5ff" opacity="0.18"/>
  <circle cx="255" cy="345" r="1.5" fill="#00e5ff" opacity="0.16"/>
  <circle cx="270" cy="330" r="2" fill="#00e5ff" opacity="0.2"/>
  <circle cx="80" cy="400" r="1.5" fill="#00e5ff" opacity="0.15"/>
  <circle cx="105" cy="420" r="2" fill="#00e5ff" opacity="0.18"/>
  <circle cx="130" cy="408" r="1.5" fill="#00e5ff" opacity="0.15"/>
  <circle cx="155" cy="425" r="2" fill="#00e5ff" opacity="0.17"/>
  <circle cx="175" cy="410" r="1.5" fill="#00e5ff" opacity="0.15"/>
  <circle cx="195" cy="430" r="1.5" fill="#00e5ff" opacity="0.14"/>
  <circle cx="215" cy="415" r="2" fill="#00e5ff" opacity="0.16"/>
  <circle cx="240" cy="400" r="1.5" fill="#00e5ff" opacity="0.15"/>
  <circle cx="260" cy="425" r="2" fill="#00e5ff" opacity="0.17"/>
  <circle cx="490" cy="312" r="2" fill="#00e5ff" opacity="0.2"/>
  <circle cx="510" cy="330" r="1.5" fill="#00e5ff" opacity="0.17"/>
  <circle cx="530" cy="318" r="2" fill="#00e5ff" opacity="0.19"/>
  <circle cx="550" cy="345" r="1.5" fill="#00e5ff" opacity="0.15"/>
  <circle cx="570" cy="328" r="2" fill="#00e5ff" opacity="0.18"/>
  <circle cx="590" cy="355" r="1.5" fill="#00e5ff" opacity="0.15"/>
  <circle cx="480" cy="410" r="2" fill="#00e5ff" opacity="0.18"/>
  <circle cx="505" cy="428" r="1.5" fill="#00e5ff" opacity="0.15"/>
  <circle cx="525" cy="415" r="2" fill="#00e5ff" opacity="0.17"/>
  <circle cx="545" cy="432" r="1.5" fill="#00e5ff" opacity="0.14"/>

  <!-- 5 nearest neighbor dots with concentric rings -->
  <!-- NN1 — closest, at 338,362 -->
  <circle cx="338" cy="362" r="14" fill="none" stroke="#00e5ff" stroke-width="0.8" opacity="0.25" stroke-dasharray="3,3"/>
  <circle cx="338" cy="362" r="9" fill="none" stroke="#00e5ff" stroke-width="0.8" opacity="0.35"/>
  <circle cx="338" cy="362" r="5" fill="#00e5ff" opacity="0.9" filter="url(#glow-cyan)"/>
  <line x1="338" y1="362" x2="360" y2="385" stroke="#00e5ff" stroke-width="0.8" opacity="0.45" stroke-dasharray="3,4"/>

  <!-- NN2 at 385,365 -->
  <circle cx="385" cy="365" r="12" fill="none" stroke="#00e5ff" stroke-width="0.8" opacity="0.22" stroke-dasharray="3,3"/>
  <circle cx="385" cy="365" r="7" fill="none" stroke="#00e5ff" stroke-width="0.8" opacity="0.32"/>
  <circle cx="385" cy="365" r="4.5" fill="#00e5ff" opacity="0.85" filter="url(#glow-cyan)"/>
  <line x1="385" y1="365" x2="360" y2="385" stroke="#00e5ff" stroke-width="0.8" opacity="0.4" stroke-dasharray="3,4"/>

  <!-- NN3 at 345,408 -->
  <circle cx="345" cy="408" r="12" fill="none" stroke="#00e5ff" stroke-width="0.7" opacity="0.2" stroke-dasharray="3,3"/>
  <circle cx="345" cy="408" r="7" fill="none" stroke="#00e5ff" stroke-width="0.8" opacity="0.3"/>
  <circle cx="345" cy="408" r="4" fill="#00e5ff" opacity="0.8" filter="url(#glow-cyan)"/>
  <line x1="345" y1="408" x2="360" y2="385" stroke="#00e5ff" stroke-width="0.7" opacity="0.38" stroke-dasharray="3,4"/>

  <!-- NN4 at 378,412 -->
  <circle cx="378" cy="412" r="10" fill="none" stroke="#00e5ff" stroke-width="0.7" opacity="0.18" stroke-dasharray="3,3"/>
  <circle cx="378" cy="412" r="6" fill="none" stroke="#00e5ff" stroke-width="0.7" opacity="0.28"/>
  <circle cx="378" cy="412" r="3.5" fill="#00e5ff" opacity="0.75"/>
  <line x1="378" y1="412" x2="360" y2="385" stroke="#00e5ff" stroke-width="0.7" opacity="0.35" stroke-dasharray="3,4"/>

  <!-- NN5 at 320,390 -->
  <circle cx="320" cy="390" r="10" fill="none" stroke="#00e5ff" stroke-width="0.7" opacity="0.17" stroke-dasharray="3,3"/>
  <circle cx="320" cy="390" r="6" fill="none" stroke="#00e5ff" stroke-width="0.7" opacity="0.27"/>
  <circle cx="320" cy="390" r="3.5" fill="#00e5ff" opacity="0.72"/>
  <line x1="320" y1="390" x2="360" y2="385" stroke="#00e5ff" stroke-width="0.7" opacity="0.33" stroke-dasharray="3,4"/>

  <!-- Query vector reticle at 360,385 -->
  <!-- Crosshair lines -->
  <line x1="345" y1="385" x2="375" y2="385" stroke="#00e5ff" stroke-width="1.5" opacity="0.8" filter="url(#glow-cyan)"/>
  <line x1="360" y1="370" x2="360" y2="400" stroke="#00e5ff" stroke-width="1.5" opacity="0.8" filter="url(#glow-cyan)"/>
  <circle cx="360" cy="385" r="8" fill="none" stroke="#00e5ff" stroke-width="1.5" opacity="0.8" filter="url(#glow-cyan)"/>
  <circle cx="360" cy="385" r="4" fill="#00e5ff" opacity="0.6" filter="url(#glow-cyan)"/>
  <text x="370" y="372" font-family="monospace" font-size="6.5" fill="#00e5ff" opacity="0.7">QUERY VECTOR</text>
  <text x="370" y="381" font-family="monospace" font-size="6" fill="#00e5ff" opacity="0.5">cos sim: 1.000</text>

  <!-- Dense results right side -->
  <text x="490" y="300" font-family="monospace" font-size="7.5" fill="#00e5ff" opacity="0.65" letter-spacing="1">TOP-5 RESULTS</text>
  <line x1="490" y1="304" x2="710" y2="304" stroke="#00e5ff" stroke-width="0.4" opacity="0.3"/>

  <text x="490" y="322" font-family="monospace" font-size="7.5" fill="#00e5ff" opacity="0.85">doc_0041 · 0.934</text>
  <rect x="490" y="325" width="86" height="3" rx="1.5" fill="#00e5ff" opacity="0.5"/>

  <text x="490" y="340" font-family="monospace" font-size="7.5" fill="#00e5ff" opacity="0.72">doc_0009 · 0.891</text>
  <rect x="490" y="343" width="72" height="3" rx="1.5" fill="#00e5ff" opacity="0.4"/>

  <text x="490" y="358" font-family="monospace" font-size="7.5" fill="#00e5ff" opacity="0.6">doc_0017 · 0.847</text>
  <rect x="490" y="361" width="60" height="3" rx="1.5" fill="#00e5ff" opacity="0.32"/>

  <text x="490" y="376" font-family="monospace" font-size="7.5" fill="#00e5ff" opacity="0.5">doc_0033 · 0.812</text>
  <rect x="490" y="379" width="50" height="3" rx="1.5" fill="#00e5ff" opacity="0.25"/>

  <text x="490" y="394" font-family="monospace" font-size="7.5" fill="#00e5ff" opacity="0.4">doc_0071 · 0.779</text>
  <rect x="490" y="397" width="40" height="3" rx="1.5" fill="#00e5ff" opacity="0.2"/>

  <!-- ===== RIGHT PANEL: RANKED RESULTS ===== -->
  <rect x="720" y="0" width="180" height="500" fill="#030810" stroke="#8855ff" stroke-width="0.8" opacity="0.5"/>
  <line x1="720" y1="0" x2="720" y2="500" stroke="#8855ff" stroke-width="1" opacity="0.4"/>

  <text x="810" y="24" font-family="monospace" font-size="7" fill="#8855ff" text-anchor="middle" letter-spacing="2" opacity="0.8">MERGED RANKS</text>
  <line x1="730" y1="30" x2="890" y2="30" stroke="#8855ff" stroke-width="0.5" opacity="0.3"/>

  <!-- Rank Row 1 -->
  <rect x="728" y="38" width="154" height="72" rx="3" fill="#0a0618" stroke="#ffe000" stroke-width="0.8" opacity="0.8"/>
  <circle cx="748" cy="55" r="12" fill="#ffe000" opacity="0.18"/>
  <circle cx="748" cy="55" r="12" fill="none" stroke="#ffe000" stroke-width="1.2" filter="url(#glow-yellow)"/>
  <text x="748" y="59" font-family="monospace" font-size="9" fill="#ffe000" text-anchor="middle" font-weight="bold">#1</text>
  <text x="764" y="50" font-family="monospace" font-size="7.5" fill="#ffffff" opacity="0.8">doc_0041</text>
  <text x="764" y="61" font-family="monospace" font-size="6.5" fill="#ffe000" opacity="0.7">RRF: 0.0324</text>
  <rect x="764" y="65" width="108" height="4" rx="2" fill="url(#rrf-bar-1)" opacity="0.9"/>
  <text x="736" y="88" font-family="monospace" font-size="5.5" fill="#ffffff" opacity="0.4">...dense retrieval latency at p99...</text>
  <text x="736" y="97" font-family="monospace" font-size="5.5" fill="#ffffff" opacity="0.4">...benchmark configuration...</text>

  <!-- Rank Row 2 -->
  <rect x="728" y="118" width="154" height="72" rx="3" fill="#080516" stroke="#8855ff" stroke-width="0.8" opacity="0.7"/>
  <circle cx="748" cy="135" r="11" fill="#8855ff" opacity="0.15"/>
  <circle cx="748" cy="135" r="11" fill="none" stroke="#8855ff" stroke-width="1.2"/>
  <text x="748" y="139" font-family="monospace" font-size="9" fill="#8855ff" text-anchor="middle" font-weight="bold">#2</text>
  <text x="764" y="130" font-family="monospace" font-size="7.5" fill="#ffffff" opacity="0.75">doc_0009</text>
  <text x="764" y="141" font-family="monospace" font-size="6.5" fill="#8855ff" opacity="0.65">RRF: 0.0298</text>
  <rect x="764" y="145" width="92" height="4" rx="2" fill="#8855ff" opacity="0.6"/>
  <text x="736" y="168" font-family="monospace" font-size="5.5" fill="#ffffff" opacity="0.38">...embedding model benchmarks...</text>
  <text x="736" y="177" font-family="monospace" font-size="5.5" fill="#ffffff" opacity="0.38">...vector distance metrics...</text>

  <!-- Rank Row 3 -->
  <rect x="728" y="198" width="154" height="72" rx="3" fill="#060412" stroke="#00e5ff" stroke-width="0.8" opacity="0.65"/>
  <circle cx="748" cy="215" r="10" fill="#00e5ff" opacity="0.12"/>
  <circle cx="748" cy="215" r="10" fill="none" stroke="#00e5ff" stroke-width="1"/>
  <text x="748" y="219" font-family="monospace" font-size="9" fill="#00e5ff" text-anchor="middle" font-weight="bold">#3</text>
  <text x="764" y="210" font-family="monospace" font-size="7.5" fill="#ffffff" opacity="0.7">doc_0017</text>
  <text x="764" y="221" font-family="monospace" font-size="6.5" fill="#00e5ff" opacity="0.6">RRF: 0.0274</text>
  <rect x="764" y="225" width="76" height="4" rx="2" fill="#00e5ff" opacity="0.5"/>
  <text x="736" y="248" font-family="monospace" font-size="5.5" fill="#ffffff" opacity="0.35">...retrieval augmented generation...</text>
  <text x="736" y="257" font-family="monospace" font-size="5.5" fill="#ffffff" opacity="0.35">...chunking strategy analysis...</text>

  <!-- Rank Row 4 -->
  <rect x="728" y="278" width="154" height="72" rx="3" fill="#050311" stroke="#ff0055" stroke-width="0.8" opacity="0.55"/>
  <circle cx="748" cy="295" r="9" fill="#ff0055" opacity="0.1"/>
  <circle cx="748" cy="295" r="9" fill="none" stroke="#ff0055" stroke-width="0.8"/>
  <text x="748" y="299" font-family="monospace" font-size="8.5" fill="#ff0055" text-anchor="middle" font-weight="bold">#4</text>
  <text x="764" y="290" font-family="monospace" font-size="7.5" fill="#ffffff" opacity="0.62">doc_0033</text>
  <text x="764" y="301" font-family="monospace" font-size="6.5" fill="#ff0055" opacity="0.55">RRF: 0.0251</text>
  <rect x="764" y="305" width="60" height="4" rx="2" fill="#ff0055" opacity="0.4"/>
  <text x="736" y="328" font-family="monospace" font-size="5.5" fill="#ffffff" opacity="0.3">...hybrid search results merged...</text>
  <text x="736" y="337" font-family="monospace" font-size="5.5" fill="#ffffff" opacity="0.3">...reciprocal rank fusion score...</text>

  <!-- Rank Row 5 -->
  <rect x="728" y="358" width="154" height="72" rx="3" fill="#040210" stroke="#00ff88" stroke-width="0.8" opacity="0.5"/>
  <circle cx="748" cy="375" r="8" fill="#00ff88" opacity="0.08"/>
  <circle cx="748" cy="375" r="8" fill="none" stroke="#00ff88" stroke-width="0.8"/>
  <text x="748" y="379" font-family="monospace" font-size="8.5" fill="#00ff88" text-anchor="middle" font-weight="bold">#5</text>
  <text x="764" y="370" font-family="monospace" font-size="7.5" fill="#ffffff" opacity="0.55">doc_0062</text>
  <text x="764" y="381" font-family="monospace" font-size="6.5" fill="#00ff88" opacity="0.5">RRF: 0.0228</text>
  <rect x="764" y="385" width="46" height="4" rx="2" fill="#00ff88" opacity="0.35"/>
  <text x="736" y="408" font-family="monospace" font-size="5.5" fill="#ffffff" opacity="0.27">...semantic similarity threshold...</text>
  <text x="736" y="417" font-family="monospace" font-size="5.5" fill="#ffffff" opacity="0.27">...top-k retrieval optimization...</text>

  <!-- ===== TITLE TOP-LEFT ===== -->
  <rect x="0" y="0" width="720" height="52" fill="#040810" opacity="0.7"/>
  <line x1="0" y1="52" x2="720" y2="52" stroke="#ff0055" stroke-width="1" opacity="0.4"/>
  <text x="22" y="28" font-family="monospace" font-size="13" fill="#ffffff" letter-spacing="2" font-weight="bold">HYBRID RETRIEVAL ENGINE</text>
  <text x="22" y="44" font-family="monospace" font-size="7.5" fill="#8855ff" opacity="0.65" letter-spacing="1">BM25 SPARSE · DENSE VECTOR · RECIPROCAL RANK FUSION</text>

  <!-- Top-right corner decoration -->
  <line x1="862" y1="440" x2="895" y2="440" stroke="#8855ff" stroke-width="0.8" opacity="0.4"/>
  <line x1="895" y1="440" x2="895" y2="490" stroke="#8855ff" stroke-width="0.8" opacity="0.4"/>
  <text x="890" y="455" font-family="monospace" font-size="6" fill="#8855ff" text-anchor="end" opacity="0.4">v2.1.0</text>
  <text x="890" y="467" font-family="monospace" font-size="6" fill="#8855ff" text-anchor="end" opacity="0.4">HYBRID</text>
  <text x="890" y="479" font-family="monospace" font-size="6" fill="#8855ff" text-anchor="end" opacity="0.4">SEARCH</text>

  <!-- Bottom stats strip -->
  <rect x="0" y="455" width="720" height="45" fill="#040810" opacity="0.85"/>
  <line x1="0" y1="455" x2="720" y2="455" stroke="#8855ff" stroke-width="0.5" opacity="0.25"/>

  <rect x="22" y="462" width="100" height="26" rx="3" fill="#040e1a" stroke="#ff0055" stroke-width="0.7"/>
  <text x="72" y="472" font-family="monospace" font-size="6" fill="#ff0055" text-anchor="middle" opacity="0.65">BM25 corpus</text>
  <text x="72" y="483" font-family="monospace" font-size="8" fill="#ff0055" text-anchor="middle">18,429 docs</text>

  <rect x="132" y="462" width="100" height="26" rx="3" fill="#040e1a" stroke="#00e5ff" stroke-width="0.7"/>
  <text x="182" y="472" font-family="monospace" font-size="6" fill="#00e5ff" text-anchor="middle" opacity="0.65">vector index</text>
  <text x="182" y="483" font-family="monospace" font-size="8" fill="#00e5ff" text-anchor="middle">1536d HNSW</text>

  <rect x="242" y="462" width="100" height="26" rx="3" fill="#040e1a" stroke="#8855ff" stroke-width="0.7"/>
  <text x="292" y="472" font-family="monospace" font-size="6" fill="#8855ff" text-anchor="middle" opacity="0.65">fusion latency</text>
  <text x="292" y="483" font-family="monospace" font-size="8" fill="#8855ff" text-anchor="middle">p99: 187ms</text>

  <rect x="352" y="462" width="100" height="26" rx="3" fill="#040e1a" stroke="#ffe000" stroke-width="0.7"/>
  <text x="402" y="472" font-family="monospace" font-size="6" fill="#ffe000" text-anchor="middle" opacity="0.65">top-k retrieved</text>
  <text x="402" y="483" font-family="monospace" font-size="8" fill="#ffe000" text-anchor="middle">k=5 / 20 pool</text>

  <rect x="462" y="462" width="100" height="26" rx="3" fill="#040e1a" stroke="#00ff88" stroke-width="0.7"/>
  <text x="512" y="472" font-family="monospace" font-size="6" fill="#00ff88" text-anchor="middle" opacity="0.65">RRF precision</text>
  <text x="512" y="483" font-family="monospace" font-size="8" fill="#00ff88" text-anchor="middle">MRR@5: 0.91</text>
</svg>
