<svg xmlns="http://www.w3.org/2000/svg" width="900" height="500" viewBox="0 0 900 500">
  <defs>
    <filter id="glow-cyan" x="-50%" y="-50%" width="200%" height="200%">
      <feGaussianBlur stdDeviation="3" result="blur"/>
      <feMerge><feMergeNode in="blur"/><feMergeNode in="blur"/><feMergeNode in="SourceGraphic"/></feMerge>
    </filter>
    <filter id="glow-pink" x="-50%" y="-50%" width="200%" height="200%">
      <feGaussianBlur stdDeviation="4" result="blur"/>
      <feMerge><feMergeNode in="blur"/><feMergeNode in="blur"/><feMergeNode in="SourceGraphic"/></feMerge>
    </filter>
    <filter id="glow-green" x="-50%" y="-50%" width="200%" height="200%">
      <feGaussianBlur stdDeviation="3" result="blur"/>
      <feMerge><feMergeNode in="blur"/><feMergeNode in="blur"/><feMergeNode in="SourceGraphic"/></feMerge>
    </filter>
    <filter id="glow-soft" x="-100%" y="-100%" width="300%" height="300%">
      <feGaussianBlur stdDeviation="8" result="blur"/>
      <feMerge><feMergeNode in="blur"/><feMergeNode in="SourceGraphic"/></feMerge>
    </filter>
    <filter id="glow-hard" x="-80%" y="-80%" width="260%" height="260%">
      <feGaussianBlur stdDeviation="14" result="blur"/>
      <feMerge><feMergeNode in="blur"/><feMergeNode in="blur"/><feMergeNode in="SourceGraphic"/></feMerge>
    </filter>
    <linearGradient id="bg-grad" x1="0%" y1="0%" x2="100%" y2="100%">
      <stop offset="0%" stop-color="#040a12"/>
      <stop offset="50%" stop-color="#060d18"/>
      <stop offset="100%" stop-color="#040a12"/>
    </linearGradient>
    <linearGradient id="stream1" x1="0%" y1="0%" x2="100%" y2="0%">
      <stop offset="0%" stop-color="#ff0055" stop-opacity="0.8"/>
      <stop offset="50%" stop-color="#8855ff" stop-opacity="0.6"/>
      <stop offset="100%" stop-color="#00e5ff" stop-opacity="0.8"/>
    </linearGradient>
    <linearGradient id="stream2" x1="0%" y1="0%" x2="100%" y2="0%">
      <stop offset="0%" stop-color="#00e5ff" stop-opacity="0.7"/>
      <stop offset="100%" stop-color="#8855ff" stop-opacity="0.7"/>
    </linearGradient>
    <linearGradient id="stream3" x1="0%" y1="0%" x2="100%" y2="0%">
      <stop offset="0%" stop-color="#8855ff" stop-opacity="0.7"/>
      <stop offset="100%" stop-color="#00ff88" stop-opacity="0.7"/>
    </linearGradient>
    <radialGradient id="hex-halo" cx="50%" cy="50%" r="50%">
      <stop offset="0%" stop-color="#8855ff" stop-opacity="0.35"/>
      <stop offset="60%" stop-color="#8855ff" stop-opacity="0.08"/>
      <stop offset="100%" stop-color="#8855ff" stop-opacity="0"/>
    </radialGradient>
    <radialGradient id="doc-glow-pink" cx="50%" cy="50%" r="50%">
      <stop offset="0%" stop-color="#ff0055" stop-opacity="0.18"/>
      <stop offset="100%" stop-color="#ff0055" stop-opacity="0"/>
    </radialGradient>
    <radialGradient id="cluster-glow-cyan" cx="50%" cy="50%" r="50%">
      <stop offset="0%" stop-color="#00e5ff" stop-opacity="0.18"/>
      <stop offset="100%" stop-color="#00e5ff" stop-opacity="0"/>
    </radialGradient>
    <linearGradient id="chunker-grad" x1="0%" y1="0%" x2="0%" y2="100%">
      <stop offset="0%" stop-color="#0a1828"/>
      <stop offset="100%" stop-color="#060e1a"/>
    </linearGradient>
  </defs>

  <!-- Background -->
  <rect width="900" height="500" fill="url(#bg-grad)"/>

  <!-- Subtle grid -->
  <g opacity="0.04" stroke="#00e5ff" stroke-width="0.5">
    <line x1="0" y1="80" x2="900" y2="80"/>
    <line x1="0" y1="160" x2="900" y2="160"/>
    <line x1="0" y1="240" x2="900" y2="240"/>
    <line x1="0" y1="320" x2="900" y2="320"/>
    <line x1="0" y1="400" x2="900" y2="400"/>
    <line x1="200" y1="0" x2="200" y2="500"/>
    <line x1="450" y1="0" x2="450" y2="500"/>
    <line x1="650" y1="0" x2="650" y2="500"/>
  </g>

  <!-- Top stage bar -->
  <rect x="0" y="0" width="900" height="32" fill="#040e1c" opacity="0.85"/>
  <line x1="0" y1="32" x2="900" y2="32" stroke="#00e5ff" stroke-width="0.5" opacity="0.3"/>

  <text x="100" y="21" font-family="monospace" font-size="10" fill="#ff0055" letter-spacing="3" text-anchor="middle" filter="url(#glow-pink)">PARSE</text>
  <line x1="55" y1="16" x2="80" y2="16" stroke="#ff0055" stroke-width="0.5" opacity="0.5"/>
  <line x1="120" y1="16" x2="147" y2="16" stroke="#ff0055" stroke-width="0.5" opacity="0.5"/>

  <text x="320" y="21" font-family="monospace" font-size="10" fill="#ffe000" letter-spacing="3" text-anchor="middle" filter="url(#glow-soft)">CHUNK</text>
  <line x1="265" y1="16" x2="292" y2="16" stroke="#ffe000" stroke-width="0.5" opacity="0.5"/>
  <line x1="349" y1="16" x2="375" y2="16" stroke="#ffe000" stroke-width="0.5" opacity="0.5"/>

  <text x="545" y="21" font-family="monospace" font-size="10" fill="#8855ff" letter-spacing="3" text-anchor="middle" filter="url(#glow-soft)">EMBED</text>
  <line x1="490" y1="16" x2="517" y2="16" stroke="#8855ff" stroke-width="0.5" opacity="0.5"/>
  <line x1="573" y1="16" x2="600" y2="16" stroke="#8855ff" stroke-width="0.5" opacity="0.5"/>

  <text x="775" y="21" font-family="monospace" font-size="10" fill="#00ff88" letter-spacing="3" text-anchor="middle" filter="url(#glow-green)">INDEX</text>
  <line x1="720" y1="16" x2="747" y2="16" stroke="#00ff88" stroke-width="0.5" opacity="0.5"/>
  <line x1="803" y1="16" x2="830" y2="16" stroke="#00ff88" stroke-width="0.5" opacity="0.5"/>

  <!-- ===== ZONE 1: DOCUMENT CARDS ===== -->
  <ellipse cx="105" cy="255" rx="85" ry="100" fill="url(#doc-glow-pink)" filter="url(#glow-soft)"/>

  <!-- TXT card — back, rotated right -->
  <g transform="rotate(10,120,265)">
    <rect x="75" y="200" width="90" height="115" rx="4" fill="#0d0820" stroke="#8855ff" stroke-width="1.2" opacity="0.8"/>
    <rect x="75" y="200" width="90" height="18" rx="4" fill="#8855ff" opacity="0.22"/>
    <text x="120" y="213" font-family="monospace" font-size="7" fill="#8855ff" text-anchor="middle">.TXT</text>
    <line x1="84" y1="229" x2="155" y2="229" stroke="#8855ff" stroke-width="0.8" opacity="0.45"/>
    <line x1="84" y1="238" x2="148" y2="238" stroke="#8855ff" stroke-width="0.8" opacity="0.45"/>
    <line x1="84" y1="247" x2="155" y2="247" stroke="#8855ff" stroke-width="0.8" opacity="0.45"/>
    <line x1="84" y1="256" x2="140" y2="256" stroke="#8855ff" stroke-width="0.8" opacity="0.45"/>
    <line x1="84" y1="265" x2="155" y2="265" stroke="#8855ff" stroke-width="0.8" opacity="0.45"/>
    <line x1="84" y1="274" x2="130" y2="274" stroke="#8855ff" stroke-width="0.8" opacity="0.45"/>
    <line x1="84" y1="283" x2="155" y2="283" stroke="#8855ff" stroke-width="0.8" opacity="0.45"/>
    <line x1="84" y1="292" x2="145" y2="292" stroke="#8855ff" stroke-width="0.8" opacity="0.45"/>
    <line x1="84" y1="301" x2="155" y2="301" stroke="#8855ff" stroke-width="0.8" opacity="0.45"/>
  </g>

  <!-- DOCX card — middle, slight tilt left -->
  <g transform="rotate(-5,105,262)">
    <rect x="60" y="195" width="90" height="115" rx="4" fill="#030f1e" stroke="#00e5ff" stroke-width="1.5" opacity="0.88"/>
    <rect x="60" y="195" width="90" height="18" rx="4" fill="#00e5ff" opacity="0.18"/>
    <text x="105" y="208" font-family="monospace" font-size="7" fill="#00e5ff" text-anchor="middle">.DOCX</text>
    <line x1="69" y1="222" x2="140" y2="222" stroke="#00e5ff" stroke-width="0.8" opacity="0.55"/>
    <line x1="69" y1="231" x2="130" y2="231" stroke="#00e5ff" stroke-width="0.8" opacity="0.55"/>
    <line x1="69" y1="240" x2="140" y2="240" stroke="#00e5ff" stroke-width="0.8" opacity="0.55"/>
    <line x1="69" y1="249" x2="125" y2="249" stroke="#00e5ff" stroke-width="0.8" opacity="0.55"/>
    <line x1="69" y1="258" x2="140" y2="258" stroke="#00e5ff" stroke-width="0.8" opacity="0.55"/>
    <line x1="69" y1="267" x2="135" y2="267" stroke="#00e5ff" stroke-width="0.8" opacity="0.55"/>
    <line x1="69" y1="276" x2="140" y2="276" stroke="#00e5ff" stroke-width="0.8" opacity="0.55"/>
    <line x1="69" y1="285" x2="120" y2="285" stroke="#00e5ff" stroke-width="0.8" opacity="0.55"/>
    <line x1="69" y1="294" x2="140" y2="294" stroke="#00e5ff" stroke-width="0.8" opacity="0.55"/>
  </g>

  <!-- PDF card — front, pink glow -->
  <g transform="rotate(4,95,258)">
    <rect x="45" y="190" width="90" height="115" rx="4" fill="#0a0418" stroke="#ff0055" stroke-width="1.8" filter="url(#glow-pink)"/>
    <rect x="45" y="190" width="90" height="20" rx="4" fill="#ff0055" opacity="0.28"/>
    <text x="90" y="204" font-family="monospace" font-size="8" fill="#ff0055" text-anchor="middle" font-weight="bold">.PDF</text>
    <line x1="54" y1="220" x2="126" y2="220" stroke="#ff0055" stroke-width="1" opacity="0.65"/>
    <line x1="54" y1="230" x2="118" y2="230" stroke="#ff0055" stroke-width="1" opacity="0.65"/>
    <line x1="54" y1="240" x2="126" y2="240" stroke="#ff0055" stroke-width="1" opacity="0.65"/>
    <line x1="54" y1="250" x2="112" y2="250" stroke="#ff0055" stroke-width="1" opacity="0.65"/>
    <line x1="54" y1="260" x2="126" y2="260" stroke="#ff0055" stroke-width="1" opacity="0.65"/>
    <line x1="54" y1="270" x2="120" y2="270" stroke="#ff0055" stroke-width="1" opacity="0.65"/>
    <line x1="54" y1="280" x2="126" y2="280" stroke="#ff0055" stroke-width="1" opacity="0.65"/>
    <line x1="54" y1="290" x2="115" y2="290" stroke="#ff0055" stroke-width="1" opacity="0.65"/>
    <line x1="54" y1="300" x2="126" y2="300" stroke="#ff0055" stroke-width="1" opacity="0.65"/>
  </g>

  <rect x="50" y="340" width="110" height="22" rx="11" fill="#ff0055" opacity="0.12" stroke="#ff0055" stroke-width="0.8"/>
  <text x="105" y="355" font-family="monospace" font-size="9" fill="#ff0055" text-anchor="middle">3 SOURCE FILES</text>

  <!-- ===== STREAM 1: Docs to Chunker ===== -->
  <path d="M 165,240 C 200,230 220,252 258,252" stroke="url(#stream1)" stroke-width="1.5" fill="none" opacity="0.7"/>
  <path d="M 165,262 C 202,263 220,265 258,265" stroke="url(#stream1)" stroke-width="1.5" fill="none" opacity="0.7"/>
  <path d="M 165,282 C 200,288 222,278 258,278" stroke="url(#stream1)" stroke-width="1.5" fill="none" opacity="0.7"/>
  <circle cx="193" cy="235" r="3" fill="#ff0055" filter="url(#glow-pink)" opacity="0.9"/>
  <circle cx="215" cy="263" r="2.5" fill="#00e5ff" filter="url(#glow-cyan)" opacity="0.9"/>
  <circle cx="238" cy="279" r="2" fill="#8855ff" filter="url(#glow-soft)" opacity="0.9"/>
  <circle cx="177" cy="269" r="1.5" fill="#ff0055" opacity="0.7"/>
  <circle cx="249" cy="253" r="2" fill="#00e5ff" opacity="0.7"/>

  <!-- ===== ZONE 2: CHUNKER ===== -->
  <rect x="258" y="140" width="118" height="225" rx="3" fill="url(#chunker-grad)" stroke="#ffe000" stroke-width="1" opacity="0.9"/>
  <rect x="263" y="145" width="9" height="215" fill="#ff0055" opacity="0.11"/>
  <rect x="274" y="145" width="9" height="215" fill="#8855ff" opacity="0.09"/>
  <rect x="285" y="145" width="9" height="215" fill="#00e5ff" opacity="0.11"/>
  <rect x="296" y="145" width="9" height="215" fill="#ffe000" opacity="0.08"/>
  <rect x="307" y="145" width="9" height="215" fill="#ff0055" opacity="0.10"/>
  <rect x="318" y="145" width="9" height="215" fill="#00ff88" opacity="0.08"/>
  <rect x="329" y="145" width="9" height="215" fill="#8855ff" opacity="0.11"/>
  <rect x="340" y="145" width="9" height="215" fill="#00e5ff" opacity="0.09"/>
  <rect x="351" y="145" width="9" height="215" fill="#ffe000" opacity="0.10"/>
  <rect x="362" y="145" width="9" height="215" fill="#ff0055" opacity="0.08"/>

  <rect x="258" y="140" width="118" height="20" rx="3" fill="#ffe000" opacity="0.16"/>
  <text x="317" y="154" font-family="monospace" font-size="8" fill="#ffe000" text-anchor="middle" letter-spacing="1">CHUNKER</text>

  <line x1="258" y1="183" x2="376" y2="183" stroke="#ffe000" stroke-width="1.5" opacity="0.85" filter="url(#glow-soft)"/>
  <text x="380" y="187" font-family="monospace" font-size="7" fill="#ffe000" opacity="0.75">chunk_001 384t</text>
  <line x1="258" y1="214" x2="376" y2="214" stroke="#00e5ff" stroke-width="1.2" opacity="0.75" filter="url(#glow-cyan)"/>
  <text x="380" y="218" font-family="monospace" font-size="7" fill="#00e5ff" opacity="0.75">chunk_002 391t</text>
  <line x1="258" y1="245" x2="376" y2="245" stroke="#ff0055" stroke-width="1.2" opacity="0.75" filter="url(#glow-pink)"/>
  <text x="380" y="249" font-family="monospace" font-size="7" fill="#ff0055" opacity="0.75">chunk_003 378t</text>
  <line x1="258" y1="276" x2="376" y2="276" stroke="#8855ff" stroke-width="1.2" opacity="0.75"/>
  <text x="380" y="280" font-family="monospace" font-size="7" fill="#8855ff" opacity="0.75">chunk_004 402t</text>
  <line x1="258" y1="307" x2="376" y2="307" stroke="#ffe000" stroke-width="1.5" opacity="0.85" filter="url(#glow-soft)"/>
  <text x="380" y="311" font-family="monospace" font-size="7" fill="#ffe000" opacity="0.75">chunk_005 367t</text>
  <line x1="258" y1="338" x2="376" y2="338" stroke="#00ff88" stroke-width="1.2" opacity="0.75" filter="url(#glow-green)"/>
  <text x="380" y="342" font-family="monospace" font-size="7" fill="#00ff88" opacity="0.75">chunk_006 388t</text>

  <text x="317" y="360" font-family="monospace" font-size="7" fill="#ffe000" text-anchor="middle" opacity="0.55">512 tok max / 64 overlap</text>

  <!-- ===== STREAM 2: Chunker to Embed ===== -->
  <path d="M 452,230 C 470,228 482,224 510,224" stroke="url(#stream2)" stroke-width="1.5" fill="none" opacity="0.8"/>
  <path d="M 452,253 C 476,253 487,253 510,253" stroke="url(#stream2)" stroke-width="1.5" fill="none" opacity="0.8"/>
  <path d="M 452,278 C 473,279 483,280 510,274" stroke="url(#stream2)" stroke-width="1.5" fill="none" opacity="0.8"/>
  <circle cx="466" cy="231" r="3" fill="#00e5ff" filter="url(#glow-cyan)" opacity="0.9"/>
  <circle cx="489" cy="253" r="2.5" fill="#8855ff" filter="url(#glow-soft)" opacity="0.9"/>
  <circle cx="501" cy="278" r="2" fill="#00e5ff" opacity="0.8"/>
  <circle cx="477" cy="257" r="1.5" fill="#ffe000" opacity="0.7"/>

  <!-- ===== ZONE 3: HEX EMBEDDING NODE ===== -->
  <circle cx="545" cy="230" r="80" fill="url(#hex-halo)" filter="url(#glow-hard)" opacity="0.55"/>
  <circle cx="545" cy="230" r="70" fill="none" stroke="#8855ff" stroke-width="0.5" opacity="0.28"/>
  <circle cx="545" cy="230" r="57" fill="none" stroke="#8855ff" stroke-width="0.5" opacity="0.2"/>
  <circle cx="545" cy="230" r="44" fill="none" stroke="#8855ff" stroke-width="0.5" opacity="0.18"/>

  <!-- Hex shell -->
  <polygon points="545,162 609,199 609,269 545,306 481,269 481,199" fill="#070a18" stroke="#8855ff" stroke-width="2" filter="url(#glow-soft)" opacity="0.95"/>
  <polygon points="545,174 597,204 597,261 545,291 493,261 493,204" fill="none" stroke="#8855ff" stroke-width="0.8" opacity="0.38"/>
  <polygon points="545,188 582,211 582,254 545,277 508,254 508,211" fill="none" stroke="#8855ff" stroke-width="0.6" opacity="0.28"/>

  <!-- Inner rings -->
  <circle cx="545" cy="230" r="30" fill="none" stroke="#8855ff" stroke-width="1" opacity="0.48"/>
  <circle cx="545" cy="230" r="18" fill="none" stroke="#8855ff" stroke-width="1.5" opacity="0.58"/>
  <circle cx="545" cy="230" r="7" fill="#8855ff" opacity="0.38" filter="url(#glow-soft)"/>

  <!-- Labels -->
  <text x="545" y="221" font-family="monospace" font-size="6.5" fill="#8855ff" text-anchor="middle" opacity="0.92">text-embedding-3-large</text>
  <text x="545" y="233" font-family="monospace" font-size="8" fill="#c4a4ff" text-anchor="middle" font-weight="bold">1536d</text>
  <text x="545" y="244" font-family="monospace" font-size="5.5" fill="#8855ff" text-anchor="middle" opacity="0.58">OpenAI · ADA-3</text>

  <!-- Vertex orbit dots -->
  <circle cx="545" cy="162" r="5" fill="#00e5ff" filter="url(#glow-cyan)"/>
  <circle cx="609" cy="199" r="5" fill="#ff0055" filter="url(#glow-pink)"/>
  <circle cx="609" cy="269" r="5" fill="#8855ff" filter="url(#glow-soft)"/>
  <circle cx="545" cy="306" r="5" fill="#00ff88" filter="url(#glow-green)"/>
  <circle cx="481" cy="269" r="5" fill="#ffe000" filter="url(#glow-soft)"/>
  <circle cx="481" cy="199" r="5" fill="#00e5ff" filter="url(#glow-cyan)"/>

  <!-- ===== STREAM 3: Embed to Index ===== -->
  <path d="M 612,208 C 634,208 645,214 660,220" stroke="url(#stream3)" stroke-width="1.5" fill="none" opacity="0.8"/>
  <path d="M 612,230 C 638,230 648,237 662,241" stroke="url(#stream3)" stroke-width="1.5" fill="none" opacity="0.8"/>
  <path d="M 612,258 C 635,261 645,263 660,267" stroke="url(#stream3)" stroke-width="1.5" fill="none" opacity="0.8"/>
  <circle cx="628" cy="211" r="3" fill="#8855ff" filter="url(#glow-soft)" opacity="0.9"/>
  <circle cx="645" cy="234" r="2.5" fill="#00ff88" filter="url(#glow-green)" opacity="0.9"/>
  <circle cx="655" cy="262" r="2" fill="#8855ff" opacity="0.8"/>

  <!-- ===== ZONE 4: VECTOR INDEX ===== -->
  <rect x="655" y="122" width="228" height="235" rx="4" fill="#04090f" stroke="#00ff88" stroke-width="0.8" opacity="0.7"/>
  <rect x="655" y="122" width="228" height="18" rx="4" fill="#00ff88" opacity="0.09"/>
  <text x="769" y="135" font-family="monospace" font-size="7" fill="#00ff88" text-anchor="middle" letter-spacing="1" opacity="0.9">VECTOR SPACE</text>

  <line x1="668" y1="238" x2="870" y2="238" stroke="#00ff88" stroke-width="0.4" opacity="0.18"/>
  <line x1="769" y1="148" x2="769" y2="348" stroke="#00ff88" stroke-width="0.4" opacity="0.18"/>

  <!-- Cyan cluster: technical -->
  <ellipse cx="822" cy="183" rx="28" ry="22" fill="url(#cluster-glow-cyan)" opacity="0.75"/>
  <circle cx="810" cy="178" r="3.5" fill="#00e5ff" filter="url(#glow-cyan)" opacity="0.9"/>
  <circle cx="820" cy="173" r="3" fill="#00e5ff" opacity="0.85"/>
  <circle cx="830" cy="181" r="3.5" fill="#00e5ff" filter="url(#glow-cyan)" opacity="0.9"/>
  <circle cx="817" cy="190" r="2.5" fill="#00e5ff" opacity="0.8"/>
  <circle cx="827" cy="192" r="3" fill="#00e5ff" opacity="0.85"/>
  <circle cx="837" cy="177" r="2.5" fill="#00e5ff" opacity="0.8"/>
  <circle cx="814" cy="199" r="2" fill="#00e5ff" opacity="0.7"/>
  <circle cx="834" cy="196" r="2.5" fill="#00e5ff" opacity="0.75"/>
  <circle cx="842" cy="186" r="2" fill="#00e5ff" opacity="0.7"/>
  <text x="822" y="216" font-family="monospace" font-size="7" fill="#00e5ff" text-anchor="middle" opacity="0.8">technical</text>

  <!-- Pink cluster: financial -->
  <circle cx="700" cy="174" r="3.5" fill="#ff0055" filter="url(#glow-pink)" opacity="0.9"/>
  <circle cx="712" cy="167" r="3" fill="#ff0055" opacity="0.85"/>
  <circle cx="724" cy="177" r="3.5" fill="#ff0055" filter="url(#glow-pink)" opacity="0.9"/>
  <circle cx="710" cy="185" r="2.5" fill="#ff0055" opacity="0.8"/>
  <circle cx="720" cy="191" r="3" fill="#ff0055" opacity="0.85"/>
  <circle cx="732" cy="169" r="2.5" fill="#ff0055" opacity="0.8"/>
  <circle cx="697" cy="184" r="2" fill="#ff0055" opacity="0.7"/>
  <circle cx="728" cy="188" r="2" fill="#ff0055" opacity="0.7"/>
  <text x="713" y="208" font-family="monospace" font-size="7" fill="#ff0055" text-anchor="middle" opacity="0.8">financial</text>

  <!-- Purple cluster: legal -->
  <circle cx="697" cy="298" r="3.5" fill="#8855ff" filter="url(#glow-soft)" opacity="0.9"/>
  <circle cx="709" cy="290" r="3" fill="#8855ff" opacity="0.85"/>
  <circle cx="720" cy="300" r="3.5" fill="#8855ff" filter="url(#glow-soft)" opacity="0.9"/>
  <circle cx="705" cy="308" r="2.5" fill="#8855ff" opacity="0.8"/>
  <circle cx="718" cy="312" r="3" fill="#8855ff" opacity="0.85"/>
  <circle cx="728" cy="294" r="2.5" fill="#8855ff" opacity="0.8"/>
  <circle cx="702" cy="285" r="2" fill="#8855ff" opacity="0.7"/>
  <circle cx="730" cy="306" r="2" fill="#8855ff" opacity="0.7"/>
  <circle cx="690" cy="307" r="2.5" fill="#8855ff" opacity="0.75"/>
  <text x="710" y="328" font-family="monospace" font-size="7" fill="#8855ff" text-anchor="middle" opacity="0.8">legal</text>

  <!-- Green cluster: hr -->
  <circle cx="822" cy="298" r="3.5" fill="#00ff88" filter="url(#glow-green)" opacity="0.9"/>
  <circle cx="834" cy="290" r="3" fill="#00ff88" opacity="0.85"/>
  <circle cx="844" cy="302" r="3.5" fill="#00ff88" filter="url(#glow-green)" opacity="0.9"/>
  <circle cx="830" cy="310" r="2.5" fill="#00ff88" opacity="0.8"/>
  <circle cx="842" cy="313" r="3" fill="#00ff88" opacity="0.85"/>
  <circle cx="852" cy="294" r="2.5" fill="#00ff88" opacity="0.8"/>
  <circle cx="817" cy="308" r="2" fill="#00ff88" opacity="0.7"/>
  <circle cx="857" cy="305" r="2" fill="#00ff88" opacity="0.7"/>
  <text x="837" y="330" font-family="monospace" font-size="7" fill="#00ff88" text-anchor="middle" opacity="0.8">hr</text>

  <!-- Scattered lone dots -->
  <circle cx="754" cy="162" r="1.5" fill="#ffe000" opacity="0.55"/>
  <circle cx="782" cy="220" r="1.5" fill="#00e5ff" opacity="0.5"/>
  <circle cx="747" cy="270" r="1.5" fill="#ff0055" opacity="0.5"/>
  <circle cx="802" cy="255" r="1.5" fill="#8855ff" opacity="0.55"/>
  <circle cx="760" cy="305" r="1.5" fill="#ffe000" opacity="0.5"/>
  <circle cx="862" cy="232" r="1.5" fill="#00ff88" opacity="0.5"/>

  <!-- Vector count badge -->
  <rect x="686" y="346" width="170" height="22" rx="3" fill="#00ff88" opacity="0.09" stroke="#00ff88" stroke-width="0.8"/>
  <circle cx="699" cy="357" r="3" fill="#00ff88" filter="url(#glow-green)"/>
  <text x="780" y="361" font-family="monospace" font-size="9" fill="#00ff88" text-anchor="middle">18,429 vectors stored</text>

  <!-- ===== BOTTOM TITLE BADGE ===== -->
  <rect x="22" y="453" width="264" height="32" rx="4" fill="#040e1a" stroke="#00ff88" stroke-width="1"/>
  <circle cx="37" cy="469" r="4" fill="#00ff88" filter="url(#glow-green)"/>
  <circle cx="37" cy="469" r="7" fill="none" stroke="#00ff88" stroke-width="0.8" opacity="0.4"/>
  <text x="50" y="463" font-family="monospace" font-size="6.5" fill="#00ff88" opacity="0.65">LIVE</text>
  <text x="50" y="476" font-family="monospace" font-size="10" fill="#ffffff" letter-spacing="1">PDF INGESTION PIPELINE</text>

  <!-- Bottom stats -->
  <rect x="322" y="456" width="96" height="24" rx="3" fill="#040e1a" stroke="#ffe000" stroke-width="0.7" opacity="0.8"/>
  <text x="370" y="466" font-family="monospace" font-size="6" fill="#ffe000" text-anchor="middle" opacity="0.75">throughput</text>
  <text x="370" y="477" font-family="monospace" font-size="8" fill="#ffe000" text-anchor="middle">142 chunks/s</text>

  <rect x="426" y="456" width="96" height="24" rx="3" fill="#040e1a" stroke="#8855ff" stroke-width="0.7" opacity="0.8"/>
  <text x="474" y="466" font-family="monospace" font-size="6" fill="#8855ff" text-anchor="middle" opacity="0.75">embed latency</text>
  <text x="474" y="477" font-family="monospace" font-size="8" fill="#8855ff" text-anchor="middle">p50: 38ms</text>

  <rect x="530" y="456" width="96" height="24" rx="3" fill="#040e1a" stroke="#00e5ff" stroke-width="0.7" opacity="0.8"/>
  <text x="578" y="466" font-family="monospace" font-size="6" fill="#00e5ff" text-anchor="middle" opacity="0.75">dimensions</text>
  <text x="578" y="477" font-family="monospace" font-size="8" fill="#00e5ff" text-anchor="middle">1536-d float32</text>

  <!-- Top-right corner decoration -->
  <line x1="862" y1="40" x2="893" y2="40" stroke="#00e5ff" stroke-width="0.8" opacity="0.45"/>
  <line x1="893" y1="40" x2="893" y2="72" stroke="#00e5ff" stroke-width="0.8" opacity="0.45"/>
  <text x="888" y="54" font-family="monospace" font-size="6" fill="#00e5ff" text-anchor="end" opacity="0.45">v2.1.0</text>
  <text x="888" y="66" font-family="monospace" font-size="6" fill="#00e5ff" text-anchor="end" opacity="0.45">RAG·SYS</text>
</svg>
