<svg xmlns="http://www.w3.org/2000/svg" viewBox="0 0 900 500" width="900" height="500" font-family="'SF Mono','Fira Mono','Consolas',monospace">
  <defs>
    <filter id="as1"><feDropShadow dx="0" dy="1" stdDeviation="2" flood-color="#1a2535" flood-opacity="0.09"/></filter>
    <filter id="as2"><feDropShadow dx="0" dy="2" stdDeviation="4" flood-color="#1a2535" flood-opacity="0.07"/></filter>
    <pattern id="adots" x="0" y="0" width="30" height="30" patternUnits="userSpaceOnUse">
      <circle cx="15" cy="15" r="0.8" fill="#d0daea"/>
    </pattern>
    <linearGradient id="redspike" x1="0" y1="0" x2="0" y2="1">
      <stop offset="0%" stop-color="#ef4444" stop-opacity="0.18"/>
      <stop offset="100%" stop-color="#ef4444" stop-opacity="0.02"/>
    </linearGradient>
    <linearGradient id="amberspike" x1="0" y1="0" x2="0" y2="1">
      <stop offset="0%" stop-color="#f59e0b" stop-opacity="0.16"/>
      <stop offset="100%" stop-color="#f59e0b" stop-opacity="0.02"/>
    </linearGradient>
  </defs>

  <!-- Background -->
  <rect width="900" height="500" fill="#f7f9fc"/>
  <rect width="900" height="500" fill="url(#adots)"/>

  <!-- Header bar -->
  <rect x="0" y="0" width="900" height="34" fill="#eef2f8"/>
  <rect x="0" y="33" width="900" height="1" fill="#e4eaf3"/>
  <text x="16" y="21" font-size="11" font-weight="700" fill="#1a2535" letter-spacing="1.2">REAL-TIME ANOMALY DETECTION</text>
  <text x="884" y="21" font-size="10" fill="#8aa0b8" text-anchor="end">Live · us-east-1 · Last 12h</text>

  <!-- ── LEFT: ANOMALY TIMELINE PANEL ── -->
  <rect x="18" y="46" width="548" height="310" rx="6" fill="white" filter="url(#as2)"/>
  <text x="34" y="65" font-size="8.5" fill="#4a6080" font-weight="700" letter-spacing="1">SPEND TIMELINE · TODAY</text>

  <!-- Chart area: x 46–548, y 78–318 -->
  <!-- Y-axis labels: $0=318, $2K=271, $4K=224, $6K=177, $8K=130 -->
  <text x="42" y="133" font-size="7.5" fill="#8aa0b8" text-anchor="end">$8K</text>
  <text x="42" y="180" font-size="7.5" fill="#8aa0b8" text-anchor="end">$6K</text>
  <text x="42" y="227" font-size="7.5" fill="#8aa0b8" text-anchor="end">$4K</text>
  <text x="42" y="274" font-size="7.5" fill="#8aa0b8" text-anchor="end">$2K</text>
  <text x="42" y="321" font-size="7.5" fill="#8aa0b8" text-anchor="end">$0</text>

  <!-- Horizontal grid lines -->
  <line x1="46" y1="130" x2="548" y2="130" stroke="#e4eaf3" stroke-width="0.7"/>
  <line x1="46" y1="177" x2="548" y2="177" stroke="#e4eaf3" stroke-width="0.7"/>
  <line x1="46" y1="224" x2="548" y2="224" stroke="#e4eaf3" stroke-width="0.7"/>
  <line x1="46" y1="271" x2="548" y2="271" stroke="#e4eaf3" stroke-width="0.7"/>
  <line x1="46" y1="318" x2="548" y2="318" stroke="#e4eaf3" stroke-width="0.9"/>

  <!-- Normal band (light green, between $1K=295 and $3K=248) -->
  <rect x="46" y="248" width="502" height="47" fill="#f0fdf4" opacity="0.85"/>
  <line x1="46" y1="248" x2="548" y2="248" stroke="#10b981" stroke-width="0.8" stroke-dasharray="4,3" opacity="0.5"/>
  <line x1="46" y1="295" x2="548" y2="295" stroke="#10b981" stroke-width="0.8" stroke-dasharray="4,3" opacity="0.5"/>
  <text x="52" y="244" font-size="7" fill="#10b981" opacity="0.8">normal range</text>

  <!-- Baseline / expected spend dashed line at $2K (y=271) -->
  <line x1="46" y1="271" x2="548" y2="271" stroke="#8aa0b8" stroke-width="1.2" stroke-dasharray="6,3" opacity="0.6"/>
  <text x="52" y="268" font-size="7" fill="#8aa0b8">expected spend</text>

  <!-- X-axis hours: 06:00=72, 08:00=143, 10:00=214, 12:00=285, 14:00=356, 16:00=427, 18:00=548 -->
  <!-- Spaced at 72px from x=72 -->
  <text x="72"  y="332" font-size="7.5" fill="#4a6080" text-anchor="middle">06:00</text>
  <text x="143" y="332" font-size="7.5" fill="#4a6080" text-anchor="middle">08:00</text>
  <text x="214" y="332" font-size="7.5" fill="#4a6080" text-anchor="middle">10:00</text>
  <text x="285" y="332" font-size="7.5" fill="#4a6080" text-anchor="middle">12:00</text>
  <text x="356" y="332" font-size="7.5" fill="#4a6080" text-anchor="middle">14:00</text>
  <text x="427" y="332" font-size="7.5" fill="#4a6080" text-anchor="middle">16:00</text>
  <text x="498" y="332" font-size="7.5" fill="#4a6080" text-anchor="middle">18:00</text>

  <!-- Spend line: mostly near baseline y=271, with 3 anomaly spikes -->
  <!-- Spike 1 (minor amber): at x=214, apex y=212 (~$3.8K) -->
  <!-- Spike 2 (moderate amber): at x=356, apex y=177 (~$6K) -->
  <!-- Spike 3 (severe red): at x=427, apex y=118 (~$8.6K) -->

  <!-- Red spike area fill -->
  <path d="M402 271 L427 118 L452 271 Z" fill="url(#redspike)"/>
  <!-- Amber spike 1 area fill -->
  <path d="M198 271 L214 212 L230 271 Z" fill="url(#amberspike)"/>
  <!-- Amber spike 2 area fill -->
  <path d="M336 271 L356 210 L376 271 Z" fill="url(#amberspike)"/>

  <!-- Main spend polyline (follows baseline with spikes) -->
  <polyline
    points="46,271 72,269 100,272 130,270 143,268 160,271 180,270 198,271 214,212 230,271 250,269 270,272 285,270 300,271 320,270 336,271 356,210 376,271 395,270 402,271 427,118 452,271 470,270 490,271 510,272 520,271 548,270"
    fill="none" stroke="#2563eb" stroke-width="2" stroke-linecap="round" stroke-linejoin="round"/>

  <!-- Spike 1 apex: minor amber at x=214, y=212 -->
  <line x1="214" y1="212" x2="214" y2="271" stroke="#f59e0b" stroke-width="1" stroke-dasharray="2,2" opacity="0.7"/>
  <circle cx="214" cy="212" r="5" fill="#f59e0b"/>
  <rect x="218" y="195" width="82" height="26" rx="4" fill="white" filter="url(#as1)"/>
  <rect x="218" y="195" width="3" height="26" rx="2" fill="#f59e0b"/>
  <text x="226" y="207" font-size="7.5" fill="#1a2535" font-weight="700">Lambda +$1,840</text>
  <text x="226" y="218" font-size="6.5" fill="#8aa0b8">10:14 · Minor</text>

  <!-- Spike 2 apex: moderate amber at x=356, y=210 -->
  <line x1="356" y1="210" x2="356" y2="271" stroke="#f59e0b" stroke-width="1" stroke-dasharray="2,2" opacity="0.7"/>
  <circle cx="356" cy="210" r="5" fill="#f59e0b"/>
  <rect x="268" y="188" width="82" height="26" rx="4" fill="white" filter="url(#as1)"/>
  <rect x="268" y="188" width="3" height="26" rx="2" fill="#f59e0b"/>
  <text x="276" y="200" font-size="7.5" fill="#1a2535" font-weight="700">RDS +$3,200</text>
  <text x="276" y="211" font-size="6.5" fill="#8aa0b8">14:02 · Moderate</text>

  <!-- Spike 3 apex: severe red at x=427, y=118 -->
  <line x1="427" y1="118" x2="427" y2="271" stroke="#ef4444" stroke-width="1.2" stroke-dasharray="2,2" opacity="0.7"/>
  <circle cx="427" cy="118" r="6.5" fill="#ef4444"/>
  <circle cx="427" cy="118" r="10" fill="#ef4444" opacity="0.15"/>
  <rect x="434" y="96" width="94" height="28" rx="4" fill="white" filter="url(#as1)"/>
  <rect x="434" y="96" width="3" height="28" rx="2" fill="#ef4444"/>
  <text x="442" y="109" font-size="7.5" fill="#1a2535" font-weight="700">EC2 +$6,420</text>
  <text x="442" y="120" font-size="6.5" fill="#ef4444" font-weight="700">16:07 · CRITICAL</text>

  <!-- ── RIGHT: HEATMAP PANEL ── -->
  <rect x="574" y="46" width="308" height="310" rx="6" fill="white" filter="url(#as2)"/>
  <text x="590" y="65" font-size="8.5" fill="#4a6080" font-weight="700" letter-spacing="1">SPEND HEATMAP</text>

  <!-- Column headers (time slots) -->
  <text x="648" y="82" font-size="7.5" fill="#8aa0b8" text-anchor="middle">10am</text>
  <text x="696" y="82" font-size="7.5" fill="#8aa0b8" text-anchor="middle">11am</text>
  <text x="744" y="82" font-size="7.5" fill="#8aa0b8" text-anchor="middle">12pm</text>
  <text x="792" y="82" font-size="7.5" fill="#8aa0b8" text-anchor="middle">1pm</text>
  <text x="840" y="82" font-size="7.5" fill="#8aa0b8" text-anchor="middle">2pm</text>

  <!-- Row labels -->
  <text x="630" y="105" font-size="7.5" fill="#4a6080" text-anchor="end">EC2</text>
  <text x="630" y="141" font-size="7.5" fill="#4a6080" text-anchor="end">RDS</text>
  <text x="630" y="177" font-size="7.5" fill="#4a6080" text-anchor="end">S3</text>
  <text x="630" y="213" font-size="7.5" fill="#4a6080" text-anchor="end">Lambda</text>
  <text x="630" y="249" font-size="7.5" fill="#4a6080" text-anchor="end">CloudFront</text>
  <text x="630" y="285" font-size="7.5" fill="#4a6080" text-anchor="end">ElastiCache</text>

  <!-- Heatmap cells (col x starts: 624,672,720,768,816; row y starts: 88,124,160,196,232,268; each 44x32) -->
  <!-- EC2 row -->
  <rect x="624" y="88" width="44" height="28" rx="2" fill="#fef9ec"/>
  <rect x="672" y="88" width="44" height="28" rx="2" fill="#fde68a"/>
  <rect x="720" y="88" width="44" height="28" rx="2" fill="#fbbf24"/>
  <rect x="768" y="88" width="44" height="28" rx="2" fill="#ef4444" stroke="#dc2626" stroke-width="1.5"/>
  <rect x="816" y="88" width="44" height="28" rx="2" fill="#f97316" stroke="#ea580c" stroke-width="1.5"/>

  <!-- RDS row -->
  <rect x="624" y="124" width="44" height="28" rx="2" fill="#fef9ec"/>
  <rect x="672" y="124" width="44" height="28" rx="2" fill="#fef9ec"/>
  <rect x="720" y="124" width="44" height="28" rx="2" fill="#fde68a"/>
  <rect x="768" y="124" width="44" height="28" rx="2" fill="#fbbf24"/>
  <rect x="816" y="124" width="44" height="28" rx="2" fill="#ef4444" stroke="#dc2626" stroke-width="1.5"/>

  <!-- S3 row -->
  <rect x="624" y="160" width="44" height="28" rx="2" fill="#f0fdf4"/>
  <rect x="672" y="160" width="44" height="28" rx="2" fill="#f0fdf4"/>
  <rect x="720" y="160" width="44" height="28" rx="2" fill="#fef9ec"/>
  <rect x="768" y="160" width="44" height="28" rx="2" fill="#fef9ec"/>
  <rect x="816" y="160" width="44" height="28" rx="2" fill="#fde68a"/>

  <!-- Lambda row -->
  <rect x="624" y="196" width="44" height="28" rx="2" fill="#fde68a"/>
  <rect x="672" y="196" width="44" height="28" rx="2" fill="#fbbf24"/>
  <rect x="720" y="196" width="44" height="28" rx="2" fill="#fef9ec"/>
  <rect x="768" y="196" width="44" height="28" rx="2" fill="#f0fdf4"/>
  <rect x="816" y="196" width="44" height="28" rx="2" fill="#f0fdf4"/>

  <!-- CloudFront row -->
  <rect x="624" y="232" width="44" height="28" rx="2" fill="#f0fdf4"/>
  <rect x="672" y="232" width="44" height="28" rx="2" fill="#fef9ec"/>
  <rect x="720" y="232" width="44" height="28" rx="2" fill="#fef9ec"/>
  <rect x="768" y="232" width="44" height="28" rx="2" fill="#fde68a"/>
  <rect x="816" y="232" width="44" height="28" rx="2" fill="#fef9ec"/>

  <!-- ElastiCache row -->
  <rect x="624" y="268" width="44" height="28" rx="2" fill="#f0fdf4"/>
  <rect x="672" y="268" width="44" height="28" rx="2" fill="#f0fdf4"/>
  <rect x="720" y="268" width="44" height="28" rx="2" fill="#f0fdf4"/>
  <rect x="768" y="268" width="44" height="28" rx="2" fill="#fef9ec"/>
  <rect x="816" y="268" width="44" height="28" rx="2" fill="#fef9ec"/>

  <!-- Cell value text -->
  <text x="646" y="106" font-size="7" fill="#92400e" text-anchor="middle">$480</text>
  <text x="694" y="106" font-size="7" fill="#92400e" text-anchor="middle">$1.2K</text>
  <text x="742" y="106" font-size="7" fill="#92400e" text-anchor="middle">$2.8K</text>
  <text x="790" y="106" font-size="7" fill="white" font-weight="700" text-anchor="middle">$8.4K</text>
  <text x="838" y="106" font-size="7" fill="white" font-weight="700" text-anchor="middle">$6.2K</text>
  <text x="838" y="142" font-size="7" fill="white" font-weight="700" text-anchor="middle">$3.8K</text>

  <!-- Color scale legend -->
  <text x="590" y="314" font-size="7.5" fill="#4a6080">Normal</text>
  <defs>
    <linearGradient id="heatscale" x1="0" y1="0" x2="1" y2="0">
      <stop offset="0%" stop-color="#f0fdf4"/>
      <stop offset="40%" stop-color="#fde68a"/>
      <stop offset="75%" stop-color="#f97316"/>
      <stop offset="100%" stop-color="#ef4444"/>
    </linearGradient>
  </defs>
  <rect x="630" y="304" width="180" height="8" rx="3" fill="url(#heatscale)"/>
  <text x="820" y="314" font-size="7.5" fill="#ef4444" font-weight="700">Critical</text>

  <!-- ── BOTTOM ALERT CARDS ── -->
  <rect x="18" y="366" width="864" height="82" rx="6" fill="white" filter="url(#as2)"/>
  <text x="34" y="382" font-size="8.5" fill="#4a6080" font-weight="700" letter-spacing="1">ACTIVE ALERTS</text>

  <!-- Alert card 1: Minor -->
  <rect x="28" y="390" width="262" height="48" rx="4" fill="#fefce8" filter="url(#as1)"/>
  <rect x="28" y="390" width="4" height="48" rx="2" fill="#f59e0b"/>
  <text x="40" y="404" font-size="8.5" fill="#1a2535" font-weight="700">Lambda · us-east-1</text>
  <text x="40" y="418" font-size="8" fill="#f59e0b" font-weight="700">+$1,840 above baseline</text>
  <text x="40" y="431" font-size="7" fill="#8aa0b8">10:14 · Triggered</text>
  <rect x="220" y="392" width="62" height="14" rx="4" fill="#fde68a"/>
  <text x="251" y="402" font-size="7" fill="#92400e" text-anchor="middle" font-weight="700">Investigating</text>

  <!-- Alert card 2: Moderate -->
  <rect x="302" y="390" width="262" height="48" rx="4" fill="#fefce8" filter="url(#as1)"/>
  <rect x="302" y="390" width="4" height="48" rx="2" fill="#f59e0b"/>
  <text x="314" y="404" font-size="8.5" fill="#1a2535" font-weight="700">RDS · prod-cluster-02</text>
  <text x="314" y="418" font-size="8" fill="#f59e0b" font-weight="700">+$3,200 above baseline</text>
  <text x="314" y="431" font-size="7" fill="#8aa0b8">14:02 · Triggered</text>
  <rect x="492" y="392" width="62" height="14" rx="4" fill="#fde68a"/>
  <text x="523" y="402" font-size="7" fill="#92400e" text-anchor="middle" font-weight="700">Investigating</text>

  <!-- Alert card 3: Critical -->
  <rect x="576" y="390" width="294" height="48" rx="4" fill="#fef2f2" filter="url(#as1)"/>
  <rect x="576" y="390" width="4" height="48" rx="2" fill="#ef4444"/>
  <text x="588" y="404" font-size="8.5" fill="#1a2535" font-weight="700">EC2 · i3.2xlarge fleet ×12</text>
  <text x="588" y="418" font-size="8" fill="#ef4444" font-weight="700">+$6,420 · CRITICAL ANOMALY</text>
  <text x="588" y="431" font-size="7" fill="#8aa0b8">16:07 · Auto-remediation queued</text>
  <rect x="820" y="392" width="42" height="14" rx="4" fill="#fecaca"/>
  <text x="841" y="402" font-size="7" fill="#ef4444" text-anchor="middle" font-weight="700">Active</text>

  <!-- Bottom strip metrics -->
  <rect x="0" y="460" width="900" height="40" fill="#eef2f8"/>
  <rect x="0" y="460" width="900" height="1" fill="#e4eaf3"/>

  <rect x="18" y="469" width="146" height="22" rx="11" fill="white" filter="url(#as1)"/>
  <circle cx="34" cy="480" r="4" fill="#ef4444"/>
  <text x="44" y="484" font-size="9" fill="#1a2535" font-weight="600">3 Anomalies</text>
  <text x="118" y="484" font-size="9" fill="#ef4444" font-weight="700">Active</text>

  <rect x="178" y="469" width="176" height="22" rx="11" fill="white" filter="url(#as1)"/>
  <circle cx="194" cy="480" r="4" fill="#f59e0b"/>
  <text x="204" y="484" font-size="9" fill="#1a2535" font-weight="600">Total Excess Spend</text>
  <text x="316" y="484" font-size="9" fill="#f59e0b" font-weight="700">$11.5K</text>

  <rect x="368" y="469" width="178" height="22" rx="11" fill="white" filter="url(#as1)"/>
  <circle cx="384" cy="480" r="4" fill="#2563eb"/>
  <text x="394" y="484" font-size="9" fill="#1a2535" font-weight="600">Detection Latency</text>
  <text x="506" y="484" font-size="9" fill="#2563eb" font-weight="700">4.2s avg</text>

  <rect x="560" y="469" width="164" height="22" rx="11" fill="white" filter="url(#as1)"/>
  <circle cx="576" cy="480" r="4" fill="#10b981"/>
  <text x="586" y="484" font-size="9" fill="#1a2535" font-weight="600">ML Accuracy</text>
  <text x="670" y="484" font-size="9" fill="#10b981" font-weight="700">98.4%</text>
</svg>
