<svg xmlns="http://www.w3.org/2000/svg" viewBox="0 0 900 500" width="900" height="500" font-family="'SF Mono','Fira Mono','Consolas',monospace">
  <defs>
    <filter id="rs1"><feDropShadow dx="0" dy="1" stdDeviation="2" flood-color="#1a2535" flood-opacity="0.08"/></filter>
    <filter id="rs2"><feDropShadow dx="0" dy="2" stdDeviation="4" flood-color="#1a2535" flood-opacity="0.07"/></filter>
    <pattern id="rdots" x="0" y="0" width="30" height="30" patternUnits="userSpaceOnUse">
      <circle cx="15" cy="15" r="0.8" fill="#d0daea"/>
    </pattern>
  </defs>

  <!-- Background -->
  <rect width="900" height="500" fill="#f7f9fc"/>
  <rect width="900" height="500" fill="url(#rdots)"/>

  <!-- Header bar -->
  <rect x="0" y="0" width="900" height="34" fill="#eef2f8"/>
  <rect x="0" y="33" width="900" height="1" fill="#e4eaf3"/>
  <text x="16" y="21" font-size="11" font-weight="700" fill="#1a2535" letter-spacing="1.2">INFRASTRUCTURE RIGHT-SIZING</text>
  <text x="884" y="21" font-size="10" fill="#8aa0b8" text-anchor="end">47 recommendations · Est. savings $38K/mo</text>

  <!-- ── MAIN SCATTER CHART ── -->
  <rect x="18" y="44" width="606" height="384" rx="6" fill="white" filter="url(#rs2)"/>

  <!-- Quadrant fills -->
  <!-- Chart plot area: x=70→610, y=54→390 -->
  <!-- Midpoint: x=340 (cost $500), y=222 (util 50%) -->
  <!-- Top-left: underutilized (high util, low cost) -->
  <rect x="70" y="54" width="270" height="168" rx="2" fill="#fefce8" opacity="0.7"/>
  <!-- Top-right: optimized (high util, high cost) -->
  <rect x="340" y="54" width="270" height="168" rx="2" fill="#eff6ff" opacity="0.7"/>
  <!-- Bottom-left: terminate candidates (low util, low cost) -->
  <rect x="70" y="222" width="270" height="168" rx="2" fill="#f0fdf4" opacity="0.7"/>
  <!-- Bottom-right: overprovisioned (low util, high cost) -->
  <rect x="340" y="222" width="270" height="168" rx="2" fill="#fef2f2" opacity="0.7"/>

  <!-- Quadrant labels -->
  <text x="82" y="72" font-size="8" fill="#b45309" font-weight="700" letter-spacing="0.5">UNDERUTILIZED</text>
  <text x="82" y="83" font-size="7.5" fill="#b45309" opacity="0.8">(resize)</text>
  <text x="352" y="72" font-size="8" fill="#1d4ed8" font-weight="700" letter-spacing="0.5">OPTIMIZED</text>
  <text x="82" y="238" font-size="8" fill="#15803d" font-weight="700" letter-spacing="0.5">TERMINATE</text>
  <text x="82" y="249" font-size="7.5" fill="#15803d" opacity="0.8">(candidates)</text>
  <text x="352" y="238" font-size="8" fill="#b91c1c" font-weight="700" letter-spacing="0.5">OVERPROVISIONED</text>
  <text x="352" y="249" font-size="7.5" fill="#b91c1c" opacity="0.8">(downsize)</text>

  <!-- Grid lines -->
  <!-- Vertical at x=70,152,234,340,422,510,610 -->
  <line x1="70"  y1="54"  x2="70"  y2="390" stroke="#e4eaf3" stroke-width="0.8"/>
  <line x1="152" y1="54"  x2="152" y2="390" stroke="#e4eaf3" stroke-width="0.8"/>
  <line x1="234" y1="54"  x2="234" y2="390" stroke="#e4eaf3" stroke-width="0.8"/>
  <line x1="340" y1="54"  x2="340" y2="390" stroke="#e4eaf3" stroke-width="1"/>
  <line x1="422" y1="54"  x2="422" y2="390" stroke="#e4eaf3" stroke-width="0.8"/>
  <line x1="510" y1="54"  x2="510" y2="390" stroke="#e4eaf3" stroke-width="0.8"/>
  <line x1="610" y1="54"  x2="610" y2="390" stroke="#e4eaf3" stroke-width="0.8"/>
  <!-- Horizontal at y=54,96,138,222,264,306,390 -->
  <line x1="70" y1="96"  x2="610" y2="96"  stroke="#e4eaf3" stroke-width="0.8"/>
  <line x1="70" y1="138" x2="610" y2="138" stroke="#e4eaf3" stroke-width="0.8"/>
  <line x1="70" y1="222" x2="610" y2="222" stroke="#e4eaf3" stroke-width="1"/>
  <line x1="70" y1="264" x2="610" y2="264" stroke="#e4eaf3" stroke-width="0.8"/>
  <line x1="70" y1="306" x2="610" y2="306" stroke="#e4eaf3" stroke-width="0.8"/>
  <line x1="70" y1="390" x2="610" y2="390" stroke="#e4eaf3" stroke-width="0.9"/>

  <!-- Axis labels -->
  <!-- X-axis: cost 0→1000 mapped to x=70→610 (540px/1000=$0.54/unit) -->
  <text x="70"  y="402" font-size="7.5" fill="#8aa0b8" text-anchor="middle">$0</text>
  <text x="152" y="402" font-size="7.5" fill="#8aa0b8" text-anchor="middle">$200</text>
  <text x="234" y="402" font-size="7.5" fill="#8aa0b8" text-anchor="middle">$400</text>
  <text x="340" y="402" font-size="7.5" fill="#8aa0b8" text-anchor="middle">$600</text>
  <text x="422" y="402" font-size="7.5" fill="#8aa0b8" text-anchor="middle">$800</text>
  <text x="510" y="402" font-size="7.5" fill="#8aa0b8" text-anchor="middle">$1,000</text>
  <text x="340" y="416" font-size="8" fill="#4a6080" text-anchor="middle" letter-spacing="0.5">Monthly Cost ($)</text>

  <!-- Y-axis: util 0→100 mapped to y=390→54 (336px/100=3.36/unit) -->
  <text x="64" y="393" font-size="7.5" fill="#8aa0b8" text-anchor="end">0</text>
  <text x="64" y="309" font-size="7.5" fill="#8aa0b8" text-anchor="end">25</text>
  <text x="64" y="225" font-size="7.5" fill="#8aa0b8" text-anchor="end">50</text>
  <text x="64" y="141" font-size="7.5" fill="#8aa0b8" text-anchor="end">75</text>
  <text x="64" y="57"  font-size="7.5" fill="#8aa0b8" text-anchor="end">100</text>
  <text x="26" y="222" font-size="8" fill="#4a6080" text-anchor="middle" transform="rotate(-90,26,222)" letter-spacing="0.5">CPU Utilization (%)</text>

  <!-- Crosshair "sweet spot" at x=300($430→x=302), y=60%util(y=54+40*3.36=54+134=188) -->
  <!-- Actually target: x=300 cost=$426→x=70+426*0.54=70+230=300; y=60%→y=390-60*3.36=390-202=188 -->
  <line x1="300" y1="54" x2="300" y2="390" stroke="#2563eb" stroke-width="0.8" stroke-dasharray="3,3" opacity="0.4"/>
  <line x1="70" y1="188" x2="610" y2="188" stroke="#2563eb" stroke-width="0.8" stroke-dasharray="3,3" opacity="0.4"/>
  <circle cx="300" cy="188" r="10" fill="none" stroke="#2563eb" stroke-width="1" opacity="0.3"/>
  <circle cx="300" cy="188" r="3" fill="#2563eb" opacity="0.3"/>

  <!-- ── SCATTER BUBBLES ── -->
  <!-- Format: cx=70+(cost*0.54), cy=390-(util*3.36) -->
  <!-- Colors: EC2=#2563eb, RDS=#8b5cf6, Lambda=#10b981, ElastiCache=#f59e0b -->
  <!-- Sizes: small r=5 (2GB), med r=8 (8GB), large r=12 (32GB) -->

  <!-- OPTIMIZED quadrant (top-right: high util, high cost) -->
  <circle cx="380" cy="104" r="8" fill="#2563eb" opacity="0.75"/>
  <circle cx="440" cy="88" r="12" fill="#2563eb" opacity="0.75"/>
  <circle cx="510" cy="118" r="8" fill="#8b5cf6" opacity="0.75"/>
  <circle cx="560" cy="96" r="5" fill="#10b981" opacity="0.75"/>
  <circle cx="480" cy="142" r="5" fill="#2563eb" opacity="0.75"/>
  <circle cx="590" cy="132" r="10" fill="#8b5cf6" opacity="0.75"/>
  <circle cx="420" cy="162" r="6" fill="#10b981" opacity="0.75"/>

  <!-- UNDERUTILIZED quadrant (top-left: high util, low cost) -->
  <circle cx="100" cy="90" r="7" fill="#f59e0b" opacity="0.75"/>
  <circle cx="160" cy="106" r="5" fill="#2563eb" opacity="0.75"/>
  <circle cx="200" cy="78" r="9" fill="#8b5cf6" opacity="0.75"/>
  <circle cx="130" cy="140" r="5" fill="#10b981" opacity="0.75"/>
  <circle cx="240" cy="122" r="6" fill="#f59e0b" opacity="0.75"/>
  <circle cx="280" cy="100" r="8" fill="#2563eb" opacity="0.75"/>

  <!-- TERMINATE quadrant (bottom-left: low util, low cost) -->
  <circle cx="88" cy="300" r="5" fill="#10b981" opacity="0.65"/>
  <circle cx="130" cy="328" r="5" fill="#f59e0b" opacity="0.65"/>
  <circle cx="170" cy="350" r="4" fill="#10b981" opacity="0.65"/>
  <circle cx="100" cy="370" r="5" fill="#2563eb" opacity="0.65"/>
  <circle cx="200" cy="340" r="6" fill="#8b5cf6" opacity="0.65"/>
  <circle cx="230" cy="370" r="4" fill="#f59e0b" opacity="0.65"/>

  <!-- OVERPROVISIONED quadrant (bottom-right: low util, high cost) — highlighted with red ring -->
  <circle cx="400" cy="340" r="12" fill="none" stroke="#ef4444" stroke-width="2.5" opacity="0.7"/>
  <circle cx="400" cy="340" r="9" fill="#2563eb" opacity="0.7"/>

  <circle cx="460" cy="310" r="15" fill="none" stroke="#ef4444" stroke-width="2.5" opacity="0.7"/>
  <circle cx="460" cy="310" r="12" fill="#2563eb" opacity="0.7"/>

  <circle cx="530" cy="356" r="8" fill="none" stroke="#ef4444" stroke-width="2.5" opacity="0.7"/>
  <circle cx="530" cy="356" r="5" fill="#8b5cf6" opacity="0.7"/>

  <circle cx="570" cy="300" r="11" fill="none" stroke="#ef4444" stroke-width="2.5" opacity="0.7"/>
  <circle cx="570" cy="300" r="8" fill="#2563eb" opacity="0.7"/>

  <circle cx="490" cy="368" r="7" fill="none" stroke="#ef4444" stroke-width="2.5" opacity="0.7"/>
  <circle cx="490" cy="368" r="4" fill="#8b5cf6" opacity="0.7"/>

  <circle cx="600" cy="330" r="10" fill="none" stroke="#ef4444" stroke-width="2.5" opacity="0.7"/>
  <circle cx="600" cy="330" r="7" fill="#2563eb" opacity="0.7"/>

  <!-- Legend box -->
  <rect x="74" y="422" width="220" height="14" rx="3" fill="white" filter="url(#rs1)"/>
  <circle cx="86" cy="429" r="5" fill="#2563eb" opacity="0.8"/>
  <text x="95" y="433" font-size="7" fill="#4a6080">EC2</text>
  <circle cx="124" cy="429" r="5" fill="#8b5cf6" opacity="0.8"/>
  <text x="133" y="433" font-size="7" fill="#4a6080">RDS</text>
  <circle cx="160" cy="429" r="5" fill="#10b981" opacity="0.8"/>
  <text x="169" y="433" font-size="7" fill="#4a6080">Lambda</text>
  <circle cx="212" cy="429" r="5" fill="#f59e0b" opacity="0.8"/>
  <text x="221" y="433" font-size="7" fill="#4a6080">ElastiCache</text>
  <text x="300" y="433" font-size="7" fill="#8aa0b8">bubble size = memory</text>

  <!-- ── RIGHT PANEL: PR LIST ── -->
  <rect x="632" y="44" width="252" height="384" rx="6" fill="white" filter="url(#rs2)"/>

  <!-- Panel title -->
  <text x="648" y="65" font-size="8.5" fill="#4a6080" font-weight="700" letter-spacing="1">OPEN PRs</text>
  <rect x="710" y="54" width="28" height="16" rx="5" fill="#dcfce7"/>
  <text x="724" y="65" font-size="8.5" fill="#10b981" font-weight="700" text-anchor="middle">12</text>

  <!-- PR Card 1 -->
  <rect x="640" y="76" width="236" height="56" rx="4" fill="#f7f9fc" filter="url(#rs1)"/>
  <rect x="640" y="76" width="3" height="56" rx="2" fill="#10b981"/>
  <text x="652" y="90" font-size="7.5" fill="#1a2535" font-weight="700">Downsize i3.2xlarge → i3.xlarge</text>
  <text x="652" y="103" font-size="7" fill="#8aa0b8">prod-worker-01 · us-east-1</text>
  <text x="652" y="116" font-size="7" fill="#4a6080">vCPU 8→4  RAM 61GB→30GB</text>
  <text x="652" y="127" font-size="8" fill="#10b981" font-weight="700">$840/mo</text>
  <rect x="822" y="122" width="46" height="12" rx="4" fill="#dcfce7"/>
  <text x="845" y="131" font-size="6.5" fill="#10b981" text-anchor="middle" font-weight="700">Open</text>

  <!-- PR Card 2 -->
  <rect x="640" y="140" width="236" height="56" rx="4" fill="#f7f9fc" filter="url(#rs1)"/>
  <rect x="640" y="140" width="3" height="56" rx="2" fill="#10b981"/>
  <text x="652" y="154" font-size="7.5" fill="#1a2535" font-weight="700">Terminate idle r5.xlarge ×3</text>
  <text x="652" y="167" font-size="7" fill="#8aa0b8">staging cluster · us-west-2</text>
  <text x="652" y="180" font-size="7" fill="#4a6080">4 vCPU  32GB  avg util 3%</text>
  <text x="652" y="191" font-size="8" fill="#10b981" font-weight="700">$1,260/mo</text>
  <rect x="820" y="186" width="52" height="12" rx="4" fill="#bbf7d0"/>
  <text x="846" y="195" font-size="6.5" fill="#166534" text-anchor="middle" font-weight="700">Merged</text>

  <!-- PR Card 3 -->
  <rect x="640" y="204" width="236" height="56" rx="4" fill="#f7f9fc" filter="url(#rs1)"/>
  <rect x="640" y="204" width="3" height="56" rx="2" fill="#10b981"/>
  <text x="652" y="218" font-size="7.5" fill="#1a2535" font-weight="700">RDS db.r6g.4xlarge → 2xlarge</text>
  <text x="652" y="231" font-size="7" fill="#8aa0b8">analytics-db · eu-west-1</text>
  <text x="652" y="244" font-size="7" fill="#4a6080">16 vCPU→8  RAM 128→64GB</text>
  <text x="652" y="255" font-size="8" fill="#10b981" font-weight="700">$2,100/mo</text>
  <rect x="822" y="250" width="46" height="12" rx="4" fill="#dcfce7"/>
  <text x="845" y="259" font-size="6.5" fill="#10b981" text-anchor="middle" font-weight="700">Open</text>

  <!-- PR Card 4 -->
  <rect x="640" y="268" width="236" height="56" rx="4" fill="#f7f9fc" filter="url(#rs1)"/>
  <rect x="640" y="268" width="3" height="56" rx="2" fill="#f59e0b"/>
  <text x="652" y="282" font-size="7.5" fill="#1a2535" font-weight="700">ElastiCache r6g.large → medium</text>
  <text x="652" y="295" font-size="7" fill="#8aa0b8">cache-cluster-05 · us-east-1</text>
  <text x="652" y="308" font-size="7" fill="#4a6080">2 vCPU→1  RAM 6.4→3.2GB</text>
  <text x="652" y="319" font-size="8" fill="#f59e0b" font-weight="700">$380/mo</text>
  <rect x="822" y="314" width="46" height="12" rx="4" fill="#dcfce7"/>
  <text x="845" y="323" font-size="6.5" fill="#10b981" text-anchor="middle" font-weight="700">Open</text>

  <!-- PR Card 5 -->
  <rect x="640" y="332" width="236" height="56" rx="4" fill="#f7f9fc" filter="url(#rs1)"/>
  <rect x="640" y="332" width="3" height="56" rx="2" fill="#10b981"/>
  <text x="652" y="346" font-size="7.5" fill="#1a2535" font-weight="700">Lambda 3008MB → 512MB ×18</text>
  <text x="652" y="359" font-size="7" fill="#8aa0b8">event-processors · multi-region</text>
  <text x="652" y="372" font-size="7" fill="#4a6080">mem 3008→512  p99 lat ok</text>
  <text x="652" y="383" font-size="8" fill="#10b981" font-weight="700">$640/mo</text>
  <rect x="822" y="378" width="46" height="12" rx="4" fill="#dcfce7"/>
  <text x="845" y="387" font-size="6.5" fill="#10b981" text-anchor="middle" font-weight="700">Open</text>

  <!-- Total savings callout -->
  <rect x="632" y="436" width="252" height="0" rx="4" fill="none"/>
  <line x1="640" y1="435" x2="876" y2="435" stroke="#e4eaf3" stroke-width="1"/>
  <text x="648" y="450" font-size="8" fill="#4a6080">Total estimated savings</text>
  <text x="870" y="450" font-size="14" fill="#10b981" font-weight="700" text-anchor="end">$38,200/mo</text>

  <!-- ── BOTTOM METRIC CHIPS ── -->
  <rect x="0" y="460" width="900" height="40" fill="#eef2f8"/>
  <rect x="0" y="460" width="900" height="1" fill="#e4eaf3"/>

  <rect x="18" y="469" width="182" height="22" rx="11" fill="white" filter="url(#rs1)"/>
  <circle cx="34" cy="480" r="4" fill="#2563eb"/>
  <text x="44" y="484" font-size="9" fill="#1a2535" font-weight="600">Analyzed</text>
  <text x="116" y="484" font-size="9" fill="#2563eb" font-weight="700">284 resources</text>

  <rect x="212" y="469" width="174" height="22" rx="11" fill="white" filter="url(#rs1)"/>
  <circle cx="228" cy="480" r="4" fill="#f59e0b"/>
  <text x="238" y="484" font-size="9" fill="#1a2535" font-weight="600">Recommendations</text>
  <text x="362" y="484" font-size="9" fill="#f59e0b" font-weight="700">47</text>

  <rect x="398" y="469" width="136" height="22" rx="11" fill="white" filter="url(#rs1)"/>
  <circle cx="414" cy="480" r="4" fill="#10b981"/>
  <text x="424" y="484" font-size="9" fill="#1a2535" font-weight="600">PRs Open</text>
  <text x="494" y="484" font-size="9" fill="#10b981" font-weight="700">12</text>

  <rect x="546" y="469" width="184" height="22" rx="11" fill="white" filter="url(#rs1)"/>
  <circle cx="562" cy="480" r="4" fill="#8b5cf6"/>
  <text x="572" y="484" font-size="9" fill="#1a2535" font-weight="600">Avg Utilization</text>
  <text x="682" y="484" font-size="9" fill="#8b5cf6" font-weight="700">34%</text>
</svg>
