<svg xmlns="http://www.w3.org/2000/svg" viewBox="0 0 1600 900" role="img" aria-labelledby="title desc">
  <title id="title">Rightsize PR</title>
  <desc id="desc">Infrastructure optimizations proposed as pull requests</desc>
  <defs>
    <linearGradient id="bgD" x1="0" y1="0" x2="1" y2="1">
      <stop offset="0%" stop-color="#101015"/>
      <stop offset="100%" stop-color="#1d2029"/>
    </linearGradient>
    <linearGradient id="sunD" x1="0" y1="0" x2="1" y2="0">
      <stop offset="0%" stop-color="#fb923c"/>
      <stop offset="100%" stop-color="#facc15"/>
    </linearGradient>
    <linearGradient id="tealD" x1="0" y1="0" x2="1" y2="0">
      <stop offset="0%" stop-color="#22d3ee"/>
      <stop offset="100%" stop-color="#10b981"/>
    </linearGradient>
  </defs>
  <rect width="1600" height="900" fill="url(#bgD)"/>
  <rect x="52" y="52" width="1496" height="796" rx="20" fill="#171b24" stroke="#2f3643"/>
  <rect x="52" y="52" width="1496" height="3" fill="url(#sunD)"/>

  <text x="110" y="126" fill="#f7cf9f" font-family="Arial, sans-serif" font-size="30">Rightsize PR</text>
  <text x="110" y="164" fill="#9ba5b4" font-family="Arial, sans-serif" font-size="20">Infrastructure optimizations proposed as pull requests</text>

  <rect x="110" y="210" width="330" height="130" rx="12" fill="#232a37" stroke="#394252"/>
  <rect x="460" y="210" width="330" height="130" rx="12" fill="#232a37" stroke="#394252"/>
  <rect x="810" y="210" width="330" height="130" rx="12" fill="#232a37" stroke="#394252"/>
  <rect x="1160" y="210" width="330" height="130" rx="12" fill="#232a37" stroke="#394252"/>
  <text x="140" y="258" fill="#bfc8d7" font-family="Arial, sans-serif" font-size="18">Cloud Spend</text>
  <text x="140" y="308" fill="#fb923c" font-family="Arial, sans-serif" font-size="36">$2.9M</text>
  <text x="490" y="258" fill="#bfc8d7" font-family="Arial, sans-serif" font-size="18">Savings Pipeline</text>
  <text x="490" y="308" fill="#22d3ee" font-family="Arial, sans-serif" font-size="36">$740K</text>
  <text x="840" y="258" fill="#bfc8d7" font-family="Arial, sans-serif" font-size="18">Anomalies</text>
  <text x="840" y="308" fill="#facc15" font-family="Arial, sans-serif" font-size="36">17</text>
  <text x="1190" y="258" fill="#bfc8d7" font-family="Arial, sans-serif" font-size="18">Policy Score</text>
  <text x="1190" y="308" fill="#10b981" font-family="Arial, sans-serif" font-size="36">98.7%</text>

  <rect x="110" y="370" width="920" height="420" rx="14" fill="#202735" stroke="#394252"/>
  <text x="146" y="420" fill="#d2dae7" font-family="Arial, sans-serif" font-size="24">Spend Trajectory</text>
  <polyline points="150,740 230,700 310,710 390,670 470,680 550,640 630,650 710,600 790,620 870,560 950,580" fill="none" stroke="url(#sunD)" stroke-width="6"/>
  <polyline points="150,760 230,748 310,730 390,736 470,710 550,700 630,690 710,672 790,680 870,648 950,640" fill="none" stroke="url(#tealD)" stroke-width="5"/>
  <g fill="#394252">
    <rect x="160" y="448" width="36" height="260"/>
    <rect x="218" y="500" width="36" height="208"/>
    <rect x="276" y="470" width="36" height="238"/>
    <rect x="334" y="530" width="36" height="178"/>
    <rect x="392" y="488" width="36" height="220"/>
  </g>

  <rect x="1060" y="370" width="430" height="200" rx="14" fill="#202735" stroke="#394252"/>
  <text x="1096" y="420" fill="#d2dae7" font-family="Arial, sans-serif" font-size="24">Portfolio Split</text>
  <circle cx="1210" cy="500" r="64" fill="none" stroke="#2f3745" stroke-width="26"/>
  <path d="M1210 436 A64 64 0 1 1 1165 550" fill="none" stroke="#fb923c" stroke-width="26"/>
  <path d="M1165 550 A64 64 0 0 1 1210 436" fill="none" stroke="#22d3ee" stroke-width="26"/>
  <text x="1292" y="505" fill="#c8d1de" font-family="Arial, sans-serif" font-size="20">Compute 62%</text>
  <text x="1292" y="535" fill="#c8d1de" font-family="Arial, sans-serif" font-size="20">Storage 24%</text>
  <text x="1292" y="565" fill="#c8d1de" font-family="Arial, sans-serif" font-size="20">Network 14%</text>

  <rect x="1060" y="590" width="430" height="200" rx="14" fill="#202735" stroke="#394252"/>
  <text x="1096" y="650" fill="#f9ddb6" font-family="Arial, sans-serif" font-size="24">Merged PRs: 128</text>
  <text x="1096" y="700" fill="#b7c2d2" font-family="Arial, sans-serif" font-size="22">Average cost cut: 22%</text>

  <text x="110" y="820" fill="#6b7585" font-family="Arial, sans-serif" font-size="20">FinOps Analytics Visual System</text>
</svg>
