<svg xmlns="http://www.w3.org/2000/svg" width="900" height="500" viewBox="0 0 900 500">
  <defs>
    <radialGradient id="bgM" cx="50%" cy="50%" r="75%">
      <stop offset="0%" stop-color="#0d1220"/>
      <stop offset="100%" stop-color="#020408"/>
    </radialGradient>
    <filter id="glowCell" x="-20%" y="-20%" width="140%" height="140%">
      <feGaussianBlur stdDeviation="3" result="blur"/>
      <feMerge><feMergeNode in="blur"/><feMergeNode in="SourceGraphic"/></feMerge>
    </filter>
    <filter id="glowRing" x="-40%" y="-40%" width="180%" height="180%">
      <feGaussianBlur stdDeviation="5" result="blur"/>
      <feMerge><feMergeNode in="blur"/><feMergeNode in="SourceGraphic"/></feMerge>
    </filter>
    <!-- Color interpolation for matrix cells: dark red → amber → emerald -->
    <!-- Encoded as inline fill per cell -->
  </defs>

  <rect width="900" height="500" fill="url(#bgM)"/>

  <!-- Subtle horizontal scan lines -->
  <g stroke="#94a3b8" stroke-opacity="0.015" stroke-width="1">
    <line x1="0" y1="50" x2="900" y2="50"/>
    <line x1="0" y1="100" x2="900" y2="100"/>
    <line x1="0" y1="150" x2="900" y2="150"/>
    <line x1="0" y1="200" x2="900" y2="200"/>
    <line x1="0" y1="250" x2="900" y2="250"/>
    <line x1="0" y1="300" x2="900" y2="300"/>
    <line x1="0" y1="350" x2="900" y2="350"/>
    <line x1="0" y1="400" x2="900" y2="400"/>
    <line x1="0" y1="450" x2="900" y2="450"/>
  </g>

  <!-- ===== HEADER ===== -->
  <text x="450" y="26" font-family="'Inter', sans-serif" font-size="13" font-weight="700" fill="#e2e8f0" text-anchor="middle" letter-spacing="2">CANDIDATE × ROLE MATCH MATRIX</text>
  <text x="450" y="42" font-family="'Inter', sans-serif" font-size="9" fill="#475569" text-anchor="middle" letter-spacing="0.5">4 candidates · 5 roles · semantic + graph matching</text>
  <line x1="160" y1="50" x2="740" y2="50" stroke="#1e293b" stroke-width="1"/>

  <!-- ===== LEFT SIDEBAR: Candidate Profile Chips ===== -->
  <!-- J. Rivera -->
  <rect x="16" y="90" width="148" height="46" rx="7" fill="#111827" stroke="#1e293b" stroke-width="1"/>
  <circle cx="40" cy="113" r="14" fill="#6366f1"/>
  <text x="40" y="117" font-family="'Inter', sans-serif" font-size="10" font-weight="700" fill="#e2e8f0" text-anchor="middle">JR</text>
  <text x="62" y="107" font-family="'Inter', sans-serif" font-size="9.5" font-weight="600" fill="#e2e8f0">J. Rivera</text>
  <text x="62" y="121" font-family="'Inter', sans-serif" font-size="8" fill="#94a3b8">18 skills matched</text>
  <rect x="140" y="107" width="18" height="12" rx="3" fill="#34d399" fill-opacity="0.2"/>
  <text x="149" y="117" font-family="'Inter', sans-serif" font-size="7.5" fill="#34d399" text-anchor="middle" font-weight="700">94%</text>

  <!-- A. Chen -->
  <rect x="16" y="148" width="148" height="46" rx="7" fill="#111827" stroke="#1e293b" stroke-width="1"/>
  <circle cx="40" cy="171" r="14" fill="#22d3ee"/>
  <text x="40" y="175" font-family="'Inter', sans-serif" font-size="10" font-weight="700" fill="#082f49" text-anchor="middle">AC</text>
  <text x="62" y="165" font-family="'Inter', sans-serif" font-size="9.5" font-weight="600" fill="#e2e8f0">A. Chen</text>
  <text x="62" y="179" font-family="'Inter', sans-serif" font-size="8" fill="#94a3b8">15 skills matched</text>
  <rect x="140" y="165" width="18" height="12" rx="3" fill="#34d399" fill-opacity="0.2"/>
  <text x="149" y="175" font-family="'Inter', sans-serif" font-size="7.5" fill="#34d399" text-anchor="middle" font-weight="700">91%</text>

  <!-- M. Patel -->
  <rect x="16" y="206" width="148" height="46" rx="7" fill="#111827" stroke="#1e293b" stroke-width="1"/>
  <circle cx="40" cy="229" r="14" fill="#a78bfa"/>
  <text x="40" y="233" font-family="'Inter', sans-serif" font-size="10" font-weight="700" fill="#2e1065" text-anchor="middle">MP</text>
  <text x="62" y="223" font-family="'Inter', sans-serif" font-size="9.5" font-weight="600" fill="#e2e8f0">M. Patel</text>
  <text x="62" y="237" font-family="'Inter', sans-serif" font-size="8" fill="#94a3b8">13 skills matched</text>
  <rect x="140" y="223" width="18" height="12" rx="3" fill="#22d3ee" fill-opacity="0.2"/>
  <text x="149" y="233" font-family="'Inter', sans-serif" font-size="7.5" fill="#22d3ee" text-anchor="middle" font-weight="700">89%</text>

  <!-- S. Kim -->
  <rect x="16" y="264" width="148" height="46" rx="7" fill="#111827" stroke="#1e293b" stroke-width="1"/>
  <circle cx="40" cy="287" r="14" fill="#fb923c"/>
  <text x="40" y="291" font-family="'Inter', sans-serif" font-size="10" font-weight="700" fill="#431407" text-anchor="middle">SK</text>
  <text x="62" y="281" font-family="'Inter', sans-serif" font-size="9.5" font-weight="600" fill="#e2e8f0">S. Kim</text>
  <text x="62" y="295" font-family="'Inter', sans-serif" font-size="8" fill="#94a3b8">11 skills matched</text>
  <rect x="140" y="281" width="18" height="12" rx="3" fill="#fb923c" fill-opacity="0.2"/>
  <text x="149" y="291" font-family="'Inter', sans-serif" font-size="7.5" fill="#fb923c" text-anchor="middle" font-weight="700">88%</text>

  <!-- ===== MATRIX: Column Headers ===== -->
  <!-- Role column headers, angled slightly -->
  <g font-family="'Inter', sans-serif" font-size="8.5" fill="#94a3b8" font-weight="600">
    <text x="233" y="80" text-anchor="middle" transform="rotate(-30,233,80)">Senior MLE</text>
    <text x="313" y="80" text-anchor="middle" transform="rotate(-30,313,80)">Staff Eng</text>
    <text x="393" y="80" text-anchor="middle" transform="rotate(-30,393,80)">Data Arch</text>
    <text x="473" y="80" text-anchor="middle" transform="rotate(-30,473,80)">Tech Lead</text>
    <text x="553" y="80" text-anchor="middle" transform="rotate(-30,553,80)">ML Platform</text>
  </g>

  <!-- Matrix row headers -->
  <g font-family="'Inter', sans-serif" font-size="9" fill="#e2e8f0" font-weight="500">
    <text x="172" y="118" text-anchor="end">J. Rivera</text>
    <text x="172" y="178" text-anchor="end">A. Chen</text>
    <text x="172" y="238" text-anchor="end">M. Patel</text>
    <text x="172" y="298" text-anchor="end">S. Kim</text>
  </g>

  <!-- ===== MATRIX CELLS ===== -->
  <!-- Color scale: 45% = #4a1818, 60% = #7c3a12, 75% = #b45309, 85% = #15803d, 90%+ = #059669/emerald -->
  <!-- Row 1: J. Rivera — 94%, 87%, 72%, 68%, 65% -->
  <!-- Cell J.Rivera × Senior MLE: 94% — best, emerald bright, white border glow -->
  <rect x="185" y="96" width="72" height="44" rx="6" fill="#065f46" stroke="#34d399" stroke-width="2" filter="url(#glowCell)"/>
  <text x="221" y="122" font-family="'Inter', sans-serif" font-size="13" font-weight="700" fill="#d1fae5" text-anchor="middle">94%</text>

  <!-- J.Rivera × Staff Eng: 87% -->
  <rect x="265" y="96" width="72" height="44" rx="6" fill="#065f46" stroke="#34d399" stroke-width="1.5" filter="url(#glowCell)"/>
  <text x="301" y="122" font-family="'Inter', sans-serif" font-size="13" font-weight="700" fill="#d1fae5" text-anchor="middle">87%</text>

  <!-- J.Rivera × Data Arch: 72% -->
  <rect x="345" y="96" width="72" height="44" rx="6" fill="#7c3a12"/>
  <text x="381" y="122" font-family="'Inter', sans-serif" font-size="13" font-weight="600" fill="#fde68a" text-anchor="middle">72%</text>

  <!-- J.Rivera × Tech Lead: 68% -->
  <rect x="425" y="96" width="72" height="44" rx="6" fill="#6b2a10"/>
  <text x="461" y="122" font-family="'Inter', sans-serif" font-size="13" font-weight="600" fill="#fed7aa" text-anchor="middle">68%</text>

  <!-- J.Rivera × ML Platform: 65% -->
  <rect x="505" y="96" width="72" height="44" rx="6" fill="#5a2010"/>
  <text x="541" y="122" font-family="'Inter', sans-serif" font-size="13" font-weight="600" fill="#fed7aa" text-anchor="middle">65%</text>

  <!-- Row 2: A. Chen — 76%, 82%, 91%, 58%, 63% -->
  <!-- A.Chen × Senior MLE: 76% -->
  <rect x="185" y="156" width="72" height="44" rx="6" fill="#854d0e"/>
  <text x="221" y="182" font-family="'Inter', sans-serif" font-size="13" font-weight="600" fill="#fde68a" text-anchor="middle">76%</text>

  <!-- A.Chen × Staff Eng: 82% -->
  <rect x="265" y="156" width="72" height="44" rx="6" fill="#166534"/>
  <text x="301" y="182" font-family="'Inter', sans-serif" font-size="13" font-weight="600" fill="#bbf7d0" text-anchor="middle">82%</text>

  <!-- A.Chen × Data Arch: 91% — column winner -->
  <rect x="345" y="156" width="72" height="44" rx="6" fill="#065f46" stroke="#34d399" stroke-width="2" filter="url(#glowCell)"/>
  <text x="381" y="182" font-family="'Inter', sans-serif" font-size="13" font-weight="700" fill="#d1fae5" text-anchor="middle">91%</text>

  <!-- A.Chen × Tech Lead: 58% -->
  <rect x="425" y="156" width="72" height="44" rx="6" fill="#4a1c0e"/>
  <text x="461" y="182" font-family="'Inter', sans-serif" font-size="13" font-weight="600" fill="#fca5a5" text-anchor="middle">58%</text>

  <!-- A.Chen × ML Platform: 63% -->
  <rect x="505" y="156" width="72" height="44" rx="6" fill="#52200e"/>
  <text x="541" y="182" font-family="'Inter', sans-serif" font-size="13" font-weight="600" fill="#fed7aa" text-anchor="middle">63%</text>

  <!-- Row 3: M. Patel — 61%, 55%, 70%, 79%, 89% -->
  <!-- M.Patel × Senior MLE: 61% -->
  <rect x="185" y="216" width="72" height="44" rx="6" fill="#4e230e"/>
  <text x="221" y="242" font-family="'Inter', sans-serif" font-size="13" font-weight="600" fill="#fed7aa" text-anchor="middle">61%</text>

  <!-- M.Patel × Staff Eng: 55% -->
  <rect x="265" y="216" width="72" height="44" rx="6" fill="#42180e"/>
  <text x="301" y="242" font-family="'Inter', sans-serif" font-size="13" font-weight="600" fill="#fca5a5" text-anchor="middle">55%</text>

  <!-- M.Patel × Data Arch: 70% -->
  <rect x="345" y="216" width="72" height="44" rx="6" fill="#713a0e"/>
  <text x="381" y="242" font-family="'Inter', sans-serif" font-size="13" font-weight="600" fill="#fde68a" text-anchor="middle">70%</text>

  <!-- M.Patel × Tech Lead: 79% -->
  <rect x="425" y="216" width="72" height="44" rx="6" fill="#166534"/>
  <text x="461" y="242" font-family="'Inter', sans-serif" font-size="13" font-weight="600" fill="#bbf7d0" text-anchor="middle">79%</text>

  <!-- M.Patel × ML Platform: 89% — column winner -->
  <rect x="505" y="216" width="72" height="44" rx="6" fill="#065f46" stroke="#34d399" stroke-width="2" filter="url(#glowCell)"/>
  <text x="541" y="242" font-family="'Inter', sans-serif" font-size="13" font-weight="700" fill="#d1fae5" text-anchor="middle">89%</text>

  <!-- Row 4: S. Kim — 48%, 62%, 67%, 88%, 52% -->
  <!-- S.Kim × Senior MLE: 48% -->
  <rect x="185" y="276" width="72" height="44" rx="6" fill="#380e0e"/>
  <text x="221" y="302" font-family="'Inter', sans-serif" font-size="13" font-weight="600" fill="#fca5a5" text-anchor="middle">48%</text>

  <!-- S.Kim × Staff Eng: 62% -->
  <rect x="265" y="276" width="72" height="44" rx="6" fill="#4e230e"/>
  <text x="301" y="302" font-family="'Inter', sans-serif" font-size="13" font-weight="600" fill="#fed7aa" text-anchor="middle">62%</text>

  <!-- S.Kim × Data Arch: 67% -->
  <rect x="345" y="276" width="72" height="44" rx="6" fill="#5f2e0e"/>
  <text x="381" y="302" font-family="'Inter', sans-serif" font-size="13" font-weight="600" fill="#fed7aa" text-anchor="middle">67%</text>

  <!-- S.Kim × Tech Lead: 88% — column winner -->
  <rect x="425" y="276" width="72" height="44" rx="6" fill="#065f46" stroke="#34d399" stroke-width="2" filter="url(#glowCell)"/>
  <text x="461" y="302" font-family="'Inter', sans-serif" font-size="13" font-weight="700" fill="#d1fae5" text-anchor="middle">88%</text>

  <!-- S.Kim × ML Platform: 52% -->
  <rect x="505" y="276" width="72" height="44" rx="6" fill="#3e1408"/>
  <text x="541" y="302" font-family="'Inter', sans-serif" font-size="13" font-weight="600" fill="#fca5a5" text-anchor="middle">52%</text>

  <!-- ===== RIGHT PANEL: TOP MATCH BREAKDOWN ===== -->
  <rect x="600" y="58" width="286" height="380" rx="10" fill="#0d1220" stroke="#1e293b" stroke-width="1"/>
  <text x="743" y="78" font-family="'Inter', sans-serif" font-size="9" font-weight="700" fill="#475569" text-anchor="middle" letter-spacing="1.5">TOP MATCH BREAKDOWN</text>
  <text x="743" y="92" font-family="'Inter', sans-serif" font-size="8.5" fill="#94a3b8" text-anchor="middle">J. Rivera × Senior MLE</text>
  <line x1="616" y1="98" x2="870" y2="98" stroke="#1e293b" stroke-width="1"/>

  <!-- Score ring: 94% arc -->
  <!-- Circle background -->
  <circle cx="743" cy="168" r="48" fill="none" stroke="#1e293b" stroke-width="8"/>
  <!-- Arc: 94% of 360 = 338.4 deg. circumference = 2*pi*48 = 301.6, stroke-dasharray = 0.94*301.6 = 283.5, gap = 18.1 -->
  <circle cx="743" cy="168" r="48" fill="none" stroke="#6366f1" stroke-width="8"
    stroke-dasharray="283.5 18.1"
    stroke-dashoffset="75.4"
    stroke-linecap="round"
    filter="url(#glowRing)"/>
  <text x="743" y="163" font-family="'Inter', sans-serif" font-size="22" font-weight="700" fill="#e2e8f0" text-anchor="middle">94%</text>
  <text x="743" y="178" font-family="'Inter', sans-serif" font-size="9" fill="#94a3b8" text-anchor="middle">match score</text>

  <!-- Dimension bars -->
  <g font-family="'Inter', sans-serif">
    <!-- Technical Skills: 97% -->
    <text x="618" y="240" font-size="8.5" fill="#94a3b8">Technical Skills</text>
    <text x="868" y="240" font-size="8.5" fill="#6366f1" text-anchor="end" font-weight="600">97%</text>
    <rect x="618" y="244" width="250" height="5" rx="2.5" fill="#1e293b"/>
    <rect x="618" y="244" width="242" height="5" rx="2.5" fill="#6366f1"/>

    <!-- Experience: 91% -->
    <text x="618" y="264" font-size="8.5" fill="#94a3b8">Experience</text>
    <text x="868" y="264" font-size="8.5" fill="#22d3ee" text-anchor="end" font-weight="600">91%</text>
    <rect x="618" y="268" width="250" height="5" rx="2.5" fill="#1e293b"/>
    <rect x="618" y="268" width="228" height="5" rx="2.5" fill="#22d3ee"/>

    <!-- Culture Fit: 88% -->
    <text x="618" y="288" font-size="8.5" fill="#94a3b8">Culture Fit</text>
    <text x="868" y="288" font-size="8.5" fill="#a78bfa" text-anchor="end" font-weight="600">88%</text>
    <rect x="618" y="292" width="250" height="5" rx="2.5" fill="#1e293b"/>
    <rect x="618" y="292" width="220" height="5" rx="2.5" fill="#a78bfa"/>

    <!-- Growth Potential: 92% -->
    <text x="618" y="312" font-size="8.5" fill="#94a3b8">Growth Potential</text>
    <text x="868" y="312" font-size="8.5" fill="#34d399" text-anchor="end" font-weight="600">92%</text>
    <rect x="618" y="316" width="250" height="5" rx="2.5" fill="#1e293b"/>
    <rect x="618" y="316" width="230" height="5" rx="2.5" fill="#34d399"/>
  </g>

  <!-- Match reason pills -->
  <line x1="616" y1="332" x2="870" y2="332" stroke="#1e293b" stroke-width="1"/>
  <text x="618" y="346" font-family="'Inter', sans-serif" font-size="8" fill="#475569" letter-spacing="1">KEY SIGNALS</text>
  <!-- Pills -->
  <rect x="618" y="352" width="70" height="18" rx="9" fill="#6366f1" fill-opacity="0.2" stroke="#6366f1" stroke-width="0.8" stroke-opacity="0.6"/>
  <text x="653" y="365" font-family="'Inter', sans-serif" font-size="8" fill="#a5b4fc" text-anchor="middle">LangChain ✓</text>
  <rect x="696" y="352" width="66" height="18" rx="9" fill="#22d3ee" fill-opacity="0.15" stroke="#22d3ee" stroke-width="0.8" stroke-opacity="0.5"/>
  <text x="729" y="365" font-family="'Inter', sans-serif" font-size="8" fill="#67e8f9" text-anchor="middle">RAG systems ✓</text>
  <rect x="618" y="376" width="58" height="18" rx="9" fill="#34d399" fill-opacity="0.15" stroke="#34d399" stroke-width="0.8" stroke-opacity="0.5"/>
  <text x="647" y="389" font-family="'Inter', sans-serif" font-size="8" fill="#6ee7b7" text-anchor="middle">5yrs ML ✓</text>
  <rect x="683" y="376" width="74" height="18" rx="9" fill="#a78bfa" fill-opacity="0.15" stroke="#a78bfa" stroke-width="0.8" stroke-opacity="0.5"/>
  <text x="720" y="389" font-family="'Inter', sans-serif" font-size="8" fill="#c4b5fd" text-anchor="middle">PyTorch expert ✓</text>

  <!-- ===== BOTTOM INSIGHT CHIPS ===== -->
  <line x1="0" y1="446" x2="900" y2="446" stroke="#1e293b" stroke-width="1"/>
  <rect x="16" y="456" width="188" height="28" rx="6" fill="#0d1220" stroke="#1e293b" stroke-width="1"/>
  <circle cx="30" cy="470" r="4" fill="#34d399"/>
  <text x="40" y="474" font-family="'Inter', sans-serif" font-size="8.5" fill="#94a3b8">Best overall fit: <tspan fill="#e2e8f0" font-weight="600">J. Rivera</tspan></text>

  <rect x="212" y="456" width="210" height="28" rx="6" fill="#0d1220" stroke="#1e293b" stroke-width="1"/>
  <circle cx="226" cy="470" r="4" fill="#fb923c"/>
  <text x="236" y="474" font-family="'Inter', sans-serif" font-size="8.5" fill="#94a3b8">Hardest to fill: <tspan fill="#e2e8f0" font-weight="600">ML Platform</tspan></text>

  <rect x="430" y="456" width="196" height="28" rx="6" fill="#0d1220" stroke="#1e293b" stroke-width="1"/>
  <circle cx="444" cy="470" r="4" fill="#6366f1"/>
  <text x="454" y="474" font-family="'Inter', sans-serif" font-size="8.5" fill="#94a3b8">Avg match score: <tspan fill="#e2e8f0" font-weight="600">74%</tspan></text>

  <rect x="634" y="456" width="252" height="28" rx="6" fill="#0d1220" stroke="#1e293b" stroke-width="1"/>
  <circle cx="648" cy="470" r="4" fill="#22d3ee"/>
  <text x="658" y="474" font-family="'Inter', sans-serif" font-size="8.5" fill="#94a3b8">Total evaluations: <tspan fill="#e2e8f0" font-weight="600">20 pairs scored</tspan></text>
</svg>
