<svg width="800" height="450" xmlns="http://www.w3.org/2000/svg" font-family="sans-serif">
  <rect width="800" height="450" fill="#08131f"/>
  <rect width="800" height="40" fill="#0d1b2b"/>
  <rect x="0" y="40" width="800" height="1" fill="#244763"/>
  <text x="20" y="26" fill="#00f5ff" font-size="14" font-weight="bold">MCP Chat · Claude + Tools</text>
  <text x="560" y="26" fill="#5a8090" font-size="11">Session: dev-session-001 · Model: claude-3-5-sonnet</text>

  <!-- Chat area -->
  <rect x="10" y="50" width="540" height="390" rx="4" fill="#0d1b2b" stroke="#244763" stroke-width="1"/>

  <!-- User message -->
  <rect x="280" y="65" width="256" height="48" rx="6" fill="#112338" stroke="#244763" stroke-width="1"/>
  <text x="292" y="83" fill="#c8e0f4" font-size="11">How many users signed up in</text>
  <text x="292" y="98" fill="#c8e0f4" font-size="11">the last 7 days?</text>
  <text x="292" y="108" fill="#3a6080" font-size="9">You · 14:30</text>

  <!-- Claude response: thinking -->
  <rect x="22" y="126" width="490" height="34" rx="6" fill="#08131f" stroke="#244763" stroke-width="1"/>
  <circle cx="38" cy="143" r="9" fill="#00f5ff" opacity="0.2"/>
  <text x="38" y="147" fill="#00f5ff" font-size="8" text-anchor="middle">C</text>
  <text x="54" y="143" fill="#5a8090" font-size="10">Claude is thinking...</text>
  <text x="400" y="143" fill="#3a6080" font-size="9">analyzing query</text>

  <!-- Tool call bubble -->
  <rect x="22" y="170" width="490" height="80" rx="6" fill="#08131f" stroke="#00f5ff" stroke-width="1"/>
  <rect x="22" y="170" width="490" height="24" rx="6" fill="#00f5ff" opacity="0.1"/>
  <circle cx="34" cy="182" r="6" fill="#00f5ff" opacity="0.4"/>
  <text x="44" y="186" fill="#00f5ff" font-size="10" font-weight="bold">Tool Call: database-mcp</text>
  <text x="440" y="186" fill="#3a6080" font-size="9">14:30:02</text>
  <rect x="30" y="200" width="474" height="44" rx="3" fill="#08131f"/>
  <text x="40" y="214" fill="#5a8090" font-size="9" font-family="monospace">tool: database-mcp.execute_query</text>
  <text x="40" y="227" fill="#c8e0f4" font-size="9" font-family="monospace">query: "SELECT COUNT(*) FROM users</text>
  <text x="40" y="240" fill="#c8e0f4" font-size="9" font-family="monospace">  WHERE created_at &gt;= NOW() - INTERVAL '7 days'"</text>

  <!-- Tool response bubble -->
  <rect x="22" y="262" width="490" height="56" rx="6" fill="#08131f" stroke="#00ff88" stroke-width="1"/>
  <rect x="22" y="262" width="490" height="22" rx="6" fill="#00ff88" opacity="0.1"/>
  <circle cx="34" cy="273" r="6" fill="#00ff88" opacity="0.4"/>
  <text x="44" y="277" fill="#00ff88" font-size="10" font-weight="bold">Tool Result: database-mcp</text>
  <text x="440" y="277" fill="#3a6080" font-size="9">8ms</text>
  <rect x="30" y="290" width="474" height="22" rx="3" fill="#08131f"/>
  <text x="40" y="305" fill="#00ff88" font-size="10" font-family="monospace">&#123; "count": 1842, "query_time_ms": 7 &#125;</text>

  <!-- Claude final response -->
  <rect x="22" y="330" width="490" height="70" rx="6" fill="#112338" stroke="#244763" stroke-width="1"/>
  <circle cx="38" cy="346" r="9" fill="#00f5ff" opacity="0.2"/>
  <text x="38" y="350" fill="#00f5ff" font-size="8" text-anchor="middle">C</text>
  <text x="54" y="346" fill="#00f5ff" font-size="11" font-weight="bold">Claude</text>
  <text x="130" y="346" fill="#3a6080" font-size="9">14:30:03 · 1.2s</text>
  <text x="30" y="366" fill="#c8e0f4" font-size="11">In the last 7 days, <tspan fill="#00ff88" font-weight="bold">1,842 new users</tspan> signed up.</text>
  <text x="30" y="382" fill="#c8e0f4" font-size="11">That's a 12% increase compared to the previous</text>
  <text x="30" y="398" fill="#c8e0f4" font-size="11">7-day period (1,645 signups).</text>

  <!-- Input -->
  <rect x="22" y="415" width="400" height="20" rx="3" fill="#08131f" stroke="#244763" stroke-width="1"/>
  <text x="32" y="429" fill="#3a6080" font-size="10">Type a message...</text>
  <rect x="430" y="414" width="90" height="22" rx="3" fill="#00f5ff"/>
  <text x="475" y="428" fill="#08131f" font-size="11" font-weight="bold" text-anchor="middle">Send</text>

  <!-- Right panel: analytics -->
  <rect x="560" y="50" width="230" height="390" rx="4" fill="#0d1b2b" stroke="#244763" stroke-width="1"/>
  <rect x="560" y="50" width="230" height="28" fill="#112338"/>
  <text x="574" y="69" fill="#c8e0f4" font-size="12" font-weight="bold">Session Analytics</text>

  <!-- Active tools -->
  <text x="574" y="94" fill="#5a8090" font-size="10">ACTIVE TOOLS THIS SESSION</text>
  <rect x="572" y="100" width="206" height="22" rx="2" fill="#08131f"/>
  <circle cx="584" cy="111" r="4" fill="#00f5ff"/>
  <text x="594" y="115" fill="#c8e0f4" font-size="9">database-mcp</text>
  <text x="742" y="115" fill="#00f5ff" font-size="9" text-anchor="end">3 calls</text>
  <rect x="572" y="128" width="206" height="22" rx="2" fill="#08131f"/>
  <circle cx="584" cy="139" r="4" fill="#00ff88"/>
  <text x="594" y="143" fill="#c8e0f4" font-size="9">web-search-mcp</text>
  <text x="742" y="143" fill="#00ff88" font-size="9" text-anchor="end">1 call</text>
  <rect x="572" y="156" width="206" height="22" rx="2" fill="#08131f"/>
  <circle cx="584" cy="167" r="4" fill="#3a6080"/>
  <text x="594" y="171" fill="#5a8090" font-size="9">filesystem-mcp</text>
  <text x="742" y="171" fill="#5a8090" font-size="9" text-anchor="end">0 calls</text>

  <!-- Token usage -->
  <text x="574" y="196" fill="#5a8090" font-size="10">TOKEN USAGE</text>
  <rect x="572" y="202" width="206" height="56" rx="3" fill="#08131f" stroke="#244763" stroke-width="1"/>
  <text x="582" y="218" fill="#5a8090" font-size="9">Input tokens:</text>
  <text x="764" y="218" fill="#c8e0f4" font-size="9" text-anchor="end">2,841</text>
  <text x="582" y="234" fill="#5a8090" font-size="9">Output tokens:</text>
  <text x="764" y="234" fill="#c8e0f4" font-size="9" text-anchor="end">892</text>
  <text x="582" y="250" fill="#5a8090" font-size="9">Total:</text>
  <text x="764" y="250" fill="#00f5ff" font-size="9" text-anchor="end">3,733</text>

  <!-- Permission checks -->
  <text x="574" y="276" fill="#5a8090" font-size="10">PERMISSION LOG</text>
  <rect x="572" y="282" width="206" height="100" rx="3" fill="#08131f"/>
  <circle cx="582" cy="298" r="4" fill="#00ff88"/>
  <text x="592" y="302" fill="#5a8090" font-size="9">db:query → Admin ✓</text>
  <circle cx="582" cy="316" r="4" fill="#00ff88"/>
  <text x="592" y="320" fill="#5a8090" font-size="9">db:query → Admin ✓</text>
  <circle cx="582" cy="334" r="4" fill="#00ff88"/>
  <text x="592" y="338" fill="#5a8090" font-size="9">web:search → Admin ✓</text>
  <circle cx="582" cy="352" r="4" fill="#00ff88"/>
  <text x="592" y="356" fill="#5a8090" font-size="9">db:query → Admin ✓</text>
  <circle cx="582" cy="370" r="4" fill="#ff0080"/>
  <text x="592" y="374" fill="#ff0080" font-size="9">fs:write → DENIED</text>

  <!-- Session info -->
  <rect x="572" y="394" width="206" height="40" rx="3" fill="#112338"/>
  <text x="582" y="410" fill="#5a8090" font-size="9">Role: Admin · User: dev@co.io</text>
  <text x="582" y="424" fill="#3a6080" font-size="9">Session started: 14:28 · 4 turns</text>
</svg>
