<svg width="800" height="450" xmlns="http://www.w3.org/2000/svg" font-family="sans-serif">
  <rect width="800" height="450" fill="#08131f"/>
  <rect width="800" height="40" fill="#0d1b2b"/>
  <rect x="0" y="40" width="800" height="1" fill="#244763"/>
  <text x="20" y="26" fill="#00f5ff" font-size="14" font-weight="bold">MCP Platform · Permission Matrix</text>
  <text x="540" y="26" fill="#5a8090" font-size="11">Tool-Role ACL · OAuth Scope Binding</text>

  <!-- Column headers: Roles -->
  <rect x="10" y="50" width="780" height="32" fill="#112338"/>
  <text x="200" y="72" fill="#c8e0f4" font-size="11" font-weight="bold" text-anchor="middle">Admin</text>
  <text x="310" y="72" fill="#c8e0f4" font-size="11" font-weight="bold" text-anchor="middle">Developer</text>
  <text x="420" y="72" fill="#c8e0f4" font-size="11" font-weight="bold" text-anchor="middle">Analyst</text>
  <text x="530" y="72" fill="#c8e0f4" font-size="11" font-weight="bold" text-anchor="middle">Support</text>
  <text x="640" y="72" fill="#c8e0f4" font-size="11" font-weight="bold" text-anchor="middle">Viewer</text>
  <text x="720" y="72" fill="#5a8090" font-size="10">OAuth</text>
  <rect x="10" y="82" width="780" height="1" fill="#244763"/>

  <!-- Helper macro for allow/deny cells -->
  <!-- Row: db:query -->
  <rect x="10" y="83" width="780" height="36" fill="#0d1b2b"/>
  <text x="20" y="98" fill="#c8e0f4" font-size="10" font-weight="bold">database-mcp</text>
  <text x="20" y="112" fill="#3a6080" font-size="9">db:query (SELECT)</text>
  <!-- Admin: allow -->
  <rect x="160" y="89" width="80" height="22" rx="3" fill="#00ff88" opacity="0.2" stroke="#00ff88" stroke-width="1"/>
  <text x="200" y="104" fill="#00ff88" font-size="10" text-anchor="middle">✓ Allow</text>
  <!-- Dev: allow -->
  <rect x="270" y="89" width="80" height="22" rx="3" fill="#00ff88" opacity="0.2" stroke="#00ff88" stroke-width="1"/>
  <text x="310" y="104" fill="#00ff88" font-size="10" text-anchor="middle">✓ Allow</text>
  <!-- Analyst: allow -->
  <rect x="380" y="89" width="80" height="22" rx="3" fill="#00ff88" opacity="0.2" stroke="#00ff88" stroke-width="1"/>
  <text x="420" y="104" fill="#00ff88" font-size="10" text-anchor="middle">✓ Allow</text>
  <!-- Support: deny -->
  <rect x="490" y="89" width="80" height="22" rx="3" fill="#ff0080" opacity="0.15" stroke="#ff0080" stroke-width="1"/>
  <text x="530" y="104" fill="#ff0080" font-size="10" text-anchor="middle">✗ Deny</text>
  <!-- Viewer: deny -->
  <rect x="600" y="89" width="80" height="22" rx="3" fill="#ff0080" opacity="0.15" stroke="#ff0080" stroke-width="1"/>
  <text x="640" y="104" fill="#ff0080" font-size="10" text-anchor="middle">✗ Deny</text>
  <rect x="700" y="89" width="82" height="22" rx="3" fill="#9d00ff" opacity="0.2"/>
  <text x="741" y="104" fill="#9d00ff" font-size="9" text-anchor="middle">db:read</text>
  <rect x="10" y="119" width="780" height="1" fill="#244763"/>

  <!-- Row: db:write -->
  <rect x="10" y="120" width="780" height="36" fill="#08131f"/>
  <text x="20" y="135" fill="#c8e0f4" font-size="10" font-weight="bold">database-mcp</text>
  <text x="20" y="149" fill="#3a6080" font-size="9">db:mutate (INSERT/UPDATE)</text>
  <rect x="160" y="126" width="80" height="22" rx="3" fill="#00ff88" opacity="0.2" stroke="#00ff88" stroke-width="1"/>
  <text x="200" y="141" fill="#00ff88" font-size="10" text-anchor="middle">✓ Allow</text>
  <rect x="270" y="126" width="80" height="22" rx="3" fill="#00ff88" opacity="0.2" stroke="#00ff88" stroke-width="1"/>
  <text x="310" y="141" fill="#00ff88" font-size="10" text-anchor="middle">✓ Allow</text>
  <rect x="380" y="126" width="80" height="22" rx="3" fill="#ff0080" opacity="0.15" stroke="#ff0080" stroke-width="1"/>
  <text x="420" y="141" fill="#ff0080" font-size="10" text-anchor="middle">✗ Deny</text>
  <rect x="490" y="126" width="80" height="22" rx="3" fill="#ff0080" opacity="0.15" stroke="#ff0080" stroke-width="1"/>
  <text x="530" y="141" fill="#ff0080" font-size="10" text-anchor="middle">✗ Deny</text>
  <rect x="600" y="126" width="80" height="22" rx="3" fill="#ff0080" opacity="0.15" stroke="#ff0080" stroke-width="1"/>
  <text x="640" y="141" fill="#ff0080" font-size="10" text-anchor="middle">✗ Deny</text>
  <rect x="700" y="126" width="82" height="22" rx="3" fill="#9d00ff" opacity="0.2"/>
  <text x="741" y="141" fill="#9d00ff" font-size="9" text-anchor="middle">db:write</text>
  <rect x="10" y="156" width="780" height="1" fill="#244763"/>

  <!-- Row: fs:read -->
  <rect x="10" y="157" width="780" height="36" fill="#0d1b2b"/>
  <text x="20" y="172" fill="#c8e0f4" font-size="10" font-weight="bold">filesystem-mcp</text>
  <text x="20" y="186" fill="#3a6080" font-size="9">fs:read (list/read files)</text>
  <rect x="160" y="163" width="80" height="22" rx="3" fill="#00ff88" opacity="0.2" stroke="#00ff88" stroke-width="1"/>
  <text x="200" y="178" fill="#00ff88" font-size="10" text-anchor="middle">✓ Allow</text>
  <rect x="270" y="163" width="80" height="22" rx="3" fill="#00ff88" opacity="0.2" stroke="#00ff88" stroke-width="1"/>
  <text x="310" y="178" fill="#00ff88" font-size="10" text-anchor="middle">✓ Allow</text>
  <rect x="380" y="163" width="80" height="22" rx="3" fill="#ffe000" opacity="0.15" stroke="#ffe000" stroke-width="1"/>
  <text x="420" y="178" fill="#ffe000" font-size="10" text-anchor="middle">~ Partial</text>
  <rect x="490" y="163" width="80" height="22" rx="3" fill="#ff0080" opacity="0.15" stroke="#ff0080" stroke-width="1"/>
  <text x="530" y="178" fill="#ff0080" font-size="10" text-anchor="middle">✗ Deny</text>
  <rect x="600" y="163" width="80" height="22" rx="3" fill="#ff0080" opacity="0.15" stroke="#ff0080" stroke-width="1"/>
  <text x="640" y="178" fill="#ff0080" font-size="10" text-anchor="middle">✗ Deny</text>
  <text x="741" y="178" fill="#3a6080" font-size="9" text-anchor="middle">—</text>
  <rect x="10" y="193" width="780" height="1" fill="#244763"/>

  <!-- Row: code:execute -->
  <rect x="10" y="194" width="780" height="36" fill="#08131f"/>
  <text x="20" y="209" fill="#c8e0f4" font-size="10" font-weight="bold">code-exec-mcp</text>
  <text x="20" y="223" fill="#3a6080" font-size="9">code:execute (run sandbox)</text>
  <rect x="160" y="200" width="80" height="22" rx="3" fill="#00ff88" opacity="0.2" stroke="#00ff88" stroke-width="1"/>
  <text x="200" y="215" fill="#00ff88" font-size="10" text-anchor="middle">✓ Allow</text>
  <rect x="270" y="200" width="80" height="22" rx="3" fill="#00ff88" opacity="0.2" stroke="#00ff88" stroke-width="1"/>
  <text x="310" y="215" fill="#00ff88" font-size="10" text-anchor="middle">✓ Allow</text>
  <rect x="380" y="200" width="80" height="22" rx="3" fill="#ff0080" opacity="0.15" stroke="#ff0080" stroke-width="1"/>
  <text x="420" y="215" fill="#ff0080" font-size="10" text-anchor="middle">✗ Deny</text>
  <rect x="490" y="200" width="80" height="22" rx="3" fill="#ff0080" opacity="0.15" stroke="#ff0080" stroke-width="1"/>
  <text x="530" y="215" fill="#ff0080" font-size="10" text-anchor="middle">✗ Deny</text>
  <rect x="600" y="200" width="80" height="22" rx="3" fill="#ff0080" opacity="0.15" stroke="#ff0080" stroke-width="1"/>
  <text x="640" y="215" fill="#ff0080" font-size="10" text-anchor="middle">✗ Deny</text>
  <rect x="700" y="200" width="82" height="22" rx="3" fill="#9d00ff" opacity="0.2"/>
  <text x="741" y="215" fill="#9d00ff" font-size="9" text-anchor="middle">exec:run</text>
  <rect x="10" y="230" width="780" height="1" fill="#244763"/>

  <!-- Row: web:search -->
  <rect x="10" y="231" width="780" height="36" fill="#0d1b2b"/>
  <text x="20" y="246" fill="#c8e0f4" font-size="10" font-weight="bold">web-search-mcp</text>
  <text x="20" y="260" fill="#3a6080" font-size="9">web:search</text>
  <rect x="160" y="237" width="80" height="22" rx="3" fill="#00ff88" opacity="0.2" stroke="#00ff88" stroke-width="1"/>
  <text x="200" y="252" fill="#00ff88" font-size="10" text-anchor="middle">✓ Allow</text>
  <rect x="270" y="237" width="80" height="22" rx="3" fill="#00ff88" opacity="0.2" stroke="#00ff88" stroke-width="1"/>
  <text x="310" y="252" fill="#00ff88" font-size="10" text-anchor="middle">✓ Allow</text>
  <rect x="380" y="237" width="80" height="22" rx="3" fill="#00ff88" opacity="0.2" stroke="#00ff88" stroke-width="1"/>
  <text x="420" y="252" fill="#00ff88" font-size="10" text-anchor="middle">✓ Allow</text>
  <rect x="490" y="237" width="80" height="22" rx="3" fill="#00ff88" opacity="0.2" stroke="#00ff88" stroke-width="1"/>
  <text x="530" y="252" fill="#00ff88" font-size="10" text-anchor="middle">✓ Allow</text>
  <rect x="600" y="237" width="80" height="22" rx="3" fill="#ffe000" opacity="0.15" stroke="#ffe000" stroke-width="1"/>
  <text x="640" y="252" fill="#ffe000" font-size="10" text-anchor="middle">~ Readonly</text>
  <text x="741" y="252" fill="#3a6080" font-size="9" text-anchor="middle">—</text>
  <rect x="10" y="267" width="780" height="1" fill="#244763"/>

  <!-- Row: github:repo_read -->
  <rect x="10" y="268" width="780" height="36" fill="#08131f"/>
  <text x="20" y="283" fill="#c8e0f4" font-size="10" font-weight="bold">github-mcp</text>
  <text x="20" y="297" fill="#3a6080" font-size="9">github:repo (read repos/PRs)</text>
  <rect x="160" y="274" width="80" height="22" rx="3" fill="#00ff88" opacity="0.2" stroke="#00ff88" stroke-width="1"/>
  <text x="200" y="289" fill="#00ff88" font-size="10" text-anchor="middle">✓ Allow</text>
  <rect x="270" y="274" width="80" height="22" rx="3" fill="#00ff88" opacity="0.2" stroke="#00ff88" stroke-width="1"/>
  <text x="310" y="289" fill="#00ff88" font-size="10" text-anchor="middle">✓ Allow</text>
  <rect x="380" y="274" width="80" height="22" rx="3" fill="#ff0080" opacity="0.15" stroke="#ff0080" stroke-width="1"/>
  <text x="420" y="289" fill="#ff0080" font-size="10" text-anchor="middle">✗ Deny</text>
  <rect x="490" y="274" width="80" height="22" rx="3" fill="#ff0080" opacity="0.15" stroke="#ff0080" stroke-width="1"/>
  <text x="530" y="289" fill="#ff0080" font-size="10" text-anchor="middle">✗ Deny</text>
  <rect x="600" y="274" width="80" height="22" rx="3" fill="#ff0080" opacity="0.15" stroke="#ff0080" stroke-width="1"/>
  <text x="640" y="289" fill="#ff0080" font-size="10" text-anchor="middle">✗ Deny</text>
  <rect x="700" y="274" width="82" height="22" rx="3" fill="#9d00ff" opacity="0.2"/>
  <text x="741" y="289" fill="#9d00ff" font-size="9" text-anchor="middle">repo:read</text>
  <rect x="10" y="304" width="780" height="1" fill="#244763"/>

  <!-- Row: slack -->
  <rect x="10" y="305" width="780" height="36" fill="#0d1b2b"/>
  <text x="20" y="320" fill="#c8e0f4" font-size="10" font-weight="bold">slack-mcp</text>
  <text x="20" y="334" fill="#3a6080" font-size="9">slack:message (send/read)</text>
  <rect x="160" y="311" width="80" height="22" rx="3" fill="#00ff88" opacity="0.2" stroke="#00ff88" stroke-width="1"/>
  <text x="200" y="326" fill="#00ff88" font-size="10" text-anchor="middle">✓ Allow</text>
  <rect x="270" y="311" width="80" height="22" rx="3" fill="#00ff88" opacity="0.2" stroke="#00ff88" stroke-width="1"/>
  <text x="310" y="326" fill="#00ff88" font-size="10" text-anchor="middle">✓ Allow</text>
  <rect x="380" y="311" width="80" height="22" rx="3" fill="#ffe000" opacity="0.15" stroke="#ffe000" stroke-width="1"/>
  <text x="420" y="326" fill="#ffe000" font-size="10" text-anchor="middle">~ Read only</text>
  <rect x="490" y="311" width="80" height="22" rx="3" fill="#00ff88" opacity="0.2" stroke="#00ff88" stroke-width="1"/>
  <text x="530" y="326" fill="#00ff88" font-size="10" text-anchor="middle">✓ Allow</text>
  <rect x="600" y="311" width="80" height="22" rx="3" fill="#ffe000" opacity="0.15" stroke="#ffe000" stroke-width="1"/>
  <text x="640" y="326" fill="#ffe000" font-size="10" text-anchor="middle">~ Read only</text>
  <rect x="700" y="311" width="82" height="22" rx="3" fill="#9d00ff" opacity="0.2"/>
  <text x="741" y="326" fill="#9d00ff" font-size="9" text-anchor="middle">chat:read+</text>

  <!-- Legend + footer -->
  <rect x="10" y="352" width="780" height="88" rx="3" fill="#0d1b2b" stroke="#244763" stroke-width="1"/>
  <rect x="10" y="352" width="780" height="24" fill="#112338"/>
  <text x="24" y="369" fill="#c8e0f4" font-size="11" font-weight="bold">Legend &amp; OAuth Badge Info</text>

  <rect x="22" y="385" width="64" height="16" rx="3" fill="#00ff88" opacity="0.2" stroke="#00ff88" stroke-width="1"/>
  <text x="54" y="397" fill="#00ff88" font-size="9" text-anchor="middle">✓ Allow</text>
  <text x="94" y="397" fill="#5a8090" font-size="9">Full access to this tool/scope</text>

  <rect x="220" y="385" width="64" height="16" rx="3" fill="#ff0080" opacity="0.15" stroke="#ff0080" stroke-width="1"/>
  <text x="252" y="397" fill="#ff0080" font-size="9" text-anchor="middle">✗ Deny</text>
  <text x="292" y="397" fill="#5a8090" font-size="9">No access — request blocked</text>

  <rect x="430" y="385" width="64" height="16" rx="3" fill="#ffe000" opacity="0.15" stroke="#ffe000" stroke-width="1"/>
  <text x="462" y="397" fill="#ffe000" font-size="9" text-anchor="middle">~ Partial</text>
  <text x="502" y="397" fill="#5a8090" font-size="9">Scoped/filtered access</text>

  <rect x="650" y="385" width="64" height="16" rx="3" fill="#9d00ff" opacity="0.2"/>
  <text x="682" y="397" fill="#9d00ff" font-size="9" text-anchor="middle">OAuth scope</text>
  <text x="720" y="397" fill="#5a8090" font-size="9">Required</text>

  <text x="22" y="430" fill="#3a6080" font-size="9">Policy engine: OPA (Open Policy Agent) · Permission sync: real-time · Audit log: all denies recorded · Last policy update: 2h ago</text>
</svg>
