<svg width="800" height="450" xmlns="http://www.w3.org/2000/svg" font-family="sans-serif">
  <rect width="800" height="450" fill="#08131f"/>
  <rect width="800" height="40" fill="#0d1b2b"/>
  <rect x="0" y="40" width="800" height="1" fill="#244763"/>
  <text x="20" y="26" fill="#00f5ff" font-size="14" font-weight="bold">MCP Platform · Server Registry</text>
  <text x="580" y="26" fill="#5a8090" font-size="11">8 servers · 6 online · 2 offline</text>

  <!-- Table header -->
  <rect x="10" y="50" width="780" height="28" fill="#112338"/>
  <text x="24" y="69" fill="#5a8090" font-size="10" font-weight="bold">SERVER NAME</text>
  <text x="200" y="69" fill="#5a8090" font-size="10" font-weight="bold">STATUS</text>
  <text x="290" y="69" fill="#5a8090" font-size="10" font-weight="bold">VERSION</text>
  <text x="370" y="69" fill="#5a8090" font-size="10" font-weight="bold">TOOLS</text>
  <text x="430" y="69" fill="#5a8090" font-size="10" font-weight="bold">RESOURCES</text>
  <text x="520" y="69" fill="#5a8090" font-size="10" font-weight="bold">LAST PING</text>
  <text x="620" y="69" fill="#5a8090" font-size="10" font-weight="bold">LATENCY</text>
  <text x="700" y="69" fill="#5a8090" font-size="10" font-weight="bold">REQUESTS/HR</text>
  <rect x="10" y="78" width="780" height="1" fill="#244763"/>

  <!-- Row 1: database-mcp -->
  <rect x="10" y="79" width="780" height="40" fill="#0d1b2b"/>
  <text x="24" y="96" fill="#c8e0f4" font-size="11" font-weight="bold">database-mcp</text>
  <text x="24" y="110" fill="#3a6080" font-size="9">PostgreSQL · read/write</text>
  <circle cx="210" cy="99" r="5" fill="#00ff88"/>
  <text x="222" y="103" fill="#00ff88" font-size="10">online</text>
  <text x="290" y="103" fill="#5a8090" font-size="10">v2.3.1</text>
  <text x="374" y="103" fill="#c8e0f4" font-size="11" font-weight="bold">12</text>
  <text x="434" y="103" fill="#c8e0f4" font-size="11">8 tables</text>
  <text x="520" y="103" fill="#00ff88" font-size="10">just now</text>
  <text x="620" y="103" fill="#00ff88" font-size="10">8ms</text>
  <text x="700" y="103" fill="#c8e0f4" font-size="10">2,841</text>
  <rect x="10" y="119" width="780" height="1" fill="#244763"/>

  <!-- Row 2: filesystem-mcp -->
  <rect x="10" y="120" width="780" height="40" fill="#08131f"/>
  <text x="24" y="137" fill="#c8e0f4" font-size="11" font-weight="bold">filesystem-mcp</text>
  <text x="24" y="151" fill="#3a6080" font-size="9">Local FS · read-only</text>
  <circle cx="210" cy="140" r="5" fill="#00ff88"/>
  <text x="222" y="144" fill="#00ff88" font-size="10">online</text>
  <text x="290" y="144" fill="#5a8090" font-size="10">v1.8.0</text>
  <text x="374" y="144" fill="#c8e0f4" font-size="11" font-weight="bold">6</text>
  <text x="434" y="144" fill="#c8e0f4" font-size="11">file tree</text>
  <text x="520" y="144" fill="#00ff88" font-size="10">2s ago</text>
  <text x="620" y="144" fill="#00ff88" font-size="10">3ms</text>
  <text x="700" y="144" fill="#c8e0f4" font-size="10">1,204</text>
  <rect x="10" y="160" width="780" height="1" fill="#244763"/>

  <!-- Row 3: github-mcp -->
  <rect x="10" y="161" width="780" height="40" fill="#0d1b2b"/>
  <text x="24" y="178" fill="#c8e0f4" font-size="11" font-weight="bold">github-mcp</text>
  <text x="24" y="192" fill="#3a6080" font-size="9">GitHub API · OAuth2</text>
  <circle cx="210" cy="181" r="5" fill="#00ff88"/>
  <text x="222" y="185" fill="#00ff88" font-size="10">online</text>
  <text x="290" y="185" fill="#5a8090" font-size="10">v3.1.4</text>
  <text x="374" y="185" fill="#c8e0f4" font-size="11" font-weight="bold">18</text>
  <text x="434" y="185" fill="#c8e0f4" font-size="11">repos/PRs</text>
  <text x="520" y="185" fill="#00ff88" font-size="10">5s ago</text>
  <text x="620" y="185" fill="#ffe000" font-size="10">94ms</text>
  <text x="700" y="185" fill="#c8e0f4" font-size="10">847</text>
  <rect x="10" y="201" width="780" height="1" fill="#244763"/>

  <!-- Row 4: web-search-mcp -->
  <rect x="10" y="202" width="780" height="40" fill="#08131f"/>
  <text x="24" y="219" fill="#c8e0f4" font-size="11" font-weight="bold">web-search-mcp</text>
  <text x="24" y="233" fill="#3a6080" font-size="9">Brave Search API</text>
  <circle cx="210" cy="222" r="5" fill="#00ff88"/>
  <text x="222" y="226" fill="#00ff88" font-size="10">online</text>
  <text x="290" y="226" fill="#5a8090" font-size="10">v1.2.0</text>
  <text x="374" y="226" fill="#c8e0f4" font-size="11" font-weight="bold">3</text>
  <text x="434" y="226" fill="#c8e0f4" font-size="11">web/news</text>
  <text x="520" y="226" fill="#00ff88" font-size="10">1s ago</text>
  <text x="620" y="226" fill="#ffe000" font-size="10">210ms</text>
  <text x="700" y="226" fill="#c8e0f4" font-size="10">3,124</text>
  <rect x="10" y="242" width="780" height="1" fill="#244763"/>

  <!-- Row 5: code-exec-mcp -->
  <rect x="10" y="243" width="780" height="40" fill="#0d1b2b"/>
  <text x="24" y="260" fill="#c8e0f4" font-size="11" font-weight="bold">code-exec-mcp</text>
  <text x="24" y="274" fill="#3a6080" font-size="9">Sandboxed Python/JS</text>
  <circle cx="210" cy="263" r="5" fill="#00ff88"/>
  <text x="222" y="267" fill="#00ff88" font-size="10">online</text>
  <text x="290" y="267" fill="#5a8090" font-size="10">v2.0.3</text>
  <text x="374" y="267" fill="#c8e0f4" font-size="11" font-weight="bold">4</text>
  <text x="434" y="267" fill="#c8e0f4" font-size="11">sandbox env</text>
  <text x="520" y="267" fill="#00ff88" font-size="10">8s ago</text>
  <text x="620" y="267" fill="#ffe000" font-size="10">384ms</text>
  <text x="700" y="267" fill="#c8e0f4" font-size="10">412</text>
  <rect x="10" y="283" width="780" height="1" fill="#244763"/>

  <!-- Row 6: slack-mcp -->
  <rect x="10" y="284" width="780" height="40" fill="#08131f"/>
  <text x="24" y="301" fill="#c8e0f4" font-size="11" font-weight="bold">slack-mcp</text>
  <text x="24" y="315" fill="#3a6080" font-size="9">Slack Bot API · OAuth2</text>
  <circle cx="210" cy="304" r="5" fill="#00ff88"/>
  <text x="222" y="308" fill="#00ff88" font-size="10">online</text>
  <text x="290" y="308" fill="#5a8090" font-size="10">v1.5.2</text>
  <text x="374" y="308" fill="#c8e0f4" font-size="11" font-weight="bold">7</text>
  <text x="434" y="308" fill="#c8e0f4" font-size="11">channels</text>
  <text x="520" y="308" fill="#00ff88" font-size="10">12s ago</text>
  <text x="620" y="308" fill="#00ff88" font-size="10">42ms</text>
  <text x="700" y="308" fill="#c8e0f4" font-size="10">188</text>
  <rect x="10" y="324" width="780" height="1" fill="#244763"/>

  <!-- Row 7: email-mcp (offline) -->
  <rect x="10" y="325" width="780" height="40" fill="#0d1b2b" opacity="0.5"/>
  <text x="24" y="342" fill="#5a8090" font-size="11">email-mcp</text>
  <text x="24" y="356" fill="#3a6080" font-size="9">Gmail/SMTP · OAuth2</text>
  <circle cx="210" cy="345" r="5" fill="#ff0080"/>
  <text x="222" y="349" fill="#ff0080" font-size="10">offline</text>
  <text x="290" y="349" fill="#3a6080" font-size="10">v1.1.0</text>
  <text x="374" y="349" fill="#3a6080" font-size="11">5</text>
  <text x="434" y="349" fill="#3a6080" font-size="11">inbox</text>
  <text x="520" y="349" fill="#ff0080" font-size="10">14m ago</text>
  <text x="620" y="349" fill="#ff0080" font-size="10">timeout</text>
  <text x="700" y="349" fill="#3a6080" font-size="10">0</text>
  <rect x="10" y="365" width="780" height="1" fill="#244763"/>

  <!-- Row 8: calendar-mcp (offline) -->
  <rect x="10" y="366" width="780" height="40" fill="#08131f" opacity="0.5"/>
  <text x="24" y="383" fill="#5a8090" font-size="11">calendar-mcp</text>
  <text x="24" y="397" fill="#3a6080" font-size="9">Google Calendar · OAuth2</text>
  <circle cx="210" cy="386" r="5" fill="#ff0080"/>
  <text x="222" y="390" fill="#ff0080" font-size="10">offline</text>
  <text x="290" y="390" fill="#3a6080" font-size="10">v1.0.8</text>
  <text x="374" y="390" fill="#3a6080" font-size="11">4</text>
  <text x="434" y="390" fill="#3a6080" font-size="11">events</text>
  <text x="520" y="390" fill="#ff0080" font-size="10">2h ago</text>
  <text x="620" y="390" fill="#ff0080" font-size="10">—</text>
  <text x="700" y="390" fill="#3a6080" font-size="10">0</text>

  <!-- Bottom bar -->
  <rect x="10" y="414" width="780" height="26" rx="3" fill="#112338"/>
  <text x="24" y="428" fill="#5a8090" font-size="10">Total tools across all servers:</text>
  <text x="195" y="428" fill="#00f5ff" font-size="10" font-weight="bold">59 tools</text>
  <text x="260" y="428" fill="#5a8090" font-size="10">|  Registry version: MCP spec 1.0  |  Auto-discovery enabled  |  Health check interval: 30s</text>
  <text x="700" y="428" fill="#00ff88" font-size="10">6 / 8 healthy</text>
</svg>
